<svg width="123" height="32" viewBox="0 0 123 32" fill="none" xmlns="http://www.w3.org/2000/svg">
<rect width="123" height="32" rx="16" fill="#F7F7F7" fill-opacity="0.8"/>
<path d="M27.8945 8.10156C29.3634 6.63285 31.745 6.63285 33.2139 8.10156L35.8037 10.6914C37.2724 12.1602 37.2724 14.5419 35.8037 16.0107L33.2139 18.6006C33.1436 18.6708 33.0693 18.7353 32.9951 18.7988L33.0068 18.8105L28.3779 23.4385C26.9274 24.889 24.5756 24.889 23.125 23.4385L21.3467 21.6602L24.6631 18.2666C25.0354 17.8855 25.0286 17.2747 24.6475 16.9023L23.8008 16.0742C23.4197 15.702 22.8088 15.7098 22.4365 16.0908L19.1445 19.458L18.5752 18.8887C18.463 18.7996 18.3537 18.7043 18.25 18.6006L15.6602 16.0107C14.1915 14.5419 14.1915 12.1602 15.6602 10.6914L18.25 8.10156C19.7188 6.63285 22.1005 6.63285 23.5693 8.10156L25.7314 10.2637L27.8945 8.10156Z" fill="#212224"/>
<path d="M56.4258 7C56.7078 7.00002 56.9363 7.2288 56.9365 7.51074V7.65332C56.9365 10.9599 59.6173 13.6406 62.9238 13.6406C63.1871 13.6407 63.4004 13.845 63.4189 14.1035H63.4229V14.876H63.4189C63.4006 15.1347 63.1872 15.3387 62.9238 15.3389C59.6173 15.3389 56.9366 18.0197 56.9365 21.3262V21.4688C56.9365 21.7508 56.7079 21.9795 56.4258 21.9795H55.751C55.4689 21.9795 55.2402 21.7509 55.2402 21.4688V21.3262C55.2402 18.0197 52.5594 15.3389 49.2529 15.3389C48.9894 15.3389 48.7762 15.1348 48.7578 14.876H48.7539V14.1035H48.7578C48.7763 13.8448 48.9895 13.6406 49.2529 13.6406C52.5594 13.6406 55.2402 10.9598 55.2402 7.65332V7.51074C55.2403 7.2287 55.4689 7 55.751 7H56.4258Z" fill="white"/>
<path d="M67.208 7C67.347 7.00014 67.4599 7.11289 67.46 7.25195V7.32227C67.46 8.95341 68.782 10.2762 70.4131 10.2764C70.5429 10.2764 70.6479 10.3765 70.6572 10.5039H70.6592V10.8857H70.6572C70.6479 11.0132 70.5429 11.1143 70.4131 11.1143C68.782 11.1144 67.46 12.4362 67.46 14.0674V14.1377C67.46 14.2768 67.3471 14.3895 67.208 14.3896H66.874C66.7349 14.3896 66.6221 14.2768 66.6221 14.1377V14.0674C66.6221 12.4363 65.3 11.1145 63.6689 11.1143C63.5391 11.1143 63.4341 11.0132 63.4248 10.8857H63.4219V10.5225C63.4219 10.5197 63.4228 10.5165 63.4229 10.5137V10.5039H63.4238C63.4331 10.3766 63.5384 10.2766 63.668 10.2764C65.2992 10.2764 66.6221 8.95349 66.6221 7.32227V7.25195C66.6221 7.1128 66.7349 7 66.874 7H67.208Z" fill="#212224"/>
<path d="M81.5078 29H105.508" stroke="#212224" stroke-width="2.22952" stroke-linecap="round"/>
<g clip-path="url(#clip0_340_8349)">
<rect x="90.8516" y="24.0547" width="20.2302" height="8.16502" rx="2.74576" transform="rotate(-70.6386 90.8516 24.0547)" fill="white"/>
<rect x="93.293" y="18.7344" width="9.01582" height="3.63883" rx="1.22368" transform="rotate(-70.6386 93.293 18.7344)" fill="#212224"/>
<rect x="98.0586" y="12.5078" width="2.48017" height="1.00101" rx="0.336622" transform="rotate(19.3614 98.0586 12.5078)" fill="white"/>
<rect x="82.3359" y="23.7109" width="20.2302" height="8.16502" rx="2.74576" transform="rotate(-70.6386 82.3359 23.7109)" fill="white"/>
<rect x="84.7773" y="18.3906" width="9.01582" height="3.63883" rx="1.22368" transform="rotate(-70.6386 84.7773 18.3906)" fill="#212224"/>
<rect x="89.543" y="12.1641" width="2.48017" height="1.00101" rx="0.336622" transform="rotate(19.3614 89.543 12.1641)" fill="white"/>
</g>
<defs>
<clipPath id="clip0_340_8349">
<rect width="22.7539" height="22.7539" fill="white" transform="translate(82.5078 4.625)"/>
</clipPath>
</defs>
</svg>
