<svg width="393" height="251" viewBox="0 0 393 251" fill="none" xmlns="http://www.w3.org/2000/svg">
<rect x="-64" y="213.2" width="97.7333" height="37.4" rx="6.16667" fill="#212224"/>
<path d="M-47.6583 238.9L-47.0416 235.161H-50.2984L-50.9151 238.9H-52.5724L-51.9557 235.161H-53.9599L-53.7093 233.523H-51.6859L-51.1656 230.324H-53.1505L-52.9 228.667H-50.8765L-50.2791 224.948H-48.6218L-49.2192 228.667H-45.9625L-45.3651 224.948H-43.7271L-44.3244 228.667H-42.301L-42.5708 230.324H-44.5942L-45.1146 233.523H-43.1104L-43.3994 235.161H-45.3843L-46.001 238.9H-47.6583ZM-50.0286 233.523H-46.7718L-46.2515 230.324H-49.5083L-50.0286 233.523ZM-41.2141 224.948H-38.6318L-34.2188 235.759H-34.0454L-29.6324 224.948H-27.0501V238.9H-29.0735V228.821H-29.2084L-33.2938 238.881H-34.9704L-39.0751 228.802H-39.1907V238.9H-41.2141V224.948ZM-24.8648 238.9V228.436H-22.8028V238.9H-24.8648ZM-23.8241 226.817C-24.5372 226.817 -25.1346 226.278 -25.1346 225.603C-25.1346 224.929 -24.5372 224.389 -23.8241 224.389C-23.1304 224.389 -22.533 224.929 -22.533 225.603C-22.533 226.278 -23.1304 226.817 -23.8241 226.817ZM-18.7289 232.695V238.9H-20.7909V228.436H-18.806V230.151H-18.6904C-18.1893 229.033 -17.168 228.301 -15.6071 228.301C-13.4487 228.301 -12.0419 229.65 -12.0419 232.251V238.9H-14.0847V232.502C-14.0847 230.98 -14.9133 230.074 -16.3008 230.074C-17.7076 230.074 -18.7289 231.018 -18.7289 232.695ZM-10.0301 238.9V228.436H-7.96809V238.9H-10.0301ZM-8.98945 226.817C-9.70247 226.817 -10.2999 226.278 -10.2999 225.603C-10.2999 224.929 -9.70247 224.389 -8.98945 224.389C-8.2957 224.389 -7.6983 224.929 -7.6983 225.603C-7.6983 226.278 -8.2957 226.817 -8.98945 226.817ZM-5.95622 238.9V228.436H-3.97132V230.151H-3.8557C-3.41247 228.975 -2.39111 228.301 -1.00361 228.301C0.383888 228.301 1.3667 228.995 1.80993 230.151H1.92555C2.4266 229.014 3.5443 228.301 5.0667 228.301C6.95524 228.301 8.3042 229.496 8.3042 231.885V238.9H6.24222V232.078C6.24222 230.671 5.35576 230.074 4.2766 230.074C2.94691 230.074 2.19535 230.98 2.19535 232.232V238.9H0.152638V231.962C0.152638 230.825 -0.637466 230.074 -1.75517 230.074C-2.91142 230.074 -3.89424 231.037 -3.89424 232.444V238.9H-5.95622ZM9.81503 235.951C9.81503 233.562 11.8385 232.945 13.727 232.81C14.4208 232.762 15.9913 232.675 16.4827 232.656L16.4635 231.828C16.4635 230.652 15.7505 229.958 14.3437 229.958C13.1296 229.958 12.3973 230.517 12.1853 231.288H10.1426C10.3353 229.554 11.9541 228.301 14.4208 228.301C16.0781 228.301 18.5255 228.918 18.5255 231.943V238.9H16.5213V237.474H16.4442C16.0395 238.264 15.076 239.131 13.3416 239.131C11.3567 239.131 9.81503 237.994 9.81503 235.951ZM11.8192 235.971C11.8192 236.973 12.6478 237.493 13.8041 237.493C15.4807 237.493 16.4827 236.375 16.4827 235.123V234.159L14.0161 234.333C12.6671 234.429 11.8192 234.93 11.8192 235.971ZM22.58 224.948V238.9H20.5181V224.948H22.58Z" fill="url(#paint0_linear_10781_47098)" fill-opacity="0.8"/>
<rect x="39.7333" y="213.2" width="75.7333" height="37.4" rx="6.16667" fill="#212224"/>
<path d="M56.075 238.9L56.6917 235.161H53.4349L52.8183 238.9H51.161L51.7776 235.161H49.7735L50.024 233.523H52.0474L52.5677 230.324H50.5828L50.8334 228.667H52.8568L53.4542 224.948H55.1115L54.5141 228.667H57.7709L58.3683 224.948H60.0063L59.4089 228.667H61.4323L61.1625 230.324H59.1391L58.6188 233.523H60.623L60.3339 235.161H58.349L57.7323 238.9H56.075ZM53.7047 233.523H56.9615L57.4818 230.324H54.225L53.7047 233.523ZM70.1119 228.629C69.977 227.337 68.84 226.586 67.2406 226.586C65.5255 226.586 64.4463 227.453 64.4463 228.648C64.4463 229.978 65.8916 230.479 66.99 230.748L68.339 231.114C70.1312 231.538 72.3473 232.521 72.3666 235.046C72.3473 237.397 70.4781 239.131 67.1827 239.131C64.0609 239.131 62.0952 237.57 61.9604 235.026H64.0801C64.215 236.549 65.5447 237.281 67.1827 237.281C68.9557 237.281 70.2468 236.375 70.2661 235.007C70.2468 233.793 69.1098 233.292 67.626 232.907L65.9687 232.463C63.7333 231.847 62.3265 230.71 62.3265 228.763C62.3265 226.355 64.4848 224.755 67.2984 224.755C70.1312 224.755 72.1161 226.374 72.1739 228.629H70.1119ZM78.8686 228.436V230.074H76.7295V235.817C76.7295 236.992 77.3269 237.204 77.9821 237.223C78.2712 237.223 78.7337 237.185 79.0227 237.166V238.958C78.7337 238.996 78.2905 239.035 77.7316 239.035C76.1129 239.035 74.6675 238.148 74.6868 236.241V230.074H73.1451V228.436H74.6868V225.931H76.7295V228.436H78.8686ZM84.7732 239.112C81.6898 239.112 79.8013 236.992 79.8013 233.735C79.8013 230.517 81.7284 228.301 84.6383 228.301C87.0278 228.301 89.2825 229.785 89.2825 233.562V234.294H81.844C81.9018 236.279 83.0677 237.416 84.7924 237.416C85.968 237.416 86.7195 236.915 87.0664 236.279H89.1476C88.6851 237.975 87.0664 239.112 84.7732 239.112ZM81.8633 232.753H87.2591C87.2591 231.153 86.2377 229.997 84.6575 229.997C83.0099 229.997 81.9403 231.269 81.8633 232.753ZM95.3413 239.112C92.258 239.112 90.3694 236.992 90.3694 233.735C90.3694 230.517 92.2965 228.301 95.2064 228.301C97.596 228.301 99.8507 229.785 99.8507 233.562V234.294H92.4121C92.4699 236.279 93.6358 237.416 95.3606 237.416C96.5361 237.416 97.2876 236.915 97.6345 236.279H99.7158C99.2533 237.975 97.6345 239.112 95.3413 239.112ZM92.4314 232.753H97.8272C97.8272 231.153 96.8059 229.997 95.2257 229.997C93.578 229.997 92.5085 231.269 92.4314 232.753ZM103.462 224.948V238.9H101.4V224.948H103.462Z" fill="url(#paint1_linear_10781_47098)" fill-opacity="0.8"/>
<rect x="121.467" y="213.2" width="77.7333" height="37.4" rx="6.16667" fill="#212224"/>
<path d="M137.808 238.9L138.425 235.161H135.168L134.552 238.9H132.894L133.511 235.161H131.507L131.757 233.523H133.781L134.301 230.324H132.316L132.567 228.667H134.581L135.188 224.948H136.845L136.238 228.667H139.495L140.102 224.948H141.74L141.133 228.667H143.166L142.896 230.324H140.863L140.342 233.523H142.356L142.067 235.161H140.073L139.466 238.9H137.808ZM135.438 233.523H138.695L139.215 230.324H135.958L135.438 233.523ZM148.781 238.9H144.253V224.948H148.916C153.03 224.948 155.478 227.559 155.487 231.905C155.478 236.26 153.03 238.9 148.781 238.9ZM146.372 237.05H148.666C151.826 237.04 153.387 235.2 153.387 231.905C153.387 228.619 151.826 226.798 148.781 226.798H146.372V237.05ZM161.72 239.112C158.636 239.112 156.738 236.982 156.748 233.735C156.738 230.517 158.665 228.301 161.585 228.301C163.965 228.301 166.229 229.775 166.229 233.562V234.294H158.79C158.848 236.289 160.024 237.416 161.739 237.416C162.905 237.416 163.666 236.915 164.013 236.279H166.094C165.632 237.975 164.022 239.112 161.72 239.112ZM158.8 232.753H164.206C164.206 231.163 163.175 229.987 161.604 229.997C159.956 229.987 158.887 231.278 158.8 232.753ZM172.288 239.112C169.204 239.112 167.306 236.982 167.316 233.735C167.306 230.517 169.233 228.301 172.153 228.301C174.533 228.301 176.797 229.775 176.797 233.562V234.294H169.359C169.416 236.289 170.592 237.416 172.307 237.416C173.473 237.416 174.234 236.915 174.581 236.279H176.662C176.2 237.975 174.591 239.112 172.288 239.112ZM169.368 232.753H174.774C174.774 231.163 173.743 229.987 172.172 229.997C170.524 229.987 169.455 231.278 169.368 232.753ZM178.346 242.831V228.436H180.351V230.132H180.524C180.89 229.476 181.594 228.301 183.53 228.301C186.064 228.301 187.924 230.286 187.924 233.697C187.924 237.069 186.084 239.102 183.55 239.112C181.651 239.102 180.9 237.946 180.524 237.262H180.408V242.831H178.346ZM180.37 233.658C180.37 235.855 181.333 237.349 183.087 237.358C184.899 237.349 185.843 235.759 185.843 233.658C185.843 231.596 184.927 230.045 183.087 230.055C181.314 230.045 180.37 231.481 180.37 233.658Z" fill="url(#paint2_linear_10781_47098)" fill-opacity="0.8"/>
<rect x="205.2" y="213.2" width="83.7333" height="37.4" rx="6.16667" fill="#212224"/>
<path d="M221.542 238.9L222.158 235.161H218.902L218.285 238.9H216.628L217.244 235.161H215.24L215.491 233.523H217.514L218.034 230.324H216.05L216.3 228.667H218.323L218.921 224.948H220.578L219.981 228.667H223.238L223.835 224.948H225.473L224.876 228.667H226.899L226.629 230.324H224.606L224.085 233.523H226.09L225.801 235.161H223.816L223.199 238.9H221.542ZM219.171 233.523H222.428L222.948 230.324H219.692L219.171 233.523ZM235.579 228.629C235.444 227.337 234.307 226.586 232.707 226.586C230.992 226.586 229.913 227.453 229.913 228.648C229.913 229.978 231.358 230.479 232.457 230.748L233.806 231.114C235.598 231.538 237.814 232.521 237.833 235.046C237.814 237.397 235.945 239.131 232.649 239.131C229.528 239.131 227.562 237.57 227.427 235.026H229.547C229.682 236.549 231.011 237.281 232.649 237.281C234.422 237.281 235.713 236.375 235.733 235.007C235.713 233.793 234.577 233.292 233.093 232.907L231.435 232.463C229.2 231.847 227.793 230.71 227.793 228.763C227.793 226.355 229.952 224.755 232.765 224.755C235.598 224.755 237.583 226.374 237.641 228.629H235.579ZM244.335 228.436V230.074H242.196V235.817C242.196 236.992 242.794 237.204 243.449 237.223C243.738 237.223 244.2 237.185 244.489 237.166V238.958C244.2 238.996 243.757 239.035 243.198 239.035C241.58 239.035 240.134 238.148 240.153 236.241V230.074H238.612V228.436H240.153V225.931H242.196V228.436H244.335ZM245.846 238.9V228.436H247.831V230.093H247.947C248.332 228.975 249.373 228.282 250.606 228.282C250.857 228.282 251.261 228.301 251.473 228.32V230.286C251.3 230.247 250.818 230.17 250.394 230.17C248.968 230.17 247.908 231.153 247.908 232.521V238.9H245.846ZM256.684 239.112C253.601 239.112 251.712 236.992 251.712 233.735C251.712 230.517 253.639 228.301 256.549 228.301C258.939 228.301 261.193 229.785 261.193 233.562V234.294H253.755C253.813 236.279 254.979 237.416 256.703 237.416C257.879 237.416 258.63 236.915 258.977 236.279H261.058C260.596 237.975 258.977 239.112 256.684 239.112ZM253.774 232.753H259.17C259.17 231.153 258.149 229.997 256.568 229.997C254.921 229.997 253.851 231.269 253.774 232.753ZM267.252 239.112C264.169 239.112 262.28 236.992 262.28 233.735C262.28 230.517 264.207 228.301 267.117 228.301C269.507 228.301 271.762 229.785 271.762 233.562V234.294H264.323C264.381 236.279 265.547 237.416 267.271 237.416C268.447 237.416 269.198 236.915 269.545 236.279H271.627C271.164 237.975 269.545 239.112 267.252 239.112ZM264.342 232.753H269.738C269.738 231.153 268.717 229.997 267.137 229.997C265.489 229.997 264.419 231.269 264.342 232.753ZM278.206 228.436V230.074H276.067V235.817C276.067 236.992 276.664 237.204 277.319 237.223C277.608 237.223 278.071 237.185 278.36 237.166V238.958C278.071 238.996 277.628 239.035 277.069 239.035C275.45 239.035 274.005 238.148 274.024 236.241V230.074H272.482V228.436H274.024V225.931H276.067V228.436H278.206Z" fill="url(#paint3_linear_10781_47098)" fill-opacity="0.8"/>
<rect x="294.933" y="213.2" width="65.7333" height="37.4" rx="6.16667" fill="#212224"/>
<path d="M311.275 238.9L311.892 235.161H308.635L308.018 238.9H306.361L306.978 235.161H304.973L305.224 233.523H307.247L307.768 230.324H305.783L306.033 228.667H308.047L308.654 224.948H310.312L309.704 228.667H312.961L313.568 224.948H315.206L314.599 228.667H316.632L316.363 230.324H314.329L313.809 233.523H315.823L315.534 235.161H313.539L312.932 238.9H311.275ZM308.905 233.523H312.162L312.682 230.324H309.425L308.905 233.523ZM317.719 238.9V224.948H322.826C325.803 224.948 327.239 226.538 327.239 228.609C327.239 230.353 326.169 231.23 324.888 231.558V231.693C326.275 231.77 327.779 232.984 327.779 235.142C327.779 237.281 326.314 238.9 323.057 238.9H317.719ZM319.839 237.088H322.865C324.869 237.079 325.678 236.202 325.678 235.046C325.678 233.706 324.618 232.637 322.942 232.637H319.839V237.088ZM319.839 230.98H322.653C324.059 230.97 325.158 230.122 325.158 228.783C325.158 227.626 324.358 226.759 322.691 226.759H319.839V230.98ZM331.448 224.948V238.9H329.386V224.948H331.448ZM340.108 234.545V228.436H342.151V238.9H340.147V237.088H340.031C339.549 238.206 338.48 239.035 336.909 239.035C334.886 239.035 333.46 237.676 333.46 235.084V228.436H335.522V234.834C335.522 236.26 336.389 237.166 337.641 237.166C338.788 237.166 340.108 236.327 340.108 234.545ZM344.163 238.9V228.436H346.148V230.093H346.263C346.649 228.975 347.699 228.272 348.923 228.282C349.173 228.272 349.578 228.301 349.79 228.32V230.286C349.616 230.247 349.135 230.161 348.711 230.17C347.285 230.161 346.225 231.153 346.225 232.521V238.9H344.163Z" fill="url(#paint4_linear_10781_47098)" fill-opacity="0.8"/>
<rect x="366.667" y="213.2" width="80.7333" height="37.4" rx="6.16667" fill="#212224"/>
<path d="M383.008 238.9L383.625 235.161H380.368L379.752 238.9H378.094L378.711 235.161H376.707L376.957 233.523H378.981L379.501 230.324H377.516L377.767 228.667H379.79L380.388 224.948H382.045L381.447 228.667H384.704L385.302 224.948H386.94L386.342 228.667H388.366L388.096 230.324H386.072L385.552 233.523H387.556L387.267 235.161H385.282L384.666 238.9H383.008ZM380.638 233.523H383.895L384.415 230.324H381.158L380.638 233.523ZM389.453 224.948H392.035L396.448 235.759H396.621L401.034 224.948H403.617V238.9H401.593V228.821H401.458L397.373 238.881H395.696L391.592 228.802H391.476V238.9H389.453V224.948ZM410.234 239.112C407.267 239.112 405.339 236.954 405.339 233.716C405.339 230.459 407.267 228.301 410.234 228.301C413.183 228.301 415.11 230.459 415.11 233.716C415.11 236.954 413.183 239.112 410.234 239.112ZM410.234 237.397C412.123 237.397 413.028 235.72 413.028 233.716C413.028 231.712 412.123 229.997 410.234 229.997C408.307 229.997 407.401 231.712 407.401 233.716C407.401 235.72 408.307 237.397 410.234 237.397ZM418.702 232.695V238.9H416.64V228.436H418.625V230.151H418.74C419.241 229.033 420.263 228.301 421.824 228.301C423.982 228.301 425.389 229.65 425.389 232.251V238.9H423.346V232.502C423.346 230.98 422.517 230.074 421.13 230.074C419.723 230.074 418.702 231.018 418.702 232.695ZM431.833 239.112C428.865 239.112 426.938 236.954 426.938 233.716C426.938 230.459 428.865 228.301 431.833 228.301C434.781 228.301 436.708 230.459 436.708 233.716C436.708 236.954 434.781 239.112 431.833 239.112ZM431.833 237.397C433.722 237.397 434.627 235.72 434.627 233.716C434.627 231.712 433.722 229.997 431.833 229.997C429.906 229.997 429 231.712 429 233.716C429 235.72 429.906 237.397 431.833 237.397Z" fill="url(#paint5_linear_10781_47098)" fill-opacity="0.8"/>
<rect x="-64" y="53" width="86.7333" height="37.4" rx="6.16667" fill="#212224"/>
<path d="M-47.6583 78.7002L-47.0416 74.9617H-50.2984L-50.9151 78.7002H-52.5724L-51.9557 74.9617H-53.9599L-53.7093 73.3236H-51.6859L-51.1656 70.1247H-53.1505L-52.9 68.4674H-50.8765L-50.2791 64.7481H-48.6218L-49.2192 68.4674H-45.9625L-45.3651 64.7481H-43.7271L-44.3244 68.4674H-42.301L-42.5708 70.1247H-44.5942L-45.1146 73.3236H-43.1104L-43.3994 74.9617H-45.3843L-46.001 78.7002H-47.6583ZM-50.0286 73.3236H-46.7718L-46.2515 70.1247H-49.5083L-50.0286 73.3236ZM-41.2141 78.7002V64.7481H-36.1074C-33.1397 64.7481 -31.6943 66.3476 -31.6943 68.4096C-31.6943 70.1439 -32.7542 71.0304 -34.0454 71.358V71.4929C-32.6579 71.57 -31.1548 72.784 -31.1548 74.9424C-31.1548 77.0814 -32.6193 78.7002 -35.8761 78.7002H-41.2141ZM-36.0688 76.8887C-34.0647 76.8887 -33.2553 76.0023 -33.2553 74.846C-33.2553 73.5163 -34.3152 72.4372 -35.9917 72.4372H-39.0943V76.8887H-36.0688ZM-36.2808 70.7799C-34.874 70.7799 -33.7756 69.9127 -33.7756 68.583C-33.7756 67.4268 -34.5657 66.5596 -36.2423 66.5596H-39.0943V70.7799H-36.2808ZM-29.5476 78.7002V68.2361H-27.5627V69.8934H-27.447C-27.0616 68.7757 -26.021 68.082 -24.7877 68.082C-24.5372 68.082 -24.1325 68.1012 -23.9205 68.1205V70.0861C-24.0939 70.0476 -24.5757 69.9705 -24.9997 69.9705C-26.4257 69.9705 -27.4856 70.9533 -27.4856 72.3215V78.7002H-29.5476ZM-18.7867 78.9122C-21.7544 78.9122 -23.6815 76.7538 -23.6815 73.5163C-23.6815 70.2596 -21.7544 68.1012 -18.7867 68.1012C-15.8383 68.1012 -13.9112 70.2596 -13.9112 73.5163C-13.9112 76.7538 -15.8383 78.9122 -18.7867 78.9122ZM-18.7867 77.1971C-16.8982 77.1971 -15.9925 75.5205 -15.9925 73.5163C-15.9925 71.5122 -16.8982 69.7971 -18.7867 69.7971C-20.7138 69.7971 -21.6196 71.5122 -21.6196 73.5163C-21.6196 75.5205 -20.7138 77.1971 -18.7867 77.1971ZM-10.454 78.7002L-13.5181 68.2361H-11.3983L-9.35559 75.9059H-9.23996L-7.19726 68.2361H-5.07746L-3.05403 75.8674H-2.9384L-0.914965 68.2361H1.20483L-1.85924 78.7002H-3.95976L-6.07955 71.1653H-6.23371L-8.33424 78.7002H-10.454ZM4.4693 72.495V78.7002H2.40732V68.2361H4.39222V69.9512H4.50785C5.00889 68.8335 6.03024 68.1012 7.59118 68.1012C9.74951 68.1012 11.1563 69.4502 11.1563 72.0518V78.7002H9.11357V72.3023C9.11357 70.7799 8.28493 69.8742 6.89743 69.8742C5.49066 69.8742 4.4693 70.8184 4.4693 72.495Z" fill="url(#paint6_linear_10781_47098)" fill-opacity="0.8"/>
<rect x="28.7333" y="53" width="102.733" height="37.4" rx="6.16667" fill="#212224"/>
<path d="M45.075 78.7002L45.6917 74.9617H42.4349L41.8183 78.7002H40.161L40.7776 74.9617H38.7735L39.024 73.3236H41.0474L41.5677 70.1247H39.5828L39.8334 68.4674H41.8568L42.4542 64.7481H44.1115L43.5141 68.4674H46.7709L47.3683 64.7481H49.0063L48.4089 68.4674H50.4323L50.1625 70.1247H48.1391L47.6188 73.3236H49.623L49.3339 74.9617H47.349L46.7323 78.7002H45.075ZM42.7047 73.3236H45.9615L46.4818 70.1247H43.225L42.7047 73.3236ZM51.5192 64.7481H54.1015L58.5145 75.559H58.688L63.101 64.7481H65.6833V78.7002H63.6598V68.6215H63.5249L59.4395 78.6809H57.763L53.6583 68.6023H53.5426V78.7002H51.5192V64.7481ZM72.3009 78.9122C69.3332 78.9122 67.4061 76.7538 67.4061 73.5163C67.4061 70.2596 69.3332 68.1012 72.3009 68.1012C75.2493 68.1012 77.1764 70.2596 77.1764 73.5163C77.1764 76.7538 75.2493 78.9122 72.3009 78.9122ZM72.3009 77.1971C74.1894 77.1971 75.0951 75.5205 75.0951 73.5163C75.0951 71.5122 74.1894 69.7971 72.3009 69.7971C70.3738 69.7971 69.4681 71.5122 69.4681 73.5163C69.4681 75.5205 70.3738 77.1971 72.3009 77.1971ZM78.7065 78.7002V68.2361H80.6914V69.8934H80.807C81.1924 68.7757 82.2331 68.082 83.4664 68.082C83.7169 68.082 84.1216 68.1012 84.3336 68.1205V70.0861C84.1601 70.0476 83.6784 69.9705 83.2544 69.9705C81.8284 69.9705 80.7685 70.9533 80.7685 72.3215V78.7002H78.7065ZM87.4439 72.495V78.7002H85.3819V68.2361H87.3668V69.9512H87.4824C87.9835 68.8335 89.0048 68.1012 90.5658 68.1012C92.7241 68.1012 94.1309 69.4502 94.1309 72.0518V78.7002H92.0882V72.3023C92.0882 70.7799 91.2595 69.8742 89.872 69.8742C88.4652 69.8742 87.4439 70.8184 87.4439 72.495ZM96.1427 78.7002V68.2361H98.2047V78.7002H96.1427ZM97.1834 66.6174C96.4703 66.6174 95.873 66.0778 95.873 65.4033C95.873 64.7288 96.4703 64.1893 97.1834 64.1893C97.8771 64.1893 98.4745 64.7288 98.4745 65.4033C98.4745 66.0778 97.8771 66.6174 97.1834 66.6174ZM102.279 72.495V78.7002H100.217V68.2361H102.201V69.9512H102.317C102.818 68.8335 103.84 68.1012 105.4 68.1012C107.559 68.1012 108.966 69.4502 108.966 72.0518V78.7002H106.923V72.3023C106.923 70.7799 106.094 69.8742 104.707 69.8742C103.3 69.8742 102.279 70.8184 102.279 72.495ZM115.371 82.8434C112.731 82.8434 110.997 81.6679 110.804 79.7215H112.905C113.097 80.7044 114.022 81.1861 115.39 81.1861C117.028 81.1861 118.069 80.4924 118.069 78.8544V76.7924H117.934C117.568 77.4669 116.816 78.546 114.889 78.546C112.423 78.546 110.515 76.696 110.515 73.3622C110.515 70.0283 112.384 68.1012 114.909 68.1012C116.855 68.1012 117.568 69.2768 117.953 69.932H118.088V68.2361H120.093V78.9314C120.093 81.6101 118.069 82.8434 115.371 82.8434ZM115.352 76.8502C117.106 76.8502 118.088 75.559 118.088 73.4007C118.088 71.2809 117.125 69.8549 115.352 69.8549C113.521 69.8549 112.615 71.3965 112.615 73.4007C112.615 75.4434 113.56 76.8502 115.352 76.8502Z" fill="url(#paint7_linear_10781_47098)" fill-opacity="0.8"/>
<rect x="137.467" y="53" width="78.7333" height="37.4" rx="6.16667" fill="#212224"/>
<path d="M153.808 78.7002L154.425 74.9617H151.168L150.552 78.7002H148.894L149.511 74.9617H147.507L147.757 73.3236H149.781L150.301 70.1247H148.316L148.567 68.4674H150.59L151.188 64.7481H152.845L152.247 68.4674H155.504L156.102 64.7481H157.74L157.142 68.4674H159.166L158.896 70.1247H156.872L156.352 73.3236H158.356L158.067 74.9617H156.082L155.466 78.7002H153.808ZM151.438 73.3236H154.695L155.215 70.1247H151.958L151.438 73.3236ZM171.507 64.7481V78.7002H169.56L162.488 68.5059H162.372V78.7002H160.253V64.7481H162.218L169.291 74.9617H169.425V64.7481H171.507ZM173.692 78.7002V68.2361H175.754V78.7002H173.692ZM174.733 66.6174C174.02 66.6174 173.422 66.0778 173.422 65.4033C173.422 64.7288 174.02 64.1893 174.733 64.1893C175.426 64.1893 176.024 64.7288 176.024 65.4033C176.024 66.0778 175.426 66.6174 174.733 66.6174ZM182.16 82.8434C179.52 82.8434 177.785 81.6679 177.592 79.7215H179.693C179.886 80.7044 180.811 81.1861 182.179 81.1861C183.817 81.1861 184.858 80.4924 184.858 78.8544V76.7924H184.723C184.357 77.4669 183.605 78.546 181.678 78.546C179.211 78.546 177.303 76.696 177.303 73.3622C177.303 70.0283 179.173 68.1012 181.697 68.1012C183.643 68.1012 184.357 69.2768 184.742 69.932H184.877V68.2361H186.881V78.9314C186.881 81.6101 184.858 82.8434 182.16 82.8434ZM182.14 76.8502C183.894 76.8502 184.877 75.559 184.877 73.4007C184.877 71.2809 183.913 69.8549 182.14 69.8549C180.31 69.8549 179.404 71.3965 179.404 73.4007C179.404 75.4434 180.348 76.8502 182.14 76.8502ZM190.955 72.495V78.7002H188.893V64.7481H190.916V69.9512H191.051C191.552 68.8143 192.516 68.1012 194.154 68.1012C196.312 68.1012 197.738 69.4309 197.738 72.0518V78.7002H195.676V72.3023C195.676 70.7606 194.848 69.8742 193.46 69.8742C192.015 69.8742 190.955 70.8184 190.955 72.495ZM204.626 68.2361V69.8742H202.486V75.6169C202.486 76.7924 203.084 77.0044 203.739 77.0236C204.028 77.0236 204.491 76.9851 204.78 76.9658V78.758C204.491 78.7965 204.047 78.8351 203.489 78.8351C201.87 78.8351 200.425 77.9486 200.444 76.0408V69.8742H198.902V68.2361H200.444V65.7309H202.486V68.2361H204.626Z" fill="url(#paint8_linear_10781_47098)" fill-opacity="0.8"/>
<rect x="222.2" y="53" width="66.7333" height="37.4" rx="6.16667" fill="#212224"/>
<path d="M238.542 78.7002L239.158 74.9617H235.902L235.285 78.7002H233.628L234.244 74.9617H232.24L232.491 73.3236H234.514L235.034 70.1247H233.05L233.3 68.4674H235.314L235.921 64.7481H237.578L236.971 68.4674H240.228L240.835 64.7481H242.473L241.866 68.4674H243.899L243.629 70.1247H241.596L241.076 73.3236H243.09L242.801 74.9617H240.806L240.199 78.7002H238.542ZM236.171 73.3236H239.428L239.948 70.1247H236.692L236.171 73.3236ZM254.429 69.296C254.091 67.4942 252.598 66.4921 250.825 66.5018C248.416 66.4921 246.634 68.3421 246.624 71.7242C246.634 75.1255 248.426 76.9562 250.825 76.9465C252.579 76.9562 254.062 75.9734 254.429 74.1908L256.568 74.2101C256.124 76.9658 253.879 78.8929 250.806 78.8929C247.173 78.8929 244.523 76.1854 244.523 71.7242C244.523 67.263 247.192 64.5554 250.806 64.5554C253.754 64.5554 256.096 66.2994 256.568 69.296H254.429ZM258.194 78.7002V68.2361H260.256V78.7002H258.194ZM257.924 65.4033C257.934 64.7288 258.522 64.1893 259.235 64.1893C259.938 64.1893 260.526 64.7288 260.526 65.4033C260.526 66.0778 259.938 66.627 259.235 66.6174C258.522 66.627 257.934 66.0778 257.924 65.4033ZM267.163 68.2361V69.8742H265.024V75.6169C265.033 76.802 265.611 77.014 266.276 77.0236C266.575 77.0236 267.028 76.9947 267.317 76.9658V78.758C267.037 78.7965 266.594 78.8351 266.026 78.8351C264.417 78.8351 262.962 77.9486 262.981 76.0408V69.8742H261.439V68.2361H262.981V65.7309H265.024V68.2361H267.163ZM269.945 82.6314C269.522 82.6218 269.107 82.6122 268.847 82.5736V80.8585C269.078 80.8778 269.483 80.8874 269.772 80.8971C270.408 80.8874 270.938 80.8489 271.429 79.5288L271.68 78.8351L267.845 68.2361H270.042L272.682 76.3492H272.798L275.438 68.2361H277.654L273.337 80.0877C272.73 81.745 271.67 82.6218 269.945 82.6314Z" fill="url(#paint9_linear_10781_47098)" fill-opacity="0.8"/>
<rect x="294.933" y="53" width="79.7333" height="37.4" rx="6.16667" fill="#212224"/>
<path d="M311.275 78.7002L311.892 74.9617H308.635L308.018 78.7002H306.361L306.978 74.9617H304.973L305.224 73.3236H307.247L307.768 70.1247H305.783L306.033 68.4674H308.047L308.654 64.7481H310.312L309.704 68.4674H312.961L313.568 64.7481H315.206L314.599 68.4674H316.632L316.363 70.1247H314.329L313.809 73.3236H315.823L315.534 74.9617H313.539L312.932 78.7002H311.275ZM308.905 73.3236H312.162L312.682 70.1247H309.425L308.905 73.3236ZM329.841 71.7242C329.841 76.1854 327.162 78.8929 323.558 78.8929C319.926 78.8929 317.257 76.1757 317.257 71.7242C317.257 67.263 319.926 64.5554 323.558 64.5554C327.162 64.5554 329.841 67.263 329.841 71.7242ZM319.357 71.7242C319.367 75.1158 321.149 76.9562 323.558 76.9465C325.948 76.9562 327.73 75.1158 327.74 71.7242C327.73 68.3325 325.948 66.4921 323.558 66.5018C321.149 66.4921 319.367 68.3325 319.357 71.7242ZM338.212 74.345V68.2361H340.255V78.7002H338.25V76.8887H338.135C337.653 78.0064 336.583 78.8351 335.013 78.8351C332.989 78.8351 331.563 77.4765 331.563 74.8846V68.2361H333.625V74.634C333.625 76.0601 334.493 76.9658 335.745 76.9658C336.892 76.9658 338.212 76.1275 338.212 74.345ZM347.161 68.2361V69.8742H345.022V75.6169C345.032 76.802 345.61 77.014 346.275 77.0236C346.573 77.0236 347.026 76.9947 347.315 76.9658V78.758C347.036 78.7965 346.593 78.8351 346.024 78.8351C344.415 78.8351 342.96 77.9486 342.979 76.0408V69.8742H341.438V68.2361H342.979V65.7309H345.022V68.2361H347.161ZM353.663 68.2361V69.8742H351.408V78.7002H349.347V69.8742H347.728V68.2361H349.347V67.0221C349.356 65.1528 350.551 64.0929 352.468 64.0929C352.96 64.0929 353.47 64.1507 353.875 64.2278V65.9429C353.49 65.8851 353.191 65.8658 353.008 65.8658C351.919 65.8658 351.408 66.309 351.408 67.3304V68.2361H353.663ZM355.039 78.7002V68.2361H357.101V78.7002H355.039ZM354.769 65.4033C354.779 64.7288 355.367 64.1893 356.08 64.1893C356.783 64.1893 357.371 64.7288 357.371 65.4033C357.371 66.0778 356.783 66.627 356.08 66.6174C355.367 66.627 354.779 66.0778 354.769 65.4033ZM364.008 68.2361V69.8742H361.869V75.6169C361.878 76.802 362.456 77.014 363.121 77.0236C363.42 77.0236 363.873 76.9947 364.162 76.9658V78.758C363.882 78.7965 363.439 78.8351 362.871 78.8351C361.262 78.8351 359.807 77.9486 359.826 76.0408V69.8742H358.284V68.2361H359.826V65.7309H361.869V68.2361H364.008Z" fill="url(#paint10_linear_10781_47098)" fill-opacity="0.8"/>
<rect x="-37" width="78.7333" height="37.4" rx="6.16667" fill="#212224"/>
<path d="M-20.6583 25.7002L-20.0416 21.9617H-23.2984L-23.9151 25.7002H-25.5724L-24.9557 21.9617H-26.9599L-26.7093 20.3236H-24.6859L-24.1656 17.1247H-26.1505L-25.9 15.4674H-23.8765L-23.2791 11.7481H-21.6218L-22.2192 15.4674H-18.9625L-18.3651 11.7481H-16.7271L-17.3244 15.4674H-15.301L-15.5708 17.1247H-17.5942L-18.1146 20.3236H-16.1104L-16.3994 21.9617H-18.3843L-19.001 25.7002H-20.6583ZM-23.0286 20.3236H-19.7718L-19.2515 17.1247H-22.5083L-23.0286 20.3236ZM-14.2141 25.7002V11.7481H-9.10736C-6.13965 11.7481 -4.69434 13.3476 -4.69434 15.4096C-4.69434 17.1439 -5.75424 18.0304 -7.04538 18.358V18.4929C-5.65788 18.57 -4.15476 19.784 -4.15476 21.9424C-4.15476 24.0814 -5.61934 25.7002 -8.87611 25.7002H-14.2141ZM-9.06882 23.8887C-7.06465 23.8887 -6.25528 23.0023 -6.25528 21.846C-6.25528 20.5163 -7.31517 19.4372 -8.99174 19.4372H-12.0943V23.8887H-9.06882ZM-9.2808 17.7799C-7.87403 17.7799 -6.77559 16.9127 -6.77559 15.583C-6.77559 14.4268 -7.5657 13.5596 -9.24226 13.5596H-12.0943V17.7799H-9.2808ZM-0.485591 11.7481V25.7002H-2.54757V11.7481H-0.485591ZM1.04451 22.7518C1.04451 20.3622 3.06795 19.7455 4.95649 19.6106C5.65024 19.5624 7.22082 19.4757 7.71222 19.4564L7.69295 18.6278C7.69295 17.4523 6.97993 16.7585 5.57316 16.7585C4.3591 16.7585 3.6268 17.3174 3.41483 18.0882H1.37212C1.56483 16.3538 3.18358 15.1012 5.65024 15.1012C7.30753 15.1012 9.75493 15.7179 9.75493 18.7434V25.7002H7.75076V24.2742H7.67368C7.26899 25.0643 6.30545 25.9314 4.57108 25.9314C2.58618 25.9314 1.04451 24.7945 1.04451 22.7518ZM3.04868 22.771C3.04868 23.7731 3.87733 24.2934 5.03358 24.2934C6.71014 24.2934 7.71222 23.1757 7.71222 21.9231V20.9596L5.24555 21.133C3.8966 21.2294 3.04868 21.7304 3.04868 22.771ZM16.1798 25.9122C13.135 25.9122 11.285 23.6575 11.285 20.5163C11.285 17.3174 13.1928 15.1012 16.1413 15.1012C18.5309 15.1012 20.2652 16.508 20.4772 18.6278H18.4731C18.2611 17.645 17.471 16.8163 16.1798 16.8163C14.484 16.8163 13.347 18.2231 13.347 20.4585C13.347 22.7518 14.4647 24.1585 16.1798 24.1585C17.3361 24.1585 18.2225 23.5226 18.4731 22.3856H20.4772C20.246 24.409 18.6465 25.9122 16.1798 25.9122ZM21.9302 25.7002V11.7481H23.9922V19.6492H24.1657L28.3089 15.2361H30.7756L26.5552 19.7262L31.0646 25.7002H28.5401L24.9943 20.9981L23.9922 21.9809V25.7002H21.9302Z" fill="url(#paint11_linear_10781_47098)" fill-opacity="0.8"/>
<rect x="47.7333" width="78.7333" height="37.4" rx="6.16667" fill="#212224"/>
<path d="M64.075 25.7002L64.6917 21.9617H61.4349L60.8183 25.7002H59.161L59.7776 21.9617H57.7735L58.024 20.3236H60.0474L60.5677 17.1247H58.5828L58.8334 15.4674H60.8568L61.4542 11.7481H63.1115L62.5141 15.4674H65.7709L66.3683 11.7481H68.0063L67.4089 15.4674H69.4323L69.1625 17.1247H67.1391L66.6188 20.3236H68.623L68.3339 21.9617H66.349L65.7323 25.7002H64.075ZM61.7047 20.3236H64.9615L65.4818 17.1247H62.225L61.7047 20.3236ZM70.5192 25.7002V11.7481H72.639V23.8695H78.9406V25.7002H70.5192ZM80.4514 25.7002V15.2361H82.5134V25.7002H80.4514ZM81.492 13.6174C80.779 13.6174 80.1816 13.0778 80.1816 12.4033C80.1816 11.7288 80.779 11.1893 81.492 11.1893C82.1858 11.1893 82.7832 11.7288 82.7832 12.4033C82.7832 13.0778 82.1858 13.6174 81.492 13.6174ZM86.5872 19.495V25.7002H84.5252V15.2361H86.5101V16.9512H86.6258C87.1268 15.8335 88.1482 15.1012 89.7091 15.1012C91.8674 15.1012 93.2742 16.4502 93.2742 19.0518V25.7002H91.2315V19.3023C91.2315 17.7799 90.4028 16.8742 89.0153 16.8742C87.6086 16.8742 86.5872 17.8184 86.5872 19.495ZM99.7955 25.9122C96.7121 25.9122 94.8236 23.7924 94.8236 20.5356C94.8236 17.3174 96.7507 15.1012 99.6606 15.1012C102.05 15.1012 104.305 16.5851 104.305 20.3622V21.0945H96.8663C96.9241 23.0794 98.09 24.2163 99.8147 24.2163C100.99 24.2163 101.742 23.7153 102.089 23.0794H104.17C103.707 24.7752 102.089 25.9122 99.7955 25.9122ZM96.8856 19.5528H102.281C102.281 17.9533 101.26 16.7971 99.6798 16.7971C98.0322 16.7971 96.9626 18.0689 96.8856 19.5528ZM107.916 19.495V25.7002H105.854V15.2361H107.839V16.9512H107.955C108.456 15.8335 109.477 15.1012 111.038 15.1012C113.196 15.1012 114.603 16.4502 114.603 19.0518V25.7002H112.56V19.3023C112.56 17.7799 111.732 16.8742 110.344 16.8742C108.938 16.8742 107.916 17.8184 107.916 19.495Z" fill="url(#paint12_linear_10781_47098)" fill-opacity="0.8"/>
<rect x="132.467" width="97.7333" height="37.4" rx="6.16667" fill="#212224"/>
<path d="M148.808 25.7002L149.425 21.9617H146.168L145.552 25.7002H143.894L144.511 21.9617H142.507L142.757 20.3236H144.781L145.301 17.1247H143.316L143.567 15.4674H145.59L146.188 11.7481H147.845L147.247 15.4674H150.504L151.102 11.7481H152.74L152.142 15.4674H154.166L153.896 17.1247H151.872L151.352 20.3236H153.356L153.067 21.9617H151.082L150.466 25.7002H148.808ZM146.438 20.3236H149.695L150.215 17.1247H146.958L146.438 20.3236ZM155.253 25.7002V11.7481H157.372V23.8695H163.674V25.7002H155.253ZM169.694 25.9122C166.611 25.9122 164.722 23.7924 164.722 20.5356C164.722 17.3174 166.649 15.1012 169.559 15.1012C171.949 15.1012 174.203 16.5851 174.203 20.3622V21.0945H166.765C166.823 23.0794 167.989 24.2163 169.713 24.2163C170.889 24.2163 171.64 23.7153 171.987 23.0794H174.069C173.606 24.7752 171.987 25.9122 169.694 25.9122ZM166.784 19.5528H172.18C172.18 17.9533 171.159 16.7971 169.578 16.7971C167.931 16.7971 166.861 18.0689 166.784 19.5528ZM175.271 22.7518C175.271 20.3622 177.295 19.7455 179.183 19.6106C179.877 19.5624 181.447 19.4757 181.939 19.4564L181.92 18.6278C181.92 17.4523 181.206 16.7585 179.8 16.7585C178.586 16.7585 177.853 17.3174 177.641 18.0882H175.599C175.791 16.3538 177.41 15.1012 179.877 15.1012C181.534 15.1012 183.981 15.7179 183.981 18.7434V25.7002H181.977V24.2742H181.9C181.496 25.0643 180.532 25.9314 178.798 25.9314C176.813 25.9314 175.271 24.7945 175.271 22.7518ZM177.275 22.771C177.275 23.7731 178.104 24.2934 179.26 24.2934C180.937 24.2934 181.939 23.1757 181.939 21.9231V20.9596L179.472 21.133C178.123 21.2294 177.275 21.7304 177.275 22.771ZM190.869 15.2361V16.8742H188.73V22.6169C188.73 23.7924 189.327 24.0044 189.982 24.0236C190.272 24.0236 190.734 23.9851 191.023 23.9658V25.758C190.734 25.7965 190.291 25.8351 189.732 25.8351C188.113 25.8351 186.668 24.9486 186.687 23.0408V16.8742H185.145V15.2361H186.687V12.7309H188.73V15.2361H190.869ZM194.673 19.495V25.7002H192.611V11.7481H194.634V16.9512H194.769C195.27 15.8143 196.234 15.1012 197.872 15.1012C200.03 15.1012 201.456 16.4309 201.456 19.0518V25.7002H199.394V19.3023C199.394 17.7606 198.566 16.8742 197.178 16.8742C195.733 16.8742 194.673 17.8184 194.673 19.495ZM207.958 25.9122C204.875 25.9122 202.986 23.7924 202.986 20.5356C202.986 17.3174 204.913 15.1012 207.823 15.1012C210.213 15.1012 212.468 16.5851 212.468 20.3622V21.0945H205.029C205.087 23.0794 206.253 24.2163 207.978 24.2163C209.153 24.2163 209.905 23.7153 210.252 23.0794H212.333C211.87 24.7752 210.252 25.9122 207.958 25.9122ZM205.048 19.5528H210.444C210.444 17.9533 209.423 16.7971 207.843 16.7971C206.195 16.7971 205.125 18.0689 205.048 19.5528ZM214.017 25.7002V15.2361H216.002V16.8934H216.118C216.503 15.7757 217.544 15.082 218.777 15.082C219.027 15.082 219.432 15.1012 219.644 15.1205V17.0861C219.471 17.0476 218.989 16.9705 218.565 16.9705C217.139 16.9705 216.079 17.9533 216.079 19.3215V25.7002H214.017Z" fill="url(#paint13_linear_10781_47098)" fill-opacity="0.8"/>
<rect x="236.2" width="90.7333" height="37.4" rx="6.16667" fill="#212224"/>
<path d="M252.542 25.7002L253.158 21.9617H249.902L249.285 25.7002H247.628L248.244 21.9617H246.24L246.491 20.3236H248.514L249.034 17.1247H247.05L247.3 15.4674H249.323L249.921 11.7481H251.578L250.981 15.4674H254.238L254.835 11.7481H256.473L255.876 15.4674H257.899L257.629 17.1247H255.606L255.085 20.3236H257.09L256.801 21.9617H254.816L254.199 25.7002H252.542ZM250.171 20.3236H253.428L253.948 17.1247H250.692L250.171 20.3236ZM268.429 16.296C268.082 14.5038 266.598 13.5018 264.825 13.5018C262.416 13.5018 260.624 15.3518 260.624 18.7242C260.624 22.1158 262.435 23.9465 264.825 23.9465C266.579 23.9465 268.062 22.9637 268.429 21.1908L270.568 21.2101C270.124 23.9658 267.87 25.8929 264.806 25.8929C261.163 25.8929 258.523 23.1757 258.523 18.7242C258.523 14.2533 261.183 11.5554 264.806 11.5554C267.754 11.5554 270.086 13.2898 270.568 16.296H268.429ZM276.626 25.9122C273.659 25.9122 271.732 23.7538 271.732 20.5163C271.732 17.2596 273.659 15.1012 276.626 15.1012C279.575 15.1012 281.502 17.2596 281.502 20.5163C281.502 23.7538 279.575 25.9122 276.626 25.9122ZM276.626 24.1971C278.515 24.1971 279.421 22.5205 279.421 20.5163C279.421 18.5122 278.515 16.7971 276.626 16.7971C274.699 16.7971 273.794 18.5122 273.794 20.5163C273.794 22.5205 274.699 24.1971 276.626 24.1971ZM287.927 15.2361V16.8742H285.788V22.6169C285.788 23.7924 286.385 24.0044 287.04 24.0236C287.329 24.0236 287.792 23.9851 288.081 23.9658V25.758C287.792 25.7965 287.349 25.8351 286.79 25.8351C285.171 25.8351 283.726 24.9486 283.745 23.0408V16.8742H282.203V15.2361H283.745V12.7309H285.788V15.2361H287.927ZM294.332 15.2361V16.8742H292.193V22.6169C292.193 23.7924 292.791 24.0044 293.446 24.0236C293.735 24.0236 294.198 23.9851 294.487 23.9658V25.758C294.198 25.7965 293.754 25.8351 293.195 25.8351C291.577 25.8351 290.131 24.9486 290.151 23.0408V16.8742H288.609V15.2361H290.151V12.7309H292.193V15.2361H294.332ZM300.16 25.9122C297.192 25.9122 295.265 23.7538 295.265 20.5163C295.265 17.2596 297.192 15.1012 300.16 15.1012C303.108 15.1012 305.035 17.2596 305.035 20.5163C305.035 23.7538 303.108 25.9122 300.16 25.9122ZM300.16 24.1971C302.048 24.1971 302.954 22.5205 302.954 20.5163C302.954 18.5122 302.048 16.7971 300.16 16.7971C298.233 16.7971 297.327 18.5122 297.327 20.5163C297.327 22.5205 298.233 24.1971 300.16 24.1971ZM308.628 19.495V25.7002H306.566V15.2361H308.55V16.9512H308.666C309.167 15.8335 310.188 15.1012 311.749 15.1012C313.908 15.1012 315.315 16.4502 315.315 19.0518V25.7002H313.272V19.3023C313.272 17.7799 312.443 16.8742 311.056 16.8742C309.649 16.8742 308.628 17.8184 308.628 19.495Z" fill="url(#paint14_linear_10781_47098)" fill-opacity="0.8"/>
<rect x="332.933" width="86.7333" height="37.4" rx="6.16667" fill="#212224"/>
<path d="M349.275 25.7002L349.892 21.9617H346.635L346.018 25.7002H344.361L344.978 21.9617H342.973L343.224 20.3236H345.247L345.768 17.1247H343.783L344.033 15.4674H346.057L346.654 11.7481H348.312L347.714 15.4674H350.971L351.568 11.7481H353.206L352.609 15.4674H354.632L354.363 17.1247H352.339L351.819 20.3236H353.823L353.534 21.9617H351.549L350.932 25.7002H349.275ZM346.905 20.3236H350.162L350.682 17.1247H347.425L346.905 20.3236ZM360.248 25.7002H355.719V11.7481H360.383C364.487 11.7481 366.954 14.3689 366.954 18.7049C366.954 23.0601 364.487 25.7002 360.248 25.7002ZM357.839 23.8502H360.132C363.293 23.8502 364.854 22.0002 364.854 18.7049C364.854 15.4288 363.293 13.5981 360.248 13.5981H357.839V23.8502ZM373.186 25.9122C370.103 25.9122 368.214 23.7924 368.214 20.5356C368.214 17.3174 370.142 15.1012 373.051 15.1012C375.441 15.1012 377.696 16.5851 377.696 20.3622V21.0945H370.257C370.315 23.0794 371.481 24.2163 373.206 24.2163C374.381 24.2163 375.133 23.7153 375.48 23.0794H377.561C377.098 24.7752 375.48 25.9122 373.186 25.9122ZM370.276 19.5528H375.672C375.672 17.9533 374.651 16.7971 373.071 16.7971C371.423 16.7971 370.353 18.0689 370.276 19.5528ZM381.307 19.495V25.7002H379.245V15.2361H381.23V16.9512H381.346C381.847 15.8335 382.868 15.1012 384.429 15.1012C386.587 15.1012 387.994 16.4502 387.994 19.0518V25.7002H385.951V19.3023C385.951 17.7799 385.123 16.8742 383.735 16.8742C382.328 16.8742 381.307 17.8184 381.307 19.495ZM390.006 25.7002V15.2361H392.068V25.7002H390.006ZM391.047 13.6174C390.333 13.6174 389.736 13.0778 389.736 12.4033C389.736 11.7288 390.333 11.1893 391.047 11.1893C391.74 11.1893 392.338 11.7288 392.338 12.4033C392.338 13.0778 391.74 13.6174 391.047 13.6174ZM394.08 25.7002V15.2361H396.065V16.9512H396.18C396.623 15.7757 397.645 15.1012 399.032 15.1012C400.42 15.1012 401.403 15.795 401.846 16.9512H401.962C402.463 15.8143 403.58 15.1012 405.103 15.1012C406.991 15.1012 408.34 16.296 408.34 18.6856V25.7002H406.278V18.8783C406.278 17.4715 405.392 16.8742 404.313 16.8742C402.983 16.8742 402.231 17.7799 402.231 19.0325V25.7002H400.189V18.7627C400.189 17.6257 399.398 16.8742 398.281 16.8742C397.125 16.8742 396.142 17.8377 396.142 19.2445V25.7002H394.08Z" fill="url(#paint15_linear_10781_47098)" fill-opacity="0.8"/>
<rect x="-15.2667" y="159.8" width="67.7333" height="37.4" rx="6.16667" fill="#212224"/>
<path d="M1.07504 185.5L1.6917 181.761H-1.56507L-2.18173 185.5H-3.83903L-3.22236 181.761H-5.22653L-4.97601 180.123H-2.95257L-2.43226 176.924H-4.41715L-4.16663 175.267H-2.14319L-1.5458 171.548H0.111495L-0.485901 175.267H2.77087L3.36827 171.548H5.00629L4.40889 175.267H6.43233L6.16254 176.924H4.1391L3.61879 180.123H5.62295L5.33389 181.761H3.349L2.73233 185.5H1.07504ZM-1.29528 180.123H1.9615L2.48181 176.924H-0.774963L-1.29528 180.123ZM15.1119 175.229C14.977 173.937 13.84 173.186 12.2406 173.186C10.5255 173.186 9.44629 174.053 9.44629 175.248C9.44629 176.578 10.8916 177.079 11.99 177.348L13.339 177.715C15.1312 178.139 17.3473 179.121 17.3666 181.646C17.3473 183.997 15.4781 185.731 12.1827 185.731C9.06087 185.731 7.09525 184.17 6.96035 181.627H9.08014C9.21504 183.149 10.5447 183.881 12.1827 183.881C13.9557 183.881 15.2468 182.976 15.2661 181.607C15.2468 180.393 14.1098 179.892 12.626 179.507L10.9687 179.064C8.73327 178.447 7.3265 177.31 7.3265 175.364C7.3265 172.955 9.48483 171.355 12.2984 171.355C15.1312 171.355 17.1161 172.974 17.1739 175.229H15.1119ZM23.4061 185.712C20.4384 185.712 18.5113 183.554 18.5113 180.316C18.5113 177.059 20.4384 174.901 23.4061 174.901C26.3545 174.901 28.2816 177.059 28.2816 180.316C28.2816 183.554 26.3545 185.712 23.4061 185.712ZM23.4061 183.997C25.2946 183.997 26.2004 182.32 26.2004 180.316C26.2004 178.312 25.2946 176.597 23.4061 176.597C21.479 176.597 20.5733 178.312 20.5733 180.316C20.5733 182.32 21.479 183.997 23.4061 183.997ZM34.8029 175.036V176.674H32.5482V185.5H30.4862V176.674H28.8674V175.036H30.4862V173.822C30.4862 171.953 31.681 170.893 33.6081 170.893C34.1091 170.893 34.6101 170.951 35.0148 171.028V172.743C34.6294 172.685 34.3404 172.666 34.1476 172.666C33.0492 172.666 32.5482 173.109 32.5482 174.13V175.036H34.8029ZM41.0736 175.036V176.674H38.9345V182.417C38.9345 183.592 39.5319 183.804 40.1871 183.823C40.4762 183.823 40.9387 183.785 41.2277 183.766V185.558C40.9387 185.596 40.4955 185.635 39.9366 185.635C38.3178 185.635 36.8725 184.748 36.8918 182.841V176.674H35.3501V175.036H36.8918V172.531H38.9345V175.036H41.0736Z" fill="url(#paint16_linear_10781_47098)" fill-opacity="0.8"/>
<rect x="58.4667" y="159.8" width="75.7333" height="37.4" rx="6.16667" fill="#212224"/>
<path d="M74.8084 185.5L75.425 181.761H72.1683L71.5516 185.5H69.8943L70.511 181.761H68.5068L68.7573 180.123H70.7808L71.3011 176.924H69.3162L69.5667 175.267H71.5805L72.1875 171.548H73.8448L73.2378 175.267H76.4946L77.1016 171.548H78.7396L78.1326 175.267H80.1657L79.8959 176.924H77.8628L77.3425 180.123H79.3563L79.0672 181.761H77.0727L76.4657 185.5H74.8084ZM72.4381 180.123H75.6948L76.2151 176.924H72.9584L72.4381 180.123ZM90.676 175.961C90.1557 174.313 88.8934 173.292 87.0531 173.302C84.702 173.292 82.9002 175.142 82.8906 178.524C82.9002 181.896 84.6828 183.756 87.1494 183.746C89.3752 183.756 90.8494 182.34 90.888 180.104H87.4578V178.351H92.9499V179.931C92.9499 183.467 90.5218 185.693 87.1301 185.693C83.3531 185.693 80.79 182.947 80.79 178.524C80.79 174.072 83.4301 171.355 87.0338 171.355C90.0497 171.355 92.3814 173.234 92.8536 175.961H90.676ZM96.7925 171.548V185.5H94.7306V171.548H96.7925ZM103.237 185.712C100.269 185.712 98.3323 183.554 98.3419 180.316C98.3323 177.059 100.269 174.901 103.237 174.901C106.185 174.901 108.112 177.059 108.112 180.316C108.112 183.554 106.185 185.712 103.237 185.712ZM100.404 180.316C100.404 182.311 101.319 183.997 103.237 183.997C105.125 183.997 106.031 182.311 106.031 180.316C106.031 178.312 105.125 176.607 103.237 176.597C101.319 176.607 100.404 178.312 100.404 180.316ZM111.569 185.5L108.505 175.036H110.625L112.668 182.706H112.783L114.826 175.036H116.946L118.969 182.667H119.085L121.108 175.036H123.228L120.164 185.5H118.064L115.944 177.965H115.79L113.689 185.5H111.569Z" fill="url(#paint17_linear_10781_47098)" fill-opacity="0.8"/>
<rect x="140.2" y="159.8" width="71.7333" height="37.4" rx="6.16667" fill="#212224"/>
<path d="M156.542 185.5L157.158 181.761H153.902L153.285 185.5H151.628L152.244 181.761H150.24L150.491 180.123H152.514L153.034 176.924H151.05L151.3 175.267H153.323L153.921 171.548H155.578L154.981 175.267H158.238L158.835 171.548H160.473L159.876 175.267H161.899L161.629 176.924H159.606L159.085 180.123H161.09L160.801 181.761H158.816L158.199 185.5H156.542ZM154.171 180.123H157.428L157.948 176.924H154.692L154.171 180.123ZM172.429 176.096C172.082 174.304 170.598 173.302 168.825 173.302C166.416 173.302 164.624 175.152 164.624 178.524C164.624 181.916 166.435 183.746 168.825 183.746C170.579 183.746 172.062 182.764 172.429 180.991L174.568 181.01C174.124 183.766 171.87 185.693 168.806 185.693C165.163 185.693 162.523 182.976 162.523 178.524C162.523 174.053 165.183 171.355 168.806 171.355C171.754 171.355 174.086 173.09 174.568 176.096H172.429ZM180.626 185.712C177.659 185.712 175.732 183.554 175.732 180.316C175.732 177.059 177.659 174.901 180.626 174.901C183.575 174.901 185.502 177.059 185.502 180.316C185.502 183.554 183.575 185.712 180.626 185.712ZM180.626 183.997C182.515 183.997 183.421 182.32 183.421 180.316C183.421 178.312 182.515 176.597 180.626 176.597C178.699 176.597 177.794 178.312 177.794 180.316C177.794 182.32 178.699 183.997 180.626 183.997ZM191.464 185.712C188.497 185.712 186.57 183.554 186.57 180.316C186.57 177.059 188.497 174.901 191.464 174.901C194.413 174.901 196.34 177.059 196.34 180.316C196.34 183.554 194.413 185.712 191.464 185.712ZM191.464 183.997C193.353 183.997 194.259 182.32 194.259 180.316C194.259 178.312 193.353 176.597 191.464 176.597C189.537 176.597 188.632 178.312 188.632 180.316C188.632 182.32 189.537 183.997 191.464 183.997ZM199.932 171.548V185.5H197.87V171.548H199.932Z" fill="url(#paint18_linear_10781_47098)" fill-opacity="0.8"/>
<rect x="217.933" y="159.8" width="69.7333" height="37.4" rx="6.16667" fill="#212224"/>
<path d="M234.275 185.5L234.892 181.761H231.635L231.018 185.5H229.361L229.978 181.761H227.973L228.224 180.123H230.247L230.768 176.924H228.783L229.033 175.267H231.057L231.654 171.548H233.312L232.714 175.267H235.971L236.568 171.548H238.206L237.609 175.267H239.632L239.363 176.924H237.339L236.819 180.123H238.823L238.534 181.761H236.549L235.932 185.5H234.275ZM231.905 180.123H235.162L235.682 176.924H232.425L231.905 180.123ZM250.162 176.096C249.815 174.304 248.331 173.302 246.558 173.302C244.149 173.302 242.357 175.152 242.357 178.524C242.357 181.916 244.169 183.746 246.558 183.746C248.312 183.746 249.796 182.764 250.162 180.991L252.301 181.01C251.858 183.766 249.603 185.693 246.539 185.693C242.897 185.693 240.257 182.976 240.257 178.524C240.257 174.053 242.916 171.355 246.539 171.355C249.487 171.355 251.819 173.09 252.301 176.096H250.162ZM255.989 171.548V185.5H253.927V171.548H255.989ZM257.52 182.552C257.52 180.162 259.543 179.545 261.432 179.41C262.125 179.362 263.696 179.276 264.187 179.256L264.168 178.428C264.168 177.252 263.455 176.558 262.048 176.558C260.834 176.558 260.102 177.117 259.89 177.888H257.847C258.04 176.154 259.659 174.901 262.125 174.901C263.783 174.901 266.23 175.518 266.23 178.543V185.5H264.226V184.074H264.149C263.744 184.864 262.78 185.731 261.046 185.731C259.061 185.731 257.52 184.594 257.52 182.552ZM259.524 182.571C259.524 183.573 260.352 184.093 261.509 184.093C263.185 184.093 264.187 182.976 264.187 181.723V180.759L261.721 180.933C260.372 181.029 259.524 181.53 259.524 182.571ZM269.109 189.431C268.685 189.431 268.28 189.412 268.011 189.373V187.658C268.242 187.678 268.647 187.697 268.936 187.697C269.572 187.697 270.111 187.639 270.593 186.329L270.843 185.635L267.008 175.036H269.205L271.845 183.149H271.961L274.601 175.036H276.817L272.501 186.888C271.903 188.545 270.824 189.431 269.109 189.431Z" fill="url(#paint19_linear_10781_47098)" fill-opacity="0.8"/>
<rect x="293.667" y="159.8" width="75.7333" height="37.4" rx="6.16667" fill="#212224"/>
<path d="M310.008 185.5L310.625 181.761H307.368L306.752 185.5H305.094L305.711 181.761H303.707L303.957 180.123H305.981L306.501 176.924H304.516L304.767 175.267H306.79L307.388 171.548H309.045L308.447 175.267H311.704L312.302 171.548H313.94L313.342 175.267H315.366L315.096 176.924H313.072L312.552 180.123H314.556L314.267 181.761H312.282L311.666 185.5H310.008ZM307.638 180.123H310.895L311.415 176.924H308.158L307.638 180.123ZM327.707 171.548V185.5H325.76L318.688 175.306H318.572V185.5H316.453V171.548H318.418L325.491 181.761H325.625V171.548H327.707ZM329.41 182.552C329.41 180.162 331.434 179.545 333.322 179.41C334.016 179.362 335.587 179.276 336.078 179.256L336.059 178.428C336.059 177.252 335.346 176.558 333.939 176.558C332.725 176.558 331.993 177.117 331.781 177.888H329.738C329.931 176.154 331.549 174.901 334.016 174.901C335.673 174.901 338.121 175.518 338.121 178.543V185.5H336.117V184.074H336.039C335.635 184.864 334.671 185.731 332.937 185.731C330.952 185.731 329.41 184.594 329.41 182.552ZM331.414 182.571C331.414 183.573 332.243 184.093 333.399 184.093C335.076 184.093 336.078 182.976 336.078 181.723V180.759L333.611 180.933C332.262 181.029 331.414 181.53 331.414 182.571ZM348.708 175.036L344.912 185.5H342.696L338.899 175.036H341.115L343.755 183.072H343.852L346.492 175.036H348.708ZM351.163 189.431C350.739 189.431 350.335 189.412 350.065 189.373V187.658C350.296 187.678 350.701 187.697 350.99 187.697C351.626 187.697 352.165 187.639 352.647 186.329L352.898 185.635L349.063 175.036H351.26L353.9 183.149H354.015L356.655 175.036H358.872L354.555 186.888C353.957 188.545 352.878 189.431 351.163 189.431Z" fill="url(#paint20_linear_10781_47098)" fill-opacity="0.8"/>
<rect x="-27" y="106.4" width="84.7333" height="37.4" rx="6.16667" fill="#212224"/>
<path d="M-10.6583 132.1L-10.0416 128.362H-13.2984L-13.9151 132.1H-15.5724L-14.9557 128.362H-16.9599L-16.7093 126.724H-14.6859L-14.1656 123.525H-16.1505L-15.9 121.867H-13.8862L-13.2791 118.148H-11.6218L-12.2289 121.867H-8.9721L-8.36507 118.148H-6.72705L-7.33408 121.867H-5.30101L-5.5708 123.525H-7.60387L-8.12419 126.724H-6.11038L-6.39945 128.362H-8.39398L-9.00101 132.1H-10.6583ZM-13.0286 126.724H-9.77184L-9.25153 123.525H-12.5083L-13.0286 126.724ZM-4.38757 136.031V121.636H-2.3834V123.332H-2.20997C-1.84382 122.677 -1.14044 121.501 0.796284 121.501C3.3304 121.501 5.19003 123.486 5.19003 126.897C5.19003 130.269 3.34967 132.302 0.815554 132.312C-1.08262 132.302 -1.83419 131.146 -2.20997 130.462H-2.32559V136.031H-4.38757ZM-2.36413 126.858C-2.36413 129.055 -1.40059 130.549 0.353054 130.558C2.16451 130.549 3.10878 128.959 3.10878 126.858C3.10878 124.796 2.19342 123.245 0.353054 123.255C-1.41986 123.245 -2.36413 124.681 -2.36413 126.858ZM6.25764 129.152C6.248 126.762 8.28108 126.145 10.1696 126.011C10.8634 125.972 12.4339 125.885 12.9157 125.866L12.9061 125.028C12.9157 123.843 12.1834 123.158 10.7863 123.158C9.57222 123.158 8.83993 123.717 8.62795 124.488H6.58524C6.76832 122.754 8.38707 121.501 10.8634 121.501C12.5303 121.501 14.9584 122.108 14.9681 125.143V132.1H12.9639V130.674H12.8868C12.4821 131.455 11.5186 132.331 9.7842 132.331C7.7993 132.331 6.248 131.194 6.25764 129.152ZM8.2618 129.171C8.2618 130.173 9.09045 130.684 10.2467 130.693C11.9233 130.684 12.9253 129.566 12.9253 128.323L12.9157 127.369C12.4436 127.398 10.9501 127.504 10.4587 127.533C9.10972 127.629 8.2618 128.14 8.2618 129.171ZM23.6091 127.745V121.636H25.6518V132.1H23.6476V130.289H23.532C23.0502 131.406 21.9807 132.235 20.4101 132.235C18.3867 132.235 16.9607 130.876 16.9607 128.284V121.636H19.0226V128.034C19.0226 129.46 19.8898 130.366 21.1424 130.366C22.289 130.366 23.6091 129.527 23.6091 127.745ZM33.5413 124.488C33.3486 123.659 32.6934 123.12 31.5564 123.12C30.3809 123.12 29.5426 123.727 29.5522 124.527C29.5426 125.143 30.034 125.587 31.1902 125.856L32.8475 126.242C34.7746 126.675 35.7093 127.591 35.7189 129.075C35.7093 130.963 34.1098 132.312 31.4408 132.312C28.9259 132.312 27.4421 131.194 27.1819 129.248H29.2824C29.4655 130.192 30.1785 130.664 31.4215 130.655C32.7512 130.664 33.6087 130.106 33.6184 129.229C33.6087 128.554 33.1077 128.121 31.9996 127.861L30.3616 127.514C28.4731 127.099 27.4902 126.088 27.4902 124.642C27.4902 122.783 29.109 121.501 31.5371 121.501C33.8689 121.501 35.3238 122.686 35.5262 124.488H33.5413ZM41.7391 132.312C38.6558 132.312 36.7576 130.183 36.7672 126.936C36.7576 123.717 38.6847 121.501 41.6042 121.501C43.9841 121.501 46.2485 122.975 46.2485 126.762V127.494H38.8099C38.8677 129.489 40.0433 130.616 41.7584 130.616C42.9243 130.616 43.6854 130.115 44.0323 129.479H46.1136C45.6511 131.175 44.042 132.312 41.7391 132.312ZM38.8196 125.953H44.225C44.225 124.363 43.194 123.187 41.6235 123.197C39.9758 123.187 38.9063 124.478 38.8196 125.953Z" fill="url(#paint21_linear_10781_47098)" fill-opacity="0.8"/>
<rect x="63.7333" y="106.4" width="87.7333" height="37.4" rx="6.16667" fill="#212224"/>
<path d="M80.075 132.1L80.6917 128.362H77.4349L76.8183 132.1H75.161L75.7776 128.362H73.7735L74.024 126.724H76.0474L76.5677 123.525H74.5828L74.8334 121.867H76.8472L77.4542 118.148H79.1115L78.5045 121.867H81.7612L82.3683 118.148H84.0063L83.3993 121.867H85.4323L85.1625 123.525H83.1295L82.6092 126.724H84.623L84.3339 128.362H82.3394L81.7323 132.1H80.075ZM77.7047 126.724H80.9615L81.4818 123.525H78.225L77.7047 126.724ZM86.5192 132.1V118.148H91.4911C94.7382 118.148 96.3281 119.95 96.3281 122.522C96.3281 124.401 95.4801 125.818 93.7843 126.463L96.8676 132.1H94.4588L91.626 126.839H91.4911H88.639V132.1H86.5192ZM88.639 125.008H91.2791C93.3314 124.999 94.189 124.093 94.189 122.522C94.189 120.952 93.3314 119.969 91.2791 119.959H88.639V125.008ZM102.31 132.312C99.342 132.312 97.4053 130.154 97.4149 126.916C97.4053 123.659 99.342 121.501 102.31 121.501C105.258 121.501 107.185 123.659 107.185 126.916C107.185 130.154 105.258 132.312 102.31 132.312ZM99.4769 126.916C99.4769 128.911 100.392 130.597 102.31 130.597C104.198 130.597 105.104 128.911 105.104 126.916C105.104 124.912 104.198 123.207 102.31 123.197C100.392 123.207 99.4769 124.912 99.4769 126.916ZM115.364 127.745V121.636H117.406V132.1H115.402V130.289H115.287C114.805 131.406 113.735 132.235 112.165 132.235C110.141 132.235 108.715 130.876 108.715 128.284V121.636H110.777V128.034C110.777 129.46 111.645 130.366 112.897 130.366C114.044 130.366 115.364 129.527 115.364 127.745ZM123.812 136.243C121.172 136.243 119.428 135.077 119.245 133.121H121.345C121.548 134.114 122.473 134.596 123.831 134.586C125.469 134.596 126.5 133.883 126.51 132.254V130.192H126.375C126.009 130.867 125.257 131.946 123.33 131.946C120.864 131.946 118.956 130.106 118.956 126.762C118.956 123.419 120.835 121.501 123.35 121.501C125.296 121.501 126.009 122.677 126.394 123.332H126.529V121.636H128.533V132.331C128.543 135.02 126.51 136.243 123.812 136.243ZM121.056 126.801C121.047 128.853 121.991 130.24 123.793 130.25C125.546 130.24 126.529 128.959 126.529 126.801C126.529 124.681 125.566 123.245 123.793 123.255C121.972 123.245 121.047 124.796 121.056 126.801ZM132.607 125.895V132.1H130.545V118.148H132.569V123.351H132.704C133.195 122.214 134.178 121.501 135.806 121.501C137.955 121.501 139.391 122.831 139.391 125.452V132.1H137.329V125.702C137.329 124.161 136.5 123.274 135.113 123.274C133.658 123.274 132.607 124.228 132.607 125.895Z" fill="url(#paint22_linear_10781_47098)" fill-opacity="0.8"/>
<rect x="157.467" y="106.4" width="67.7333" height="37.4" rx="6.16667" fill="#212224"/>
<path d="M173.808 132.1L174.425 128.362H171.168L170.552 132.1H168.894L169.511 128.362H167.507L167.757 126.724H169.781L170.301 123.525H168.316L168.567 121.867H170.59L171.188 118.148H172.845L172.247 121.867H175.504L176.102 118.148H177.74L177.142 121.867H179.166L178.896 123.525H176.872L176.352 126.724H178.356L178.067 128.362H176.082L175.466 132.1H173.808ZM171.438 126.724H174.695L175.215 123.525H171.958L171.438 126.724ZM187.845 121.829C187.71 120.538 186.573 119.786 184.974 119.786C183.259 119.786 182.18 120.653 182.18 121.848C182.18 123.178 183.625 123.679 184.723 123.949L186.072 124.315C187.865 124.739 190.081 125.721 190.1 128.246C190.081 130.597 188.211 132.331 184.916 132.331C181.794 132.331 179.829 130.77 179.694 128.227H181.813C181.948 129.749 183.278 130.481 184.916 130.481C186.689 130.481 187.98 129.576 187.999 128.207C187.98 126.993 186.843 126.492 185.359 126.107L183.702 125.664C181.467 125.047 180.06 123.91 180.06 121.964C180.06 119.555 182.218 117.955 185.032 117.955C187.865 117.955 189.849 119.574 189.907 121.829H187.845ZM196.139 132.312C193.172 132.312 191.245 130.154 191.245 126.916C191.245 123.659 193.172 121.501 196.139 121.501C199.088 121.501 201.015 123.659 201.015 126.916C201.015 130.154 199.088 132.312 196.139 132.312ZM196.139 130.597C198.028 130.597 198.934 128.92 198.934 126.916C198.934 124.912 198.028 123.197 196.139 123.197C194.212 123.197 193.307 124.912 193.307 126.916C193.307 128.92 194.212 130.597 196.139 130.597ZM207.536 121.636V123.274H205.282V132.1H203.22V123.274H201.601V121.636H203.22V120.422C203.22 118.553 204.414 117.493 206.341 117.493C206.842 117.493 207.343 117.551 207.748 117.628V119.343C207.363 119.285 207.074 119.266 206.881 119.266C205.783 119.266 205.282 119.709 205.282 120.73V121.636H207.536ZM213.807 121.636V123.274H211.668V129.017C211.668 130.192 212.265 130.404 212.92 130.424C213.21 130.424 213.672 130.385 213.961 130.366V132.158C213.672 132.196 213.229 132.235 212.67 132.235C211.051 132.235 209.606 131.349 209.625 129.441V123.274H208.083V121.636H209.625V119.131H211.668V121.636H213.807Z" fill="url(#paint23_linear_10781_47098)" fill-opacity="0.8"/>
<rect x="231.2" y="106.4" width="68.7333" height="37.4" rx="6.16667" fill="#212224"/>
<path d="M247.542 132.1L248.158 128.362H244.902L244.285 132.1H242.628L243.244 128.362H241.24L241.491 126.724H243.514L244.034 123.525H242.05L242.3 121.867H244.323L244.921 118.148H246.578L245.981 121.867H249.238L249.835 118.148H251.473L250.876 121.867H252.899L252.629 123.525H250.606L250.085 126.724H252.09L251.801 128.362H249.816L249.199 132.1H247.542ZM245.171 126.724H248.428L248.948 123.525H245.692L245.171 126.724ZM253.986 132.1V118.148H258.958C262.195 118.148 263.795 119.959 263.795 122.522C263.795 124.401 262.947 125.827 261.251 126.454L264.334 132.1H261.925L259.093 126.839H258.958H256.106V132.1H253.986ZM256.106 125.008H258.746C260.808 125.008 261.656 124.103 261.656 122.522C261.656 120.942 260.808 119.959 258.746 119.959H256.106V125.008ZM264.997 129.152C264.997 126.762 267.021 126.145 268.909 126.011C269.603 125.962 271.174 125.876 271.665 125.856L271.646 125.028C271.646 123.852 270.933 123.158 269.526 123.158C268.312 123.158 267.58 123.717 267.368 124.488H265.325C265.518 122.754 267.136 121.501 269.603 121.501C271.26 121.501 273.708 122.118 273.708 125.143V132.1H271.703V130.674H271.626C271.222 131.464 270.258 132.331 268.524 132.331C266.539 132.331 264.997 131.194 264.997 129.152ZM267.001 129.171C267.001 130.173 267.83 130.693 268.986 130.693C270.663 130.693 271.665 129.576 271.665 128.323V127.359L269.198 127.533C267.849 127.629 267.001 128.13 267.001 129.171ZM277.955 132.1L274.891 121.636H277.011L279.053 129.306H279.169L281.212 121.636H283.332L285.355 129.267H285.471L287.494 121.636H289.614L286.55 132.1H284.449L282.329 124.565H282.175L280.075 132.1H277.955Z" fill="url(#paint24_linear_10781_47098)" fill-opacity="0.8"/>
<rect x="305.933" y="106.4" width="71.7333" height="37.4" rx="6.16667" fill="#212224"/>
<path d="M322.275 132.1L322.892 128.362H319.635L319.018 132.1H317.361L317.978 128.362H315.973L316.224 126.724H318.247L318.768 123.525H316.783L317.033 121.867H319.057L319.654 118.148H321.312L320.714 121.867H323.971L324.568 118.148H326.206L325.609 121.867H327.632L327.363 123.525H325.339L324.819 126.724H326.823L326.534 128.362H324.549L323.932 132.1H322.275ZM319.905 126.724H323.162L323.682 123.525H320.425L319.905 126.724ZM338.162 122.696C337.815 120.904 336.331 119.902 334.558 119.902C332.149 119.902 330.357 121.752 330.357 125.124C330.357 128.516 332.169 130.346 334.558 130.346C336.312 130.346 337.796 129.364 338.162 127.591L340.301 127.61C339.858 130.366 337.603 132.293 334.539 132.293C330.897 132.293 328.257 129.576 328.257 125.124C328.257 120.653 330.916 117.955 334.539 117.955C337.487 117.955 339.819 119.69 340.301 122.696H338.162ZM346.36 132.312C343.392 132.312 341.465 130.154 341.465 126.916C341.465 123.659 343.392 121.501 346.36 121.501C349.308 121.501 351.235 123.659 351.235 126.916C351.235 130.154 349.308 132.312 346.36 132.312ZM346.36 130.597C348.248 130.597 349.154 128.92 349.154 126.916C349.154 124.912 348.248 123.197 346.36 123.197C344.433 123.197 343.527 124.912 343.527 126.916C343.527 128.92 344.433 130.597 346.36 130.597ZM354.827 118.148V132.1H352.765V118.148H354.827ZM360.751 132.312C358.227 132.312 356.377 130.269 356.377 126.897C356.377 123.486 358.246 121.501 360.77 121.501C362.717 121.501 363.43 122.677 363.796 123.332H363.892V118.148H365.954V132.1H363.95V130.462H363.796C363.411 131.156 362.659 132.312 360.751 132.312ZM361.214 130.558C362.967 130.558 363.95 129.055 363.95 126.858C363.95 124.681 362.987 123.255 361.214 123.255C359.383 123.255 358.477 124.796 358.477 126.858C358.477 128.959 359.422 130.558 361.214 130.558Z" fill="url(#paint25_linear_10781_47098)" fill-opacity="0.8"/>
<rect x="383.667" y="106.4" width="100.733" height="37.4" rx="6.16667" fill="#212224"/>
<defs>
<linearGradient id="paint0_linear_10781_47098" x1="-26.3745" y1="216.9" x2="27.7667" y2="216.9" gradientUnits="userSpaceOnUse">
<stop stop-color="#F7F7F7"/>
<stop offset="1" stop-color="#F7F7F7" stop-opacity="0.5"/>
</linearGradient>
<linearGradient id="paint1_linear_10781_47098" x1="69.5294" y1="216.9" x2="108.4" y2="216.9" gradientUnits="userSpaceOnUse">
<stop stop-color="#F7F7F7"/>
<stop offset="1" stop-color="#F7F7F7" stop-opacity="0.5"/>
</linearGradient>
<linearGradient id="paint2_linear_10781_47098" x1="151.975" y1="216.9" x2="192.233" y2="216.9" gradientUnits="userSpaceOnUse">
<stop stop-color="#F7F7F7"/>
<stop offset="1" stop-color="#F7F7F7" stop-opacity="0.5"/>
</linearGradient>
<linearGradient id="paint3_linear_10781_47098" x1="237.843" y1="216.9" x2="282.267" y2="216.9" gradientUnits="userSpaceOnUse">
<stop stop-color="#F7F7F7"/>
<stop offset="1" stop-color="#F7F7F7" stop-opacity="0.5"/>
</linearGradient>
<linearGradient id="paint4_linear_10781_47098" x1="321.171" y1="216.9" x2="353.1" y2="216.9" gradientUnits="userSpaceOnUse">
<stop stop-color="#F7F7F7"/>
<stop offset="1" stop-color="#F7F7F7" stop-opacity="0.5"/>
</linearGradient>
<linearGradient id="paint5_linear_10781_47098" x1="398.242" y1="216.9" x2="440.583" y2="216.9" gradientUnits="userSpaceOnUse">
<stop stop-color="#F7F7F7"/>
<stop offset="1" stop-color="#F7F7F7" stop-opacity="0.5"/>
</linearGradient>
<linearGradient id="paint6_linear_10781_47098" x1="-30.2892" y1="56.7002" x2="16.2167" y2="56.7002" gradientUnits="userSpaceOnUse">
<stop stop-color="#F7F7F7"/>
<stop offset="1" stop-color="#F7F7F7" stop-opacity="0.5"/>
</linearGradient>
<linearGradient id="paint7_linear_10781_47098" x1="68.1383" y1="56.7002" x2="125.75" y2="56.7002" gradientUnits="userSpaceOnUse">
<stop stop-color="#F7F7F7"/>
<stop offset="1" stop-color="#F7F7F7" stop-opacity="0.5"/>
</linearGradient>
<linearGradient id="paint8_linear_10781_47098" x1="168.33" y1="56.7002" x2="209.283" y2="56.7002" gradientUnits="userSpaceOnUse">
<stop stop-color="#F7F7F7"/>
<stop offset="1" stop-color="#F7F7F7" stop-opacity="0.5"/>
</linearGradient>
<linearGradient id="paint9_linear_10781_47098" x1="248.793" y1="56.7002" x2="281.417" y2="56.7002" gradientUnits="userSpaceOnUse">
<stop stop-color="#F7F7F7"/>
<stop offset="1" stop-color="#F7F7F7" stop-opacity="0.5"/>
</linearGradient>
<linearGradient id="paint10_linear_10781_47098" x1="326.153" y1="56.7002" x2="367.8" y2="56.7002" gradientUnits="userSpaceOnUse">
<stop stop-color="#F7F7F7"/>
<stop offset="1" stop-color="#F7F7F7" stop-opacity="0.5"/>
</linearGradient>
<linearGradient id="paint11_linear_10781_47098" x1="-6.13624" y1="3.7002" x2="34.8167" y2="3.7002" gradientUnits="userSpaceOnUse">
<stop stop-color="#F7F7F7"/>
<stop offset="1" stop-color="#F7F7F7" stop-opacity="0.5"/>
</linearGradient>
<linearGradient id="paint12_linear_10781_47098" x1="78.5971" y1="3.7002" x2="119.55" y2="3.7002" gradientUnits="userSpaceOnUse">
<stop stop-color="#F7F7F7"/>
<stop offset="1" stop-color="#F7F7F7" stop-opacity="0.5"/>
</linearGradient>
<linearGradient id="paint13_linear_10781_47098" x1="170.092" y1="3.7002" x2="224.233" y2="3.7002" gradientUnits="userSpaceOnUse">
<stop stop-color="#F7F7F7"/>
<stop offset="1" stop-color="#F7F7F7" stop-opacity="0.5"/>
</linearGradient>
<linearGradient id="paint14_linear_10781_47098" x1="271.334" y1="3.7002" x2="320.617" y2="3.7002" gradientUnits="userSpaceOnUse">
<stop stop-color="#F7F7F7"/>
<stop offset="1" stop-color="#F7F7F7" stop-opacity="0.5"/>
</linearGradient>
<linearGradient id="paint15_linear_10781_47098" x1="366.644" y1="3.7002" x2="413.15" y2="3.7002" gradientUnits="userSpaceOnUse">
<stop stop-color="#F7F7F7"/>
<stop offset="1" stop-color="#F7F7F7" stop-opacity="0.5"/>
</linearGradient>
<linearGradient id="paint16_linear_10781_47098" x1="11.6824" y1="163.5" x2="45" y2="163.5" gradientUnits="userSpaceOnUse">
<stop stop-color="#F7F7F7"/>
<stop offset="1" stop-color="#F7F7F7" stop-opacity="0.5"/>
</linearGradient>
<linearGradient id="paint17_linear_10781_47098" x1="88.2628" y1="163.5" x2="127.133" y2="163.5" gradientUnits="userSpaceOnUse">
<stop stop-color="#F7F7F7"/>
<stop offset="1" stop-color="#F7F7F7" stop-opacity="0.5"/>
</linearGradient>
<linearGradient id="paint18_linear_10781_47098" x1="168.573" y1="163.5" x2="204.667" y2="163.5" gradientUnits="userSpaceOnUse">
<stop stop-color="#F7F7F7"/>
<stop offset="1" stop-color="#F7F7F7" stop-opacity="0.5"/>
</linearGradient>
<linearGradient id="paint19_linear_10781_47098" x1="245.594" y1="163.5" x2="280.3" y2="163.5" gradientUnits="userSpaceOnUse">
<stop stop-color="#F7F7F7"/>
<stop offset="1" stop-color="#F7F7F7" stop-opacity="0.5"/>
</linearGradient>
<linearGradient id="paint20_linear_10781_47098" x1="323.463" y1="163.5" x2="362.333" y2="163.5" gradientUnits="userSpaceOnUse">
<stop stop-color="#F7F7F7"/>
<stop offset="1" stop-color="#F7F7F7" stop-opacity="0.5"/>
</linearGradient>
<linearGradient id="paint21_linear_10781_47098" x1="5.99905" y1="110.1" x2="51.1167" y2="110.1" gradientUnits="userSpaceOnUse">
<stop stop-color="#F7F7F7"/>
<stop offset="1" stop-color="#F7F7F7" stop-opacity="0.5"/>
</linearGradient>
<linearGradient id="paint22_linear_10781_47098" x1="97.8" y1="110.1" x2="145" y2="110.1" gradientUnits="userSpaceOnUse">
<stop stop-color="#F7F7F7"/>
<stop offset="1" stop-color="#F7F7F7" stop-opacity="0.5"/>
</linearGradient>
<linearGradient id="paint23_linear_10781_47098" x1="184.416" y1="110.1" x2="217.733" y2="110.1" gradientUnits="userSpaceOnUse">
<stop stop-color="#F7F7F7"/>
<stop offset="1" stop-color="#F7F7F7" stop-opacity="0.5"/>
</linearGradient>
<linearGradient id="paint24_linear_10781_47098" x1="258.505" y1="110.1" x2="292.517" y2="110.1" gradientUnits="userSpaceOnUse">
<stop stop-color="#F7F7F7"/>
<stop offset="1" stop-color="#F7F7F7" stop-opacity="0.5"/>
</linearGradient>
<linearGradient id="paint25_linear_10781_47098" x1="334.306" y1="110.1" x2="370.4" y2="110.1" gradientUnits="userSpaceOnUse">
<stop stop-color="#F7F7F7"/>
<stop offset="1" stop-color="#F7F7F7" stop-opacity="0.5"/>
</linearGradient>
</defs>
</svg>
