<svg width="110" height="15" viewBox="0 0 110 15" fill="none" xmlns="http://www.w3.org/2000/svg">
<path d="M8.26172 4.29297C8.125 2.98438 6.97266 2.22266 5.35156 2.22266C3.61328 2.22266 2.51953 3.10156 2.51953 4.3125C2.51953 5.66016 3.98438 6.16797 5.09766 6.44141L6.46484 6.8125C8.28125 7.24219 10.5273 8.23828 10.5469 10.7969C10.5273 13.1797 8.63281 14.9375 5.29297 14.9375C2.12891 14.9375 0.136719 13.3555 0 10.7773H2.14844C2.28516 12.3203 3.63281 13.0625 5.29297 13.0625C7.08984 13.0625 8.39844 12.1445 8.41797 10.7578C8.39844 9.52734 7.24609 9.01953 5.74219 8.62891L4.0625 8.17969C1.79688 7.55469 0.371094 6.40234 0.371094 4.42969C0.371094 1.98828 2.55859 0.367188 5.41016 0.367188C8.28125 0.367188 10.293 2.00781 10.3516 4.29297H8.26172ZM17.6367 4.09766V5.75781H15.4688V11.5781C15.4688 12.7695 16.0742 12.9844 16.7383 13.0039C17.0312 13.0039 17.5 12.9648 17.793 12.9453V14.7617C17.5 14.8008 17.0508 14.8398 16.4844 14.8398C14.8438 14.8398 13.3789 13.9414 13.3984 12.0078V5.75781H11.8359V4.09766H13.3984V1.55859H15.4688V4.09766H17.6367ZM19.1797 11.7148C19.1797 9.29297 21.2305 8.66797 23.1445 8.53125C23.8477 8.48242 25.4395 8.39453 25.9375 8.375L25.918 7.53516C25.918 6.34375 25.1953 5.64062 23.7695 5.64062C22.5391 5.64062 21.7969 6.20703 21.582 6.98828H19.5117C19.707 5.23047 21.3477 3.96094 23.8477 3.96094C25.5273 3.96094 28.0078 4.58594 28.0078 7.65234V14.7031H25.9766V13.2578H25.8984C25.4883 14.0586 24.5117 14.9375 22.7539 14.9375C20.7422 14.9375 19.1797 13.7852 19.1797 11.7148ZM21.2109 11.7344C21.2109 12.75 22.0508 13.2773 23.2227 13.2773C24.9219 13.2773 25.9375 12.1445 25.9375 10.875V9.89844L23.4375 10.0742C22.0703 10.1719 21.2109 10.6797 21.2109 11.7344ZM30.5273 14.7031V4.09766H32.5391V5.77734H32.6562C33.0469 4.64453 34.1016 3.94141 35.3516 3.94141C35.6055 3.94141 36.0156 3.96094 36.2305 3.98047V5.97266C36.0547 5.93359 35.5664 5.85547 35.1367 5.85547C33.6914 5.85547 32.6172 6.85156 32.6172 8.23828V14.7031H30.5273ZM43.3789 4.09766V5.75781H41.2109V11.5781C41.2109 12.7695 41.8164 12.9844 42.4805 13.0039C42.7734 13.0039 43.2422 12.9648 43.5352 12.9453V14.7617C43.2422 14.8008 42.793 14.8398 42.2266 14.8398C40.5859 14.8398 39.1211 13.9414 39.1406 12.0078V5.75781H37.5781V4.09766H39.1406V1.55859H41.2109V4.09766H43.3789ZM52.3828 8.41406V14.7031H50.293V4.09766H52.3047V5.83594H52.4219C52.9297 4.70312 53.9648 3.96094 55.5469 3.96094C57.7344 3.96094 59.1602 5.32812 59.1602 7.96484V14.7031H57.0898V8.21875C57.0898 6.67578 56.25 5.75781 54.8438 5.75781C53.418 5.75781 52.3828 6.71484 52.3828 8.41406ZM68.4375 10.2891V4.09766H70.5078V14.7031H68.4766V12.8672H68.3594C67.8711 14 66.7773 14.8398 65.1953 14.8398C63.1445 14.8398 61.6992 13.4727 61.6992 10.8359V4.09766H63.7891V10.582C63.7891 12.0273 64.668 12.9453 65.9375 12.9453C67.0898 12.9453 68.4375 12.1055 68.4375 10.2891ZM82.1484 4.09766L78.3008 14.7031H76.0547L72.207 4.09766H74.4531L77.1289 12.2422H77.2266L79.9023 4.09766H82.1484ZM83.8477 14.7031V4.09766H85.9375V14.7031H83.8477ZM84.9023 2.45703C84.1797 2.45703 83.5742 1.91016 83.5742 1.22656C83.5742 0.542969 84.1797 -0.00390625 84.9023 -0.00390625C85.6055 -0.00390625 86.2109 0.542969 86.2109 1.22656C86.2109 1.91016 85.6055 2.45703 84.9023 2.45703ZM88.6523 14.7031V0.5625H90.7227V5.81641H90.8398C91.2305 5.15234 91.9336 3.96094 93.8867 3.96094C96.4453 3.96094 98.3594 5.97266 98.3594 9.42969C98.3594 12.8477 96.4844 14.918 93.9062 14.918C91.9727 14.918 91.2305 13.7461 90.8398 13.043H90.6836V14.7031H88.6523ZM90.6836 9.39062C90.6836 11.6172 91.6797 13.1406 93.4375 13.1406C95.2734 13.1406 96.2305 11.5195 96.2305 9.39062C96.2305 7.30078 95.293 5.73828 93.4375 5.73828C91.6602 5.73828 90.6836 7.18359 90.6836 9.39062ZM105 14.918C101.875 14.918 99.9609 12.7695 99.9609 9.46875C99.9609 6.20703 101.914 3.96094 104.863 3.96094C107.285 3.96094 109.57 5.46484 109.57 9.29297V10.0352H102.031C102.09 12.0469 103.271 13.1992 105.02 13.1992C106.211 13.1992 106.973 12.6914 107.324 12.0469H109.434C108.965 13.7656 107.324 14.918 105 14.918ZM102.051 8.47266H107.52C107.52 6.85156 106.484 5.67969 104.883 5.67969C103.213 5.67969 102.129 6.96875 102.051 8.47266Z" fill="url(#paint0_linear_264_5090)"/>
<defs>
<linearGradient id="paint0_linear_264_5090" x1="-1.25391" y1="8.20312" x2="110.746" y2="8.20312" gradientUnits="userSpaceOnUse">
<stop stop-color="#121212"/>
<stop offset="1" stop-color="#121212" stop-opacity="0.5"/>
</linearGradient>
</defs>
</svg>
