<svg width="80" height="122" viewBox="0 0 80 122" fill="none" xmlns="http://www.w3.org/2000/svg">
<g clip-path="url(#clip0_10781_47226)">
<circle cx="40" cy="38" r="30" fill="#121212"/>
<path d="M40 0C60.9868 2.06164e-06 78 17.0132 78 38C78 58.9868 60.9868 76 40 76C19.0132 76 2 58.9868 2 38C2 17.0132 19.0132 0 40 0ZM55.2363 15.2822C46.7961 6.84202 33.1121 6.84202 24.6719 15.2822L17.2822 22.6709C8.84212 31.111 8.84231 44.7951 17.2822 53.2354L24.6719 60.625C33.1121 69.0651 46.7961 69.0652 55.2363 60.625L62.626 53.2363C71.0662 44.7961 71.0661 31.1111 62.626 22.6709L55.2363 15.2822Z" fill="#FAFAFA"/>
</g>
<path d="M11.1235 91.9083L16.7014 108.254H16.9234L22.5014 91.9083H25.8037L18.5607 112H15.0364L7.82113 91.9083H11.1235ZM27.2545 112V96.9312H30.2239V112H27.2545ZM28.7531 94.6002C27.7263 94.6002 26.866 93.8231 26.866 92.8519C26.866 91.8806 27.7263 91.1035 28.7531 91.1035C29.7521 91.1035 30.6124 91.8806 30.6124 92.8519C30.6124 93.8231 29.7521 94.6002 28.7531 94.6002ZM33.2288 112V91.9083H36.1704V99.3733H36.3369C36.8919 98.4298 37.8909 96.737 40.666 96.737C44.3014 96.737 47.021 99.5953 47.021 104.507C47.021 109.364 44.3569 112.305 40.6938 112.305C37.9464 112.305 36.8919 110.64 36.3369 109.641H36.1149V112H33.2288ZM36.1149 104.452C36.1149 107.615 37.5302 109.78 40.0277 109.78C42.6363 109.78 43.9961 107.477 43.9961 104.452C43.9961 101.482 42.6641 99.2623 40.0277 99.2623C37.5024 99.2623 36.1149 101.316 36.1149 104.452ZM55.6038 112.305C51.1636 112.305 48.4441 109.253 48.4441 104.563C48.4441 99.9283 51.2191 96.737 55.4095 96.737C58.8507 96.737 62.0975 98.8738 62.0975 104.313V105.368H51.3857C51.4689 108.226 53.1478 109.863 55.6315 109.863C57.3244 109.863 58.4066 109.142 58.9062 108.226H61.9033C61.2372 110.668 58.9062 112.305 55.6038 112.305ZM51.4134 103.147H59.1837C59.1837 100.844 57.7129 99.1791 55.4373 99.1791C53.0646 99.1791 51.5244 101.011 51.4134 103.147ZM64.1866 112V96.9312H67.045V99.3178H67.2115C67.7665 97.7083 69.265 96.7092 71.0411 96.7092C71.4018 96.7092 71.9846 96.737 72.2899 96.7647V99.5953C72.0401 99.5398 71.3463 99.4288 70.7358 99.4288C68.6823 99.4288 67.156 100.844 67.156 102.814V112H64.1866Z" fill="#FAFAFA"/>
<defs>
<clipPath id="clip0_10781_47226">
<rect width="76" height="76" fill="white" transform="translate(2)"/>
</clipPath>
</defs>
</svg>
