<svg width="393" height="247" viewBox="0 0 393 247" fill="none" xmlns="http://www.w3.org/2000/svg">
<rect x="-7.94922" width="108.052" height="37.2598" rx="6.70074" fill="#36383E"/>
<path d="M8.1139 26.6328L8.78397 22.5705H5.24515L4.57507 26.6328H2.77425L3.44432 22.5705H1.26658L1.5388 20.7906H3.73748L4.30286 17.3146H2.14606L2.41827 15.5138H4.61695L5.26609 11.4724H7.06691L6.41778 15.5138H9.9566L10.6057 11.4724H12.3856L11.7365 15.5138H13.9352L13.642 17.3146H11.4433L10.878 20.7906H13.0557L12.7416 22.5705H10.5848L9.91472 26.6328H8.1139ZM5.5383 20.7906H9.07713L9.64251 17.3146H6.10368L5.5383 20.7906ZM15.009 11.4724H17.8149L22.6101 23.2196H22.7986L27.5938 11.4724H30.3997V26.6328H28.201V15.6813H28.0545L23.6152 26.6119H21.7935L17.3333 15.6604H17.2076V26.6328H15.009V11.4724ZM37.4832 26.8632C34.2585 26.8632 32.1645 24.5179 32.1645 21C32.1645 17.4612 34.2585 15.1159 37.4832 15.1159C40.687 15.1159 42.781 17.4612 42.781 21C42.781 24.5179 40.687 26.8632 37.4832 26.8632ZM37.4832 24.9995C39.5353 24.9995 40.5195 23.1777 40.5195 21C40.5195 18.8223 39.5353 16.9586 37.4832 16.9586C35.3893 16.9586 34.4051 18.8223 34.4051 21C34.4051 23.1777 35.3893 24.9995 37.4832 24.9995ZM44.3364 26.6328V15.2625H46.4932V17.0633H46.6189C47.0376 15.8488 48.1684 15.095 49.5085 15.095C49.7808 15.095 50.2205 15.1159 50.4508 15.1369V17.2727C50.2624 17.2308 49.7389 17.1471 49.2782 17.1471C47.7287 17.1471 46.577 18.215 46.577 19.7017V26.6328H44.3364ZM53.7233 19.8902V26.6328H51.4828V15.2625H53.6396V17.1261H53.7652C54.3096 15.9116 55.4194 15.1159 57.1156 15.1159C59.4608 15.1159 60.9894 16.5817 60.9894 19.4086V26.6328H58.7698V19.6808C58.7698 18.0266 57.8694 17.0424 56.3617 17.0424C54.8331 17.0424 53.7233 18.0684 53.7233 19.8902ZM63.0683 26.6328V15.2625H65.3089V26.6328H63.0683ZM64.1991 13.5036C63.4243 13.5036 62.7752 12.9172 62.7752 12.1843C62.7752 11.4515 63.4243 10.8651 64.1991 10.8651C64.9529 10.8651 65.602 11.4515 65.602 12.1843C65.602 12.9172 64.9529 13.5036 64.1991 13.5036ZM69.6283 19.8902V26.6328H67.3878V15.2625H69.5446V17.1261H69.6702C70.2147 15.9116 71.3245 15.1159 73.0206 15.1159C75.3659 15.1159 76.8945 16.5817 76.8945 19.4086V26.6328H74.6748V19.6808C74.6748 18.0266 73.7744 17.0424 72.2668 17.0424C70.7382 17.0424 69.6283 18.0684 69.6283 19.8902ZM83.7476 31.1349C80.8789 31.1349 78.9943 29.8575 78.7849 27.7426H81.0673C81.2767 28.8106 82.2819 29.334 83.7686 29.334C85.5485 29.334 86.6792 28.5802 86.6792 26.8003V24.5598H86.5326C86.1348 25.2927 85.3181 26.4653 83.2241 26.4653C80.5439 26.4653 78.4708 24.4551 78.4708 20.8325C78.4708 17.2099 80.502 15.1159 83.2451 15.1159C85.36 15.1159 86.1348 16.3932 86.5536 17.1052H86.7002V15.2625H88.8779V26.8841C88.8779 29.7947 86.6792 31.1349 83.7476 31.1349ZM83.7267 24.6226C85.6322 24.6226 86.7002 23.2196 86.7002 20.8744C86.7002 18.571 85.6532 17.0214 83.7267 17.0214C81.7374 17.0214 80.7533 18.6966 80.7533 20.8744C80.7533 23.094 81.7793 24.6226 83.7267 24.6226Z" fill="url(#paint0_linear_2204_4898)" fill-opacity="0.8"/>
<rect x="106.102" width="108.052" height="37.2598" rx="6.70074" fill="#36383E"/>
<path d="M135.665 26.6328L136.335 22.5705H132.796L132.126 26.6328H130.325L130.995 22.5705H128.817L129.09 20.7906H131.288L131.854 17.3146H129.697L129.969 15.5138H132.168L132.817 11.4724H134.618L133.969 15.5138H137.507L138.157 11.4724H139.936L139.287 15.5138H141.486L141.193 17.3146H138.994L138.429 20.7906H140.606L140.292 22.5705H138.136L137.466 26.6328H135.665ZM133.089 20.7906H136.628L137.193 17.3146H133.654L133.089 20.7906ZM154.789 11.4724V26.6328H152.674L144.989 15.5557H144.863V26.6328H142.56V11.4724H144.696L152.381 22.5705H152.527V11.4724H154.789ZM157.056 26.6328V15.2625H159.297V26.6328H157.056ZM158.187 13.5036C157.412 13.5036 156.763 12.9172 156.763 12.1843C156.763 11.4515 157.412 10.8651 158.187 10.8651C158.941 10.8651 159.59 11.4515 159.59 12.1843C159.59 12.9172 158.941 13.5036 158.187 13.5036ZM166.15 31.1349C163.281 31.1349 161.396 29.8575 161.187 27.7426H163.469C163.679 28.8106 164.684 29.334 166.171 29.334C167.951 29.334 169.081 28.5802 169.081 26.8003V24.5598H168.935C168.537 25.2927 167.72 26.4653 165.626 26.4653C162.946 26.4653 160.873 24.4551 160.873 20.8325C160.873 17.2099 162.904 15.1159 165.647 15.1159C167.762 15.1159 168.537 16.3932 168.956 17.1052H169.102V15.2625H171.28V26.8841C171.28 29.7947 169.081 31.1349 166.15 31.1349ZM166.129 24.6226C168.034 24.6226 169.102 23.2196 169.102 20.8744C169.102 18.571 168.055 17.0214 166.129 17.0214C164.139 17.0214 163.155 18.6966 163.155 20.8744C163.155 23.094 164.181 24.6226 166.129 24.6226ZM175.599 19.8902V26.6328H173.359V11.4724H175.558V17.1261H175.704C176.249 15.8907 177.296 15.1159 179.075 15.1159C181.421 15.1159 182.97 16.5608 182.97 19.4086V26.6328H180.73V19.6808C180.73 18.0056 179.829 17.0424 178.322 17.0424C176.751 17.0424 175.599 18.0684 175.599 19.8902ZM190.347 15.2625V17.0424H188.023V23.2824C188.023 24.5598 188.672 24.7901 189.384 24.811C189.698 24.811 190.2 24.7692 190.514 24.7482V26.6956C190.2 26.7375 189.719 26.7794 189.111 26.7794C187.353 26.7794 185.782 25.8162 185.803 23.7431V17.0424H184.128V15.2625H185.803V12.5403H188.023V15.2625H190.347Z" fill="url(#paint1_linear_2204_4898)" fill-opacity="0.8"/>
<rect x="220.156" width="108.052" height="37.2598" rx="6.70074" fill="#36383E"/>
<path d="M244.719 26.6328L245.389 22.5705H241.851L241.181 26.6328H239.38L240.05 22.5705H237.872L238.144 20.7906H240.343L240.908 17.3146H238.752L239.024 15.5138H241.222L241.872 11.4724H243.672L243.023 15.5138H246.562L247.211 11.4724H248.991L248.342 15.5138H250.541L250.247 17.3146H248.049L247.483 20.7906H249.661L249.347 22.5705H247.19L246.52 26.6328H244.719ZM242.144 20.7906H245.683L246.248 17.3146H242.709L242.144 20.7906ZM259.865 15.4719C259.718 14.0689 258.483 13.2523 256.745 13.2523C254.881 13.2523 253.708 14.1946 253.708 15.4928C253.708 16.9377 255.279 17.4821 256.472 17.7753L257.938 18.1731C259.886 18.6338 262.294 19.7017 262.315 22.4449C262.294 24.9995 260.263 26.8841 256.682 26.8841C253.29 26.8841 251.154 25.188 251.007 22.4239H253.311C253.457 24.0782 254.902 24.8739 256.682 24.8739C258.608 24.8739 260.011 23.8897 260.032 22.403C260.011 21.0838 258.776 20.5393 257.163 20.1205L255.363 19.6389C252.934 18.9688 251.405 17.7334 251.405 15.6185C251.405 13.001 253.75 11.263 256.808 11.263C259.886 11.263 262.042 13.0219 262.105 15.4719H259.865ZM269.273 15.2625V17.0424H266.948V23.2824C266.948 24.5598 267.597 24.7901 268.309 24.811C268.623 24.811 269.126 24.7692 269.44 24.7482V26.6956C269.126 26.7375 268.644 26.7794 268.037 26.7794C266.278 26.7794 264.708 25.8162 264.729 23.7431V17.0424H263.053V15.2625H264.729V12.5403H266.948V15.2625H269.273ZM278.031 21.9004V15.2625H280.251V26.6328H278.073V24.6645H277.947C277.424 25.879 276.251 26.7794 274.555 26.7794C272.357 26.7794 270.807 25.3136 270.807 22.4867V15.2625H273.048V22.2145C273.048 23.7641 273.99 24.7482 275.351 24.7482C276.586 24.7482 278.031 23.8478 278.031 21.9004ZM286.581 26.8632C283.837 26.8632 281.827 24.6435 281.827 20.9791C281.827 17.2727 283.858 15.1159 286.601 15.1159C288.716 15.1159 289.491 16.3932 289.889 17.1052H289.994V11.4724H292.234V26.6328H290.057V24.8529H289.889C289.47 25.6068 288.654 26.8632 286.581 26.8632ZM287.083 24.9576C288.989 24.9576 290.057 23.3243 290.057 20.9372C290.057 18.571 289.01 17.0214 287.083 17.0214C285.094 17.0214 284.11 18.6966 284.11 20.9372C284.11 23.2196 285.136 24.9576 287.083 24.9576ZM294.502 26.6328V15.2625H296.742V26.6328H294.502ZM295.632 13.5036C294.858 13.5036 294.209 12.9172 294.209 12.1843C294.209 11.4515 294.858 10.8651 295.632 10.8651C296.386 10.8651 297.035 11.4515 297.035 12.1843C297.035 12.9172 296.386 13.5036 295.632 13.5036ZM303.637 26.8632C300.413 26.8632 298.319 24.5179 298.319 21C298.319 17.4612 300.413 15.1159 303.637 15.1159C306.841 15.1159 308.935 17.4612 308.935 21C308.935 24.5179 306.841 26.8632 303.637 26.8632ZM303.637 24.9995C305.689 24.9995 306.674 23.1777 306.674 21C306.674 18.8223 305.689 16.9586 303.637 16.9586C301.543 16.9586 300.559 18.8223 300.559 21C300.559 23.1777 301.543 24.9995 303.637 24.9995Z" fill="url(#paint2_linear_2204_4898)" fill-opacity="0.8"/>
<rect x="334.207" width="108.052" height="37.2598" rx="6.70074" fill="#36383E"/>
<path d="M360.77 26.6328L361.44 22.5705H357.901L357.231 26.6328H355.43L356.101 22.5705H353.923L354.195 20.7906H356.394L356.959 17.3146H354.802L355.075 15.5138H357.273L357.922 11.4724H359.723L359.074 15.5138H362.613L363.262 11.4724H365.042L364.393 15.5138H366.591L366.298 17.3146H364.1L363.534 20.7906H365.712L365.398 22.5705H363.241L362.571 26.6328H360.77ZM358.195 20.7906H361.733L362.299 17.3146H358.76L358.195 20.7906ZM366.911 13.4617V11.4724H378.659V13.4617H373.947V26.6328H371.644V13.4617H366.911ZM378.979 26.6328V15.2625H381.135V17.0633H381.261C381.68 15.8488 382.811 15.095 384.151 15.095C384.423 15.095 384.863 15.1159 385.093 15.1369V17.2727C384.905 17.2308 384.381 17.1471 383.92 17.1471C382.371 17.1471 381.219 18.215 381.219 19.7017V26.6328H378.979ZM385.476 23.429C385.476 20.8325 387.674 20.1624 389.727 20.0158C390.48 19.9635 392.187 19.8693 392.721 19.8483L392.7 18.9479C392.7 17.6706 391.925 16.9167 390.397 16.9167C389.077 16.9167 388.282 17.524 388.051 18.3616H385.832C386.041 16.477 387.8 15.1159 390.48 15.1159C392.281 15.1159 394.941 15.786 394.941 19.0735V26.6328H392.763V25.0833H392.679C392.239 25.9418 391.192 26.8841 389.308 26.8841C387.151 26.8841 385.476 25.6486 385.476 23.429ZM387.654 23.45C387.654 24.5388 388.554 25.1042 389.81 25.1042C391.632 25.1042 392.721 23.8897 392.721 22.5286V21.4816C392.197 21.5235 390.564 21.6387 390.041 21.6701C388.575 21.7748 387.654 22.3192 387.654 23.45ZM406.338 15.2625L402.213 26.6328H399.804L395.679 15.2625H398.087L400.956 23.9944H401.061L403.93 15.2625H406.338ZM412.018 26.8632C408.668 26.8632 406.616 24.5598 406.616 21.0209C406.616 17.524 408.71 15.1159 411.872 15.1159C414.468 15.1159 416.918 16.7283 416.918 20.8325V21.6282H408.835C408.898 23.785 410.165 25.0204 412.039 25.0204C413.317 25.0204 414.133 24.476 414.51 23.785H416.772C416.269 25.6277 414.51 26.8632 412.018 26.8632ZM408.856 19.953H414.719C414.719 18.215 413.61 16.9586 411.893 16.9586C410.102 16.9586 408.94 18.3406 408.856 19.953ZM420.735 11.4724V26.6328H418.494V11.4724H420.735Z" fill="url(#paint3_linear_2204_4898)" fill-opacity="0.8"/>
<rect x="-13.9766" y="209.039" width="108.052" height="37.2598" rx="6.70074" fill="#36383E"/>
<path d="M5.08656 235.672L5.75663 231.61H2.2178L1.54773 235.672H-0.253094L0.416979 231.61H-1.76076L-1.48854 229.83H0.710137L1.27551 226.354H-0.881289L-0.609071 224.553H1.58961L2.23874 220.511H4.03957L3.39043 224.553H6.92926L7.57839 220.511H9.35828L8.70914 224.553H10.9078L10.6147 226.354H8.41599L7.85061 229.83H10.0284L9.71425 231.61H7.55745L6.88738 235.672H5.08656ZM2.51096 229.83H6.04979L6.61516 226.354H3.07633L2.51096 229.83ZM11.9816 220.511H14.7876L19.5828 232.259H19.7712L24.5664 220.511H27.3724V235.672H25.1737V224.72H25.0271L20.5879 235.651H18.7661L14.3059 224.699H14.1803V235.672H11.9816V220.511ZM29.6397 235.672V224.302H31.8803V235.672H29.6397ZM30.7705 222.543C29.9957 222.543 29.3466 221.956 29.3466 221.223C29.3466 220.491 29.9957 219.904 30.7705 219.904C31.5243 219.904 32.1735 220.491 32.1735 221.223C32.1735 221.956 31.5243 222.543 30.7705 222.543ZM36.1998 228.929V235.672H33.9592V224.302H36.116V226.165H36.2416C36.7861 224.951 37.8959 224.155 39.592 224.155C41.9373 224.155 43.4659 225.621 43.4659 228.448V235.672H41.2463V228.72C41.2463 227.066 40.3458 226.081 38.8382 226.081C37.3096 226.081 36.1998 227.107 36.1998 228.929ZM45.5448 235.672V224.302H47.7853V235.672H45.5448ZM46.6755 222.543C45.9008 222.543 45.2516 221.956 45.2516 221.223C45.2516 220.491 45.9008 219.904 46.6755 219.904C47.4294 219.904 48.0785 220.491 48.0785 221.223C48.0785 221.956 47.4294 222.543 46.6755 222.543ZM49.8642 235.672V224.302H52.021V226.165H52.1467C52.6283 224.888 53.7381 224.155 55.2458 224.155C56.7534 224.155 57.8214 224.909 58.303 226.165H58.4286C58.9731 224.93 60.1876 224.155 61.8418 224.155C63.8939 224.155 65.3597 225.453 65.3597 228.05V235.672H63.1191V228.259C63.1191 226.731 62.1559 226.081 60.9833 226.081C59.5384 226.081 58.7218 227.066 58.7218 228.427V235.672H56.5022V228.134C56.5022 226.898 55.6436 226.081 54.4291 226.081C53.1727 226.081 52.1048 227.128 52.1048 228.657V235.672H49.8642ZM66.8942 232.468C66.8942 229.872 69.0928 229.201 71.1449 229.055C71.8988 229.003 73.6054 228.908 74.1393 228.887L74.1184 227.987C74.1184 226.71 73.3436 225.956 71.815 225.956C70.4958 225.956 69.7001 226.563 69.4698 227.401H67.2501C67.4595 225.516 69.2185 224.155 71.8988 224.155C73.6996 224.155 76.359 224.825 76.359 228.113V235.672H74.1812V234.122H74.0975C73.6577 234.981 72.6107 235.923 70.7261 235.923C68.5693 235.923 66.8942 234.688 66.8942 232.468ZM69.0719 232.489C69.0719 233.578 69.9723 234.143 71.2287 234.143C73.0505 234.143 74.1393 232.929 74.1393 231.568V230.521C73.6158 230.563 71.9825 230.678 71.459 230.709C69.9933 230.814 69.0719 231.358 69.0719 232.489ZM80.6575 220.511V235.672H78.4169V220.511H80.6575Z" fill="url(#paint4_linear_2204_4898)" fill-opacity="0.8"/>
<rect x="100.074" y="209.039" width="108.052" height="37.2598" rx="6.70074" fill="#36383E"/>
<path d="M116.637 235.672L117.307 231.61H113.769L113.099 235.672H111.298L111.968 231.61H109.79L110.062 229.83H112.261L112.826 226.354H110.669L110.942 224.553H113.14L113.79 220.511H115.59L114.941 224.553H118.48L119.129 220.511H120.909L120.26 224.553H122.459L122.165 226.354H119.967L119.401 229.83H121.579L121.265 231.61H119.108L118.438 235.672H116.637ZM114.062 229.83H117.601L118.166 226.354H114.627L114.062 229.83ZM123.532 235.672V220.511H129.081C132.306 220.511 133.877 222.249 133.877 224.49C133.877 226.375 132.725 227.338 131.322 227.694V227.84C132.83 227.924 134.463 229.243 134.463 231.589C134.463 233.913 132.872 235.672 129.333 235.672H123.532ZM129.123 233.704C131.301 233.704 132.181 232.74 132.181 231.484C132.181 230.039 131.029 228.866 129.207 228.866H125.836V233.704H129.123ZM128.893 227.066C130.422 227.066 131.615 226.123 131.615 224.678C131.615 223.422 130.757 222.48 128.935 222.48H125.836V227.066H128.893ZM136.102 235.672V224.302H138.259V226.102H138.385C138.803 224.888 139.934 224.134 141.274 224.134C141.546 224.134 141.986 224.155 142.217 224.176V226.312C142.028 226.27 141.505 226.186 141.044 226.186C139.494 226.186 138.343 227.254 138.343 228.741V235.672H136.102ZM150.473 230.939V224.302H152.692V235.672H150.515V233.704H150.389C149.865 234.918 148.693 235.818 146.997 235.818C144.798 235.818 143.248 234.353 143.248 231.526V224.302H145.489V231.254C145.489 232.803 146.431 233.787 147.792 233.787C149.028 233.787 150.473 232.887 150.473 230.939ZM160.09 224.302V226.081H157.766V232.322C157.766 233.599 158.415 233.829 159.127 233.85C159.441 233.85 159.943 233.808 160.257 233.787V235.735C159.943 235.777 159.462 235.818 158.855 235.818C157.096 235.818 155.525 234.855 155.546 232.782V226.081H153.871V224.302H155.546V221.579H157.766V224.302H160.09ZM161.101 232.468C161.101 229.872 163.3 229.201 165.352 229.055C166.106 229.003 167.812 228.908 168.346 228.887L168.325 227.987C168.325 226.71 167.55 225.956 166.022 225.956C164.703 225.956 163.907 226.563 163.677 227.401H161.457C161.666 225.516 163.425 224.155 166.106 224.155C167.906 224.155 170.566 224.825 170.566 228.113V235.672H168.388V234.122H168.304C167.864 234.981 166.817 235.923 164.933 235.923C162.776 235.923 161.101 234.688 161.101 232.468ZM163.279 232.489C163.279 233.578 164.179 234.143 165.435 234.143C167.257 234.143 168.346 232.929 168.346 231.568V230.521C167.823 230.563 166.189 230.678 165.666 230.709C164.2 230.814 163.279 231.358 163.279 232.489ZM174.864 220.511V235.672H172.624V220.511H174.864ZM176.943 235.672V224.302H179.184V235.672H176.943ZM178.074 222.543C177.299 222.543 176.65 221.956 176.65 221.223C176.65 220.491 177.299 219.904 178.074 219.904C178.828 219.904 179.477 220.491 179.477 221.223C179.477 221.956 178.828 222.543 178.074 222.543ZM187.649 227.401C187.44 226.5 186.728 225.914 185.492 225.914C184.215 225.914 183.294 226.584 183.315 227.443C183.294 228.113 183.838 228.594 185.095 228.887L186.895 229.306C188.989 229.767 189.995 230.772 190.015 232.384C189.995 234.436 188.277 235.902 185.367 235.902C182.645 235.902 181.011 234.688 180.739 232.573H183.022C183.21 233.599 184.006 234.101 185.346 234.101C186.791 234.101 187.712 233.515 187.733 232.552C187.712 231.819 187.168 231.337 185.974 231.065L184.194 230.688C182.142 230.228 181.074 229.139 181.074 227.568C181.074 225.537 182.833 224.155 185.472 224.155C188.005 224.155 189.576 225.453 189.806 227.401H187.649ZM196.869 224.302V226.081H194.544V232.322C194.544 233.599 195.193 233.829 195.905 233.85C196.219 233.85 196.722 233.808 197.036 233.787V235.735C196.722 235.777 196.24 235.818 195.633 235.818C193.874 235.818 192.304 234.855 192.325 232.782V226.081H190.65V224.302H192.325V221.579H194.544V224.302H196.869Z" fill="url(#paint5_linear_2204_4898)" fill-opacity="0.8"/>
<rect x="214.129" y="209.172" width="77" height="37" rx="6.70074" fill="#36383E"/>
<path d="M234.665 235.672L235.335 231.61H231.796L231.126 235.672H229.325L229.995 231.61H227.817L228.09 229.83H230.288L230.854 226.354H228.697L228.969 224.553H231.168L231.817 220.511H233.618L232.969 224.553H236.507L237.157 220.511H238.936L238.287 224.553H240.486L240.193 226.354H237.994L237.429 229.83H239.606L239.292 231.61H237.136L236.466 235.672H234.665ZM232.089 229.83H235.628L236.193 226.354H232.654L232.089 229.83ZM240.387 220.511H243.005L246.941 227.38H247.109L251.066 220.511H253.684L248.177 229.725V235.672H245.873V229.725L240.387 220.511ZM254.737 235.672V233.997L259.993 228.699C261.647 226.961 262.484 225.998 262.484 224.678C262.484 223.192 261.27 222.229 259.679 222.229C258.003 222.229 256.914 223.296 256.914 224.909H254.737C254.716 222.145 256.831 220.302 259.72 220.302C262.652 220.302 264.662 222.145 264.683 224.616C264.662 226.312 263.866 227.652 261.019 230.458L257.941 233.578V233.704H264.934V235.672H254.737ZM266.867 235.672V220.511H269.107V229.097H269.296L273.798 224.302H276.478L271.892 229.181L276.792 235.672H274.049L270.196 230.563L269.107 231.63V235.672H266.867Z" fill="url(#paint6_linear_2204_4898)" fill-opacity="0.8"/>
<rect x="297.129" y="209.039" width="108.052" height="37.2598" rx="6.70074" fill="#36383E"/>
<path d="M316.192 235.672L316.862 231.61H313.323L312.653 235.672H310.852L311.522 231.61H309.345L309.617 229.83H311.816L312.381 226.354H310.224L310.496 224.553H312.695L313.344 220.511H315.145L314.496 224.553H318.035L318.684 220.511H320.464L319.815 224.553H322.013L321.72 226.354H319.521L318.956 229.83H321.134L320.82 231.61H318.663L317.993 235.672H316.192ZM313.616 229.83H317.155L317.721 226.354H314.182L313.616 229.83ZM324.427 220.511L328.636 232.845H328.804L333.013 220.511H335.504L330.039 235.672H327.38L321.935 220.511H324.427ZM336.599 235.672V224.302H338.84V235.672H336.599ZM337.73 222.543C336.955 222.543 336.306 221.956 336.306 221.223C336.306 220.491 336.955 219.904 337.73 219.904C338.484 219.904 339.133 220.491 339.133 221.223C339.133 221.956 338.484 222.543 337.73 222.543ZM343.159 228.929V235.672H340.919V224.302H343.075V226.165H343.201C343.745 224.951 344.855 224.155 346.551 224.155C348.897 224.155 350.425 225.621 350.425 228.448V235.672H348.206V228.72C348.206 227.066 347.305 226.081 345.798 226.081C344.269 226.081 343.159 227.107 343.159 228.929ZM357.823 224.302V226.081H355.499V232.322C355.499 233.599 356.148 233.829 356.86 233.85C357.174 233.85 357.676 233.808 357.99 233.787V235.735C357.676 235.777 357.195 235.818 356.587 235.818C354.828 235.818 353.258 234.855 353.279 232.782V226.081H351.604V224.302H353.279V221.579H355.499V224.302H357.823ZM358.834 232.468C358.834 229.872 361.033 229.201 363.085 229.055C363.838 229.003 365.545 228.908 366.079 228.887L366.058 227.987C366.058 226.71 365.283 225.956 363.755 225.956C362.435 225.956 361.64 226.563 361.409 227.401H359.19C359.399 225.516 361.158 224.155 363.838 224.155C365.639 224.155 368.299 224.825 368.299 228.113V235.672H366.121V234.122H366.037C365.597 234.981 364.55 235.923 362.666 235.923C360.509 235.923 358.834 234.688 358.834 232.468ZM361.012 232.489C361.012 233.578 361.912 234.143 363.168 234.143C364.99 234.143 366.079 232.929 366.079 231.568V230.521C365.556 230.563 363.922 230.678 363.399 230.709C361.933 230.814 361.012 231.358 361.012 232.489ZM375.131 240.174C372.262 240.174 370.378 238.897 370.168 236.782H372.451C372.66 237.85 373.665 238.373 375.152 238.373C376.932 238.373 378.062 237.619 378.062 235.839V233.599H377.916C377.518 234.332 376.701 235.504 374.607 235.504C371.927 235.504 369.854 233.494 369.854 229.872C369.854 226.249 371.885 224.155 374.628 224.155C376.743 224.155 377.518 225.432 377.937 226.144H378.083V224.302H380.261V235.923C380.261 238.834 378.062 240.174 375.131 240.174ZM375.11 233.662C377.015 233.662 378.083 232.259 378.083 229.913C378.083 227.61 377.036 226.061 375.11 226.061C373.121 226.061 372.136 227.736 372.136 229.913C372.136 232.133 373.163 233.662 375.11 233.662ZM387.24 235.902C383.89 235.902 381.837 233.599 381.837 230.06C381.837 226.563 383.931 224.155 387.093 224.155C389.69 224.155 392.14 225.767 392.14 229.872V230.667H384.057C384.12 232.824 385.387 234.06 387.261 234.06C388.538 234.06 389.355 233.515 389.732 232.824H391.993C391.491 234.667 389.732 235.902 387.24 235.902ZM384.078 228.992H389.941C389.941 227.254 388.831 225.998 387.114 225.998C385.324 225.998 384.162 227.38 384.078 228.992Z" fill="url(#paint7_linear_2204_4898)" fill-opacity="0.8"/>
<rect x="-90" y="156.781" width="108.052" height="37.2598" rx="6.70074" fill="#36383E"/>
<rect x="24.0508" y="156.781" width="108.052" height="37.2598" rx="6.70074" fill="#36383E"/>
<path d="M49.6139 183.414L50.284 179.352H46.7451L46.0751 183.414H44.2742L44.9443 179.352H42.7666L43.0388 177.572H45.2375L45.8029 174.096H43.6461L43.9183 172.295H46.117L46.7661 168.254H48.5669L47.9178 172.295H51.4566L52.1057 168.254H53.8856L53.2365 172.295H55.4352L55.142 174.096H52.9433L52.378 177.572H54.5557L54.2416 179.352H52.0848L51.4147 183.414H49.6139ZM47.0383 177.572H50.5771L51.1425 174.096H47.6037L47.0383 177.572ZM57.8491 168.254L62.058 180.587H62.2255L66.4344 168.254H68.9263L63.461 183.414H60.8016L55.3573 168.254H57.8491ZM73.7692 183.644C70.4189 183.644 68.3668 181.341 68.3668 177.802C68.3668 174.305 70.4607 171.897 73.6226 171.897C76.2192 171.897 78.6691 173.51 78.6691 177.614V178.409H70.5864C70.6492 180.566 71.916 181.802 73.7902 181.802C75.0675 181.802 75.8841 181.257 76.2611 180.566H78.5226C78.02 182.409 76.2611 183.644 73.7692 183.644ZM70.6073 176.734H76.4705C76.4705 174.996 75.3606 173.74 73.6436 173.74C71.8532 173.74 70.6911 175.122 70.6073 176.734ZM82.486 168.254V183.414H80.2455V168.254H82.486ZM94.3229 172.044L90.1978 183.414H87.7897L83.6645 172.044H86.0726L88.9414 180.776H89.0461L91.9148 172.044H94.3229ZM100.003 183.644C96.6531 183.644 94.601 181.341 94.601 177.802C94.601 174.305 96.695 171.897 99.8569 171.897C102.453 171.897 104.903 173.51 104.903 177.614V178.409H96.8206C96.8834 180.566 98.1503 181.802 100.024 181.802C101.302 181.802 102.118 181.257 102.495 180.566H104.757C104.254 182.409 102.495 183.644 100.003 183.644ZM96.8415 176.734H102.705C102.705 174.996 101.595 173.74 99.8778 173.74C98.0875 173.74 96.9253 175.122 96.8415 176.734ZM111.798 172.044V173.824H109.474V180.064C109.474 181.341 110.123 181.571 110.835 181.592C111.149 181.592 111.652 181.55 111.966 181.529V183.477C111.652 183.519 111.17 183.561 110.563 183.561C108.804 183.561 107.234 182.597 107.254 180.524V173.824H105.579V172.044H107.254V169.322H109.474V172.044H111.798Z" fill="url(#paint8_linear_2204_4898)" fill-opacity="0.8"/>
<rect x="138.105" y="156.781" width="108.052" height="37.2598" rx="6.70074" fill="#36383E"/>
<path d="M163.669 183.414L164.339 179.352H160.8L160.13 183.414H158.329L158.999 179.352H156.821L157.093 177.572H159.292L159.858 174.096H157.701L157.973 172.295H160.172L160.821 168.254H162.622L161.972 172.295H165.511L166.16 168.254H167.94L167.291 172.295H169.49L169.197 174.096H166.998L166.433 177.572H168.61L168.296 179.352H166.139L165.469 183.414H163.669ZM161.093 177.572H164.632L165.197 174.096H161.658L161.093 177.572ZM170.564 183.414V168.254H179.966V170.243H172.867V174.829H179.296V176.797H172.867V183.414H170.564ZM185.688 183.644C182.463 183.644 180.369 181.299 180.369 177.781C180.369 174.242 182.463 171.897 185.688 171.897C188.892 171.897 190.986 174.242 190.986 177.781C190.986 181.299 188.892 183.644 185.688 183.644ZM185.688 181.781C187.74 181.781 188.724 179.959 188.724 177.781C188.724 175.604 187.74 173.74 185.688 173.74C183.594 173.74 182.61 175.604 182.61 177.781C182.61 179.959 183.594 181.781 185.688 181.781ZM197.316 187.916C194.447 187.916 192.562 186.639 192.353 184.524H194.635C194.845 185.592 195.85 186.115 197.336 186.115C199.116 186.115 200.247 185.361 200.247 183.582V181.341H200.1C199.703 182.074 198.886 183.247 196.792 183.247C194.112 183.247 192.039 181.236 192.039 177.614C192.039 173.991 194.07 171.897 196.813 171.897C198.928 171.897 199.703 173.174 200.121 173.886H200.268V172.044H202.446V183.665C202.446 186.576 200.247 187.916 197.316 187.916ZM197.295 181.404C199.2 181.404 200.268 180.001 200.268 177.656C200.268 175.352 199.221 173.803 197.295 173.803C195.305 173.803 194.321 175.478 194.321 177.656C194.321 179.875 195.347 181.404 197.295 181.404ZM209.299 187.916C206.43 187.916 204.546 186.639 204.336 184.524H206.619C206.828 185.592 207.833 186.115 209.32 186.115C211.1 186.115 212.231 185.361 212.231 183.582V181.341H212.084C211.686 182.074 210.869 183.247 208.775 183.247C206.095 183.247 204.022 181.236 204.022 177.614C204.022 173.991 206.053 171.897 208.796 171.897C210.911 171.897 211.686 173.174 212.105 173.886H212.251V172.044H214.429V183.665C214.429 186.576 212.231 187.916 209.299 187.916ZM209.278 181.404C211.184 181.404 212.251 180.001 212.251 177.656C212.251 175.352 211.204 173.803 209.278 173.803C207.289 173.803 206.305 175.478 206.305 177.656C206.305 179.875 207.331 181.404 209.278 181.404ZM217.89 187.686C217.429 187.686 216.99 187.665 216.697 187.623V185.759C216.948 185.78 217.388 185.801 217.702 185.801C218.393 185.801 218.979 185.738 219.502 184.314L219.775 183.561L215.608 172.044H217.995L220.864 180.859H220.989L223.858 172.044H226.266L221.576 184.922C220.926 186.723 219.754 187.686 217.89 187.686Z" fill="url(#paint9_linear_2204_4898)" fill-opacity="0.8"/>
<rect x="252.156" y="156.781" width="108.052" height="37.2598" rx="6.70074" fill="#36383E"/>
<path d="M281.219 183.414L281.889 179.352H278.351L277.681 183.414H275.88L276.55 179.352H274.372L274.644 177.572H276.843L277.408 174.096H275.252L275.524 172.295H277.722L278.372 168.254H280.172L279.523 172.295H283.062L283.711 168.254H285.491L284.842 172.295H287.041L286.747 174.096H284.549L283.983 177.572H286.161L285.847 179.352H283.69L283.02 183.414H281.219ZM278.644 177.572H282.183L282.748 174.096H279.209L278.644 177.572ZM298.354 173.049C297.789 171.248 296.428 170.159 294.417 170.159C291.863 170.159 289.894 172.169 289.894 175.834C289.894 179.498 291.842 181.509 294.522 181.509C296.941 181.509 298.542 179.98 298.584 177.551H294.857V175.645H300.825V177.362C300.825 181.194 298.186 183.623 294.501 183.623C290.397 183.623 287.612 180.629 287.612 175.834C287.612 170.997 290.481 168.044 294.396 168.044C297.684 168.044 300.197 170.096 300.72 173.049H298.354ZM304.893 168.254V183.414H302.653V168.254H304.893ZM306.448 180.21C306.448 177.614 308.647 176.944 310.699 176.797C311.453 176.745 313.16 176.651 313.694 176.63L313.673 175.729C313.673 174.452 312.898 173.698 311.369 173.698C310.05 173.698 309.254 174.305 309.024 175.143H306.804C307.014 173.258 308.773 171.897 311.453 171.897C313.254 171.897 315.913 172.567 315.913 175.855V183.414H313.736V181.865H313.652C313.212 182.723 312.165 183.665 310.28 183.665C308.124 183.665 306.448 182.43 306.448 180.21ZM308.626 180.231C308.626 181.32 309.527 181.885 310.783 181.885C312.605 181.885 313.694 180.671 313.694 179.31V178.263C313.17 178.305 311.537 178.42 311.013 178.451C309.548 178.556 308.626 179.1 308.626 180.231ZM324.358 175.143C324.148 174.242 323.437 173.656 322.201 173.656C320.924 173.656 320.002 174.326 320.023 175.185C320.002 175.855 320.547 176.336 321.803 176.63L323.604 177.048C325.698 177.509 326.703 178.514 326.724 180.127C326.703 182.179 324.986 183.644 322.075 183.644C319.353 183.644 317.72 182.43 317.448 180.315H319.73C319.919 181.341 320.714 181.844 322.055 181.844C323.499 181.844 324.421 181.257 324.442 180.294C324.421 179.561 323.876 179.08 322.683 178.807L320.903 178.43C318.851 177.97 317.783 176.881 317.783 175.31C317.783 173.279 319.542 171.897 322.18 171.897C324.714 171.897 326.284 173.195 326.515 175.143H324.358ZM334.645 175.143C334.436 174.242 333.724 173.656 332.488 173.656C331.211 173.656 330.29 174.326 330.311 175.185C330.29 175.855 330.834 176.336 332.091 176.63L333.891 177.048C335.985 177.509 336.99 178.514 337.011 180.127C336.99 182.179 335.273 183.644 332.363 183.644C329.641 183.644 328.007 182.43 327.735 180.315H330.017C330.206 181.341 331.002 181.844 332.342 181.844C333.787 181.844 334.708 181.257 334.729 180.294C334.708 179.561 334.164 179.08 332.97 178.807L331.19 178.43C329.138 177.97 328.07 176.881 328.07 175.31C328.07 173.279 329.829 171.897 332.467 171.897C335.001 171.897 336.572 173.195 336.802 175.143H334.645Z" fill="url(#paint10_linear_2204_4898)" fill-opacity="0.8"/>
<rect x="366.211" y="156.781" width="108.052" height="37.2598" rx="6.70074" fill="#36383E"/>
<path d="M389.274 183.414L389.944 179.352H386.405L385.735 183.414H383.934L384.604 179.352H382.427L382.699 177.572H384.898L385.463 174.096H383.306L383.578 172.295H385.777L386.426 168.254H388.227L387.578 172.295H391.117L391.766 168.254H393.546L392.897 172.295H395.095L394.802 174.096H392.603L392.038 177.572H394.216L393.902 179.352H391.745L391.075 183.414H389.274ZM386.698 177.572H390.237L390.803 174.096H387.264L386.698 177.572ZM406.409 173.049C405.843 171.248 404.482 170.159 402.472 170.159C399.917 170.159 397.949 172.169 397.949 175.834C397.949 179.498 399.896 181.509 402.577 181.509C404.995 181.509 406.597 179.98 406.639 177.551H402.912V175.645H408.88V177.362C408.88 181.194 406.241 183.623 402.556 183.623C398.452 183.623 395.667 180.629 395.667 175.834C395.667 170.997 398.535 168.044 402.451 168.044C405.739 168.044 408.251 170.096 408.775 173.049H406.409ZM412.948 168.254V183.414H410.707V168.254H412.948ZM419.843 183.644C416.618 183.644 414.524 181.299 414.524 177.781C414.524 174.242 416.618 171.897 419.843 171.897C423.047 171.897 425.141 174.242 425.141 177.781C425.141 181.299 423.047 183.644 419.843 183.644ZM419.843 181.781C421.895 181.781 422.879 179.959 422.879 177.781C422.879 175.604 421.895 173.74 419.843 173.74C417.749 173.74 416.765 175.604 416.765 177.781C416.765 179.959 417.749 181.781 419.843 181.781ZM433.083 175.143C432.873 174.242 432.161 173.656 430.926 173.656C429.649 173.656 428.727 174.326 428.748 175.185C428.727 175.855 429.272 176.336 430.528 176.63L432.329 177.048C434.423 177.509 435.428 178.514 435.449 180.127C435.428 182.179 433.711 183.644 430.8 183.644C428.078 183.644 426.445 182.43 426.173 180.315H428.455C428.643 181.341 429.439 181.844 430.779 181.844C432.224 181.844 433.145 181.257 433.166 180.294C433.145 179.561 432.601 179.08 431.407 178.807L429.628 178.43C427.575 177.97 426.508 176.881 426.508 175.31C426.508 173.279 428.266 171.897 430.905 171.897C433.439 171.897 435.009 173.195 435.239 175.143H433.083ZM443.37 175.143C443.161 174.242 442.449 173.656 441.213 173.656C439.936 173.656 439.014 174.326 439.035 175.185C439.014 175.855 439.559 176.336 440.815 176.63L442.616 177.048C444.71 177.509 445.715 178.514 445.736 180.127C445.715 182.179 443.998 183.644 441.088 183.644C438.365 183.644 436.732 182.43 436.46 180.315H438.742C438.931 181.341 439.726 181.844 441.067 181.844C442.511 181.844 443.433 181.257 443.454 180.294C443.433 179.561 442.888 179.08 441.695 178.807L439.915 178.43C437.863 177.97 436.795 176.881 436.795 175.31C436.795 173.279 438.554 171.897 441.192 171.897C443.726 171.897 445.296 173.195 445.527 175.143H443.37ZM448.653 187.686C448.192 187.686 447.752 187.665 447.459 187.623V185.759C447.71 185.78 448.15 185.801 448.464 185.801C449.155 185.801 449.742 185.738 450.265 184.314L450.537 183.561L446.37 172.044H448.757L451.626 180.859H451.752L454.62 172.044H457.029L452.338 184.922C451.689 186.723 450.516 187.686 448.653 187.686Z" fill="url(#paint11_linear_2204_4898)" fill-opacity="0.8"/>
<rect x="-7.94922" y="104.383" width="108.052" height="37.2598" rx="6.70074" fill="#36383E"/>
<path d="M25.1139 131.016L25.784 126.953H22.2451L21.5751 131.016H19.7742L20.4443 126.953H18.2666L18.5388 125.173H20.7375L21.3029 121.697H19.1461L19.4183 119.897H21.617L22.2661 115.855H24.0669L23.4178 119.897H26.9566L27.6057 115.855H29.3856L28.7365 119.897H30.9352L30.642 121.697H28.4433L27.878 125.173H30.0557L29.7416 126.953H27.5848L26.9147 131.016H25.1139ZM22.5383 125.173H26.0771L26.6425 121.697H23.1037L22.5383 125.173ZM42.2695 120.797C41.8925 118.85 40.2802 117.761 38.3537 117.761C35.7362 117.761 33.7888 119.771 33.7888 123.435C33.7888 127.121 35.7572 129.11 38.3537 129.11C40.2592 129.11 41.8716 128.042 42.2695 126.116L44.5938 126.137C44.1122 129.131 41.6622 131.225 38.3328 131.225C34.3752 131.225 31.5064 128.273 31.5064 123.435C31.5064 118.577 34.3961 115.646 38.3328 115.646C41.5366 115.646 44.0703 117.53 44.5938 120.797H42.2695ZM51.07 131.246C47.8453 131.246 45.7513 128.901 45.7513 125.383C45.7513 121.844 47.8453 119.499 51.07 119.499C54.2738 119.499 56.3678 121.844 56.3678 125.383C56.3678 128.901 54.2738 131.246 51.07 131.246ZM51.07 129.382C53.1221 129.382 54.1063 127.561 54.1063 125.383C54.1063 123.205 53.1221 121.341 51.07 121.341C48.9761 121.341 47.9919 123.205 47.9919 125.383C47.9919 127.561 48.9761 129.382 51.07 129.382ZM62.7394 131.246C59.5147 131.246 57.4207 128.901 57.4207 125.383C57.4207 121.844 59.5147 119.499 62.7394 119.499C65.9432 119.499 68.0372 121.844 68.0372 125.383C68.0372 128.901 65.9432 131.246 62.7394 131.246ZM62.7394 129.382C64.7915 129.382 65.7757 127.561 65.7757 125.383C65.7757 123.205 64.7915 121.341 62.7394 121.341C60.6454 121.341 59.6612 123.205 59.6612 125.383C59.6612 127.561 60.6454 129.382 62.7394 129.382ZM71.8331 115.855V131.016H69.5926V115.855H71.8331Z" fill="url(#paint12_linear_2204_4898)" fill-opacity="0.8"/>
<rect x="106.102" y="104.383" width="108.052" height="37.2598" rx="6.70074" fill="#36383E"/>
<path d="M140.165 131.016L140.835 126.953H137.296L136.626 131.016H134.825L135.495 126.953H133.317L133.59 125.173H135.788L136.354 121.697H134.197L134.469 119.897H136.668L137.317 115.855H139.118L138.469 119.897H142.007L142.657 115.855H144.436L143.787 119.897H145.986L145.693 121.697H143.494L142.929 125.173H145.106L144.792 126.953H142.636L141.966 131.016H140.165ZM137.589 125.173H141.128L141.693 121.697H138.154L137.589 125.173ZM157.32 120.797C156.943 118.85 155.331 117.761 153.405 117.761C150.787 117.761 148.84 119.771 148.84 123.435C148.84 127.121 150.808 129.11 153.405 129.11C155.31 129.11 156.922 128.042 157.32 126.116L159.645 126.137C159.163 129.131 156.713 131.225 153.384 131.225C149.426 131.225 146.557 128.273 146.557 123.435C146.557 118.577 149.447 115.646 153.384 115.646C156.587 115.646 159.121 117.53 159.645 120.797H157.32ZM163.545 115.855V131.016H161.305V115.855H163.545ZM165.101 127.812C165.101 125.215 167.299 124.545 169.351 124.399C170.105 124.346 171.812 124.252 172.346 124.231L172.325 123.331C172.325 122.053 171.55 121.3 170.021 121.3C168.702 121.3 167.907 121.907 167.676 122.744H165.457C165.666 120.86 167.425 119.499 170.105 119.499C171.906 119.499 174.565 120.169 174.565 123.456V131.016H172.388V129.466H172.304C171.864 130.325 170.817 131.267 168.933 131.267C166.776 131.267 165.101 130.031 165.101 127.812ZM167.278 127.833C167.278 128.922 168.179 129.487 169.435 129.487C171.257 129.487 172.346 128.273 172.346 126.911V125.864C171.822 125.906 170.189 126.021 169.666 126.053C168.2 126.158 167.278 126.702 167.278 127.833ZM177.587 135.287C177.126 135.287 176.686 135.266 176.393 135.225V133.361C176.644 133.382 177.084 133.403 177.398 133.403C178.089 133.403 178.675 133.34 179.199 131.916L179.471 131.162L175.304 119.645H177.691L180.56 128.461H180.686L183.554 119.645H185.963L181.272 132.523C180.623 134.324 179.45 135.287 177.587 135.287Z" fill="url(#paint13_linear_2204_4898)" fill-opacity="0.8"/>
<rect x="220.156" y="104.383" width="108.052" height="37.2598" rx="6.70074" fill="#36383E"/>
<path d="M250.719 131.016L251.389 126.953H247.851L247.181 131.016H245.38L246.05 126.953H243.872L244.144 125.173H246.343L246.908 121.697H244.752L245.024 119.897H247.222L247.872 115.855H249.672L249.023 119.897H252.562L253.211 115.855H254.991L254.342 119.897H256.541L256.247 121.697H254.049L253.483 125.173H255.661L255.347 126.953H253.19L252.52 131.016H250.719ZM248.144 125.173H251.683L252.248 121.697H248.709L248.144 125.173ZM269.843 115.855V131.016H267.728L260.043 119.938H259.918V131.016H257.614V115.855H259.75L267.435 126.953H267.582V115.855H269.843ZM271.587 127.812C271.587 125.215 273.786 124.545 275.838 124.399C276.592 124.346 278.298 124.252 278.832 124.231L278.811 123.331C278.811 122.053 278.037 121.3 276.508 121.3C275.189 121.3 274.393 121.907 274.163 122.744H271.943C272.153 120.86 273.911 119.499 276.592 119.499C278.393 119.499 281.052 120.169 281.052 123.456V131.016H278.874V129.466H278.79C278.351 130.325 277.304 131.267 275.419 131.267C273.262 131.267 271.587 130.031 271.587 127.812ZM273.765 127.833C273.765 128.922 274.665 129.487 275.922 129.487C277.743 129.487 278.832 128.273 278.832 126.911V125.864C278.309 125.906 276.676 126.021 276.152 126.053C274.686 126.158 273.765 126.702 273.765 127.833ZM292.449 119.645L288.324 131.016H285.916L281.791 119.645H284.199L287.068 128.377H287.172L290.041 119.645H292.449ZM295.01 135.287C294.549 135.287 294.109 135.266 293.816 135.225V133.361C294.067 133.382 294.507 133.403 294.821 133.403C295.512 133.403 296.098 133.34 296.622 131.916L296.894 131.162L292.727 119.645H295.114L297.983 128.461H298.109L300.977 119.645H303.385L298.695 132.523C298.046 134.324 296.873 135.287 295.01 135.287Z" fill="url(#paint14_linear_2204_4898)" fill-opacity="0.8"/>
<rect x="334.207" y="104.383" width="108.052" height="37.2598" rx="6.70074" fill="#36383E"/>
<path d="M363.77 131.016L364.44 126.953H360.901L360.231 131.016H358.43L359.101 126.953H356.923L357.195 125.173H359.394L359.959 121.697H357.802L358.075 119.897H360.273L360.922 115.855H362.723L362.074 119.897H365.613L366.262 115.855H368.042L367.393 119.897H369.591L369.298 121.697H367.1L366.534 125.173H368.712L368.398 126.953H366.241L365.571 131.016H363.77ZM361.195 125.173H364.733L365.299 121.697H361.76L361.195 125.173ZM382.894 115.855V131.016H380.779L373.094 119.938H372.969V131.016H370.665V115.855H372.801L380.486 126.953H380.633V115.855H382.894ZM390.061 131.246C386.711 131.246 384.659 128.943 384.659 125.404C384.659 121.907 386.753 119.499 389.915 119.499C392.511 119.499 394.961 121.111 394.961 125.215V126.011H386.878C386.941 128.168 388.208 129.403 390.082 129.403C391.36 129.403 392.176 128.859 392.553 128.168H394.815C394.312 130.011 392.553 131.246 390.061 131.246ZM386.899 124.336H392.763C392.763 122.598 391.653 121.341 389.936 121.341C388.145 121.341 386.983 122.723 386.899 124.336ZM401.354 131.246C398.129 131.246 396.035 128.901 396.035 125.383C396.035 121.844 398.129 119.499 401.354 119.499C404.558 119.499 406.652 121.844 406.652 125.383C406.652 128.901 404.558 131.246 401.354 131.246ZM401.354 129.382C403.406 129.382 404.39 127.561 404.39 125.383C404.39 123.205 403.406 121.341 401.354 121.341C399.26 121.341 398.276 123.205 398.276 125.383C398.276 127.561 399.26 129.382 401.354 129.382ZM410.447 124.273V131.016H408.207V119.645H410.364V121.509H410.489C411.034 120.294 412.144 119.499 413.84 119.499C416.185 119.499 417.714 120.965 417.714 123.791V131.016H415.494V124.064C415.494 122.409 414.594 121.425 413.086 121.425C411.557 121.425 410.447 122.451 410.447 124.273Z" fill="url(#paint15_linear_2204_4898)" fill-opacity="0.8"/>
<rect x="-90" y="51.8594" width="107.299" height="37" rx="6.70074" fill="#36383E"/>
<rect x="23.3008" y="51.8594" width="107.299" height="37" rx="6.70074" fill="#36383E"/>
<path d="M57.485 78.3594L58.1551 74.2971H54.6162L53.9462 78.3594H52.1453L52.8154 74.2971H50.6377L50.9099 72.5172H53.1086L53.6739 69.0412H51.5171L51.7894 67.2403H53.988L54.6372 63.199H56.438L55.7889 67.2403H59.3277L59.9768 63.199H61.7567L61.1076 67.2403H63.3063L63.0131 69.0412H60.8144L60.249 72.5172H62.4268L62.1127 74.2971H59.9559L59.2858 78.3594H57.485ZM54.9094 72.5172H58.4482L59.0136 69.0412H55.4748L54.9094 72.5172ZM64.3801 78.3594V63.199H69.7825C73.3004 63.199 75.0384 65.1673 75.0384 67.9523C75.0384 69.9939 74.1171 71.5435 72.2744 72.224L75.6247 78.3594H73.0073L69.9291 72.6428H69.7825H66.6834V78.3594H64.3801ZM66.6834 70.6535H69.5522C71.7927 70.6535 72.7141 69.6694 72.7141 67.9523C72.7141 66.2352 71.7927 65.1673 69.5522 65.1673H66.6834V70.6535ZM76.2378 75.1556C76.2378 72.559 78.4365 71.889 80.4886 71.7424C81.2425 71.69 82.9491 71.5958 83.483 71.5749L83.4621 70.6745C83.4621 69.3971 82.6873 68.6433 81.1587 68.6433C79.8395 68.6433 79.0438 69.2506 78.8134 70.0882H76.5938C76.8032 68.2036 78.5622 66.8425 81.2425 66.8425C83.0433 66.8425 85.7026 67.5126 85.7026 70.8001V78.3594H83.5249V76.8098H83.4411C83.0014 77.6684 81.9544 78.6107 80.0698 78.6107C77.913 78.6107 76.2378 77.3752 76.2378 75.1556ZM78.4156 75.1765C78.4156 76.2654 79.316 76.8308 80.5724 76.8308C82.3942 76.8308 83.483 75.6163 83.483 74.2552V73.2082C82.9595 73.2501 81.3262 73.3652 80.8027 73.3966C79.3369 73.5013 78.4156 74.0458 78.4156 75.1765ZM90.2106 78.3594L86.8811 66.9891H89.1845L91.4041 75.3231H91.5298L93.7494 66.9891H96.0528L98.2514 75.2812H98.3771L100.576 66.9891H102.879L99.5497 78.3594H97.2673L94.9639 70.1719H94.7964L92.5139 78.3594H90.2106Z" fill="url(#paint16_linear_2204_4898)" fill-opacity="0.8"/>
<rect x="136.598" y="51.7266" width="108.052" height="37.2598" rx="6.70074" fill="#36383E"/>
<path d="M169.661 78.3594L170.331 74.2971H166.792L166.122 78.3594H164.321L164.991 74.2971H162.813L163.086 72.5172H165.284L165.85 69.0412H163.693L163.965 67.2403H166.164L166.813 63.199H168.614L167.965 67.2403H171.503L172.153 63.199H173.932L173.283 67.2403H175.482L175.189 69.0412H172.99L172.425 72.5172H174.603L174.288 74.2971H172.132L171.462 78.3594H169.661ZM167.085 72.5172H170.624L171.189 69.0412H167.651L167.085 72.5172ZM186.816 68.1407C186.439 66.1933 184.827 65.1045 182.901 65.1045C180.283 65.1045 178.336 67.1147 178.336 70.7792C178.336 74.4646 180.304 76.4539 182.901 76.4539C184.806 76.4539 186.418 75.3859 186.816 73.4595L189.141 73.4804C188.659 76.4748 186.209 78.5688 182.88 78.5688C178.922 78.5688 176.053 75.6163 176.053 70.7792C176.053 65.9211 178.943 62.9896 182.88 62.9896C186.083 62.9896 188.617 64.8741 189.141 68.1407H186.816ZM195.617 78.5897C192.392 78.5897 190.298 76.2445 190.298 72.7266C190.298 69.1877 192.392 66.8425 195.617 66.8425C198.821 66.8425 200.915 69.1877 200.915 72.7266C200.915 76.2445 198.821 78.5897 195.617 78.5897ZM195.617 76.7261C197.669 76.7261 198.653 74.9043 198.653 72.7266C198.653 70.5488 197.669 68.6852 195.617 68.6852C193.523 68.6852 192.539 70.5488 192.539 72.7266C192.539 74.9043 193.523 76.7261 195.617 76.7261ZM204.711 63.199V78.3594H202.47V63.199H204.711ZM211.04 78.5897C208.297 78.5897 206.287 76.3701 206.287 72.7056C206.287 68.9993 208.318 66.8425 211.061 66.8425C213.176 66.8425 213.951 68.1198 214.349 68.8318H214.454V63.199H216.694V78.3594H214.516V76.5795H214.349C213.93 77.3333 213.113 78.5897 211.04 78.5897ZM211.543 76.6842C213.448 76.6842 214.516 75.0509 214.516 72.6637C214.516 70.2975 213.469 68.748 211.543 68.748C209.554 68.748 208.569 70.4232 208.569 72.6637C208.569 74.9462 209.595 76.6842 211.543 76.6842Z" fill="url(#paint17_linear_2204_4898)" fill-opacity="0.8"/>
<rect x="250.648" y="51.7266" width="108.052" height="37.2598" rx="6.70074" fill="#36383E"/>
<path d="M269.212 78.3594L269.882 74.2971H266.343L265.673 78.3594H263.872L264.542 74.2971H262.364L262.636 72.5172H264.835L265.401 69.0412H263.244L263.516 67.2403H265.715L266.364 63.199H268.165L267.515 67.2403H271.054L271.703 63.199H273.483L272.834 67.2403H275.033L274.74 69.0412H272.541L271.976 72.5172H274.153L273.839 74.2971H271.682L271.012 78.3594H269.212ZM266.636 72.5172H270.175L270.74 69.0412H267.201L266.636 72.5172ZM281.027 78.3594H276.107V63.199H281.174C285.634 63.199 288.315 66.0468 288.315 70.7582C288.315 75.4906 285.634 78.3594 281.027 78.3594ZM278.41 76.3492H280.902C284.336 76.3492 286.032 74.3389 286.032 70.7582C286.032 67.1985 284.336 65.2092 281.027 65.2092H278.41V76.3492ZM290.079 78.3594V66.9891H292.236V68.7899H292.362C292.781 67.5754 293.911 66.8215 295.251 66.8215C295.524 66.8215 295.963 66.8425 296.194 66.8634V68.9993C296.005 68.9574 295.482 68.8736 295.021 68.8736C293.472 68.8736 292.32 69.9416 292.32 71.4283V78.3594H290.079ZM301.749 78.5897C298.398 78.5897 296.346 76.2863 296.346 72.7475C296.346 69.2506 298.44 66.8425 301.602 66.8425C304.199 66.8425 306.649 68.4548 306.649 72.559V73.3548H298.566C298.629 75.5116 299.895 76.747 301.77 76.747C303.047 76.747 303.864 76.2026 304.241 75.5116H306.502C305.999 77.3543 304.241 78.5897 301.749 78.5897ZM298.587 71.6796H304.45C304.45 69.9416 303.34 68.6852 301.623 68.6852C299.833 68.6852 298.671 70.0672 298.587 71.6796ZM307.701 75.1556C307.701 72.559 309.9 71.889 311.952 71.7424C312.706 71.69 314.413 71.5958 314.947 71.5749L314.926 70.6745C314.926 69.3971 314.151 68.6433 312.622 68.6433C311.303 68.6433 310.507 69.2506 310.277 70.0882H308.057C308.267 68.2036 310.026 66.8425 312.706 66.8425C314.507 66.8425 317.166 67.5126 317.166 70.8001V78.3594H314.988V76.8098H314.905C314.465 77.6684 313.418 78.6107 311.533 78.6107C309.377 78.6107 307.701 77.3752 307.701 75.1556ZM309.879 75.1765C309.879 76.2654 310.78 76.8308 312.036 76.8308C313.858 76.8308 314.947 75.6163 314.947 74.2552V73.2082C314.423 73.2501 312.79 73.3652 312.266 73.3966C310.801 73.5013 309.879 74.0458 309.879 75.1765ZM319.224 78.3594V66.9891H321.381V68.8527H321.507C321.988 67.5754 323.098 66.8425 324.606 66.8425C326.113 66.8425 327.181 67.5963 327.663 68.8527H327.789C328.333 67.6173 329.548 66.8425 331.202 66.8425C333.254 66.8425 334.72 68.1407 334.72 70.7373V78.3594H332.479V70.9467C332.479 69.4181 331.516 68.7689 330.343 68.7689C328.898 68.7689 328.082 69.7531 328.082 71.1142V78.3594H325.862V70.821C325.862 69.5856 325.004 68.7689 323.789 68.7689C322.533 68.7689 321.465 69.8159 321.465 71.3445V78.3594H319.224ZM337.741 82.6311C337.28 82.6311 336.84 82.6102 336.547 82.5683V80.7046C336.799 80.7256 337.238 80.7465 337.552 80.7465C338.243 80.7465 338.83 80.6837 339.353 79.2598L339.625 78.506L335.458 66.9891H337.846L340.714 75.8047H340.84L343.709 66.9891H346.117L341.426 79.867C340.777 81.6679 339.604 82.6311 337.741 82.6311Z" fill="url(#paint18_linear_2204_4898)" fill-opacity="0.8"/>
<rect x="364.703" y="51.7266" width="108.052" height="37.2598" rx="6.70074" fill="#36383E"/>
<path d="M386.766 78.3594L387.436 74.2971H383.897L383.227 78.3594H381.427L382.097 74.2971H379.919L380.191 72.5172H382.39L382.955 69.0412H380.798L381.071 67.2403H383.269L383.918 63.199H385.719L385.07 67.2403H388.609L389.258 63.199H391.038L390.389 67.2403H392.588L392.294 69.0412H390.096L389.53 72.5172H391.708L391.394 74.2971H389.237L388.567 78.3594H386.766ZM384.191 72.5172H387.729L388.295 69.0412H384.756L384.191 72.5172ZM393.661 63.199H396.467L401.262 74.9462H401.451L406.246 63.199H409.052V78.3594H406.853V67.4079H406.707L402.268 78.3384H400.446L395.986 67.3869H395.86V78.3594H393.661V63.199ZM416.136 78.5897C412.911 78.5897 410.817 76.2445 410.817 72.7266C410.817 69.1877 412.911 66.8425 416.136 66.8425C419.339 66.8425 421.433 69.1877 421.433 72.7266C421.433 76.2445 419.339 78.5897 416.136 78.5897ZM416.136 76.7261C418.188 76.7261 419.172 74.9043 419.172 72.7266C419.172 70.5488 418.188 68.6852 416.136 68.6852C414.042 68.6852 413.057 70.5488 413.057 72.7266C413.057 74.9043 414.042 76.7261 416.136 76.7261ZM427.805 78.5897C424.58 78.5897 422.486 76.2445 422.486 72.7266C422.486 69.1877 424.58 66.8425 427.805 66.8425C431.009 66.8425 433.103 69.1877 433.103 72.7266C433.103 76.2445 431.009 78.5897 427.805 78.5897ZM427.805 76.7261C429.857 76.7261 430.841 74.9043 430.841 72.7266C430.841 70.5488 429.857 68.6852 427.805 68.6852C425.711 68.6852 424.727 70.5488 424.727 72.7266C424.727 74.9043 425.711 76.7261 427.805 76.7261ZM438.909 78.5897C436.166 78.5897 434.156 76.3701 434.156 72.7056C434.156 68.9993 436.187 66.8425 438.93 66.8425C441.045 66.8425 441.82 68.1198 442.217 68.8318H442.322V63.199H444.563V78.3594H442.385V76.5795H442.217C441.799 77.3333 440.982 78.5897 438.909 78.5897ZM439.411 76.6842C441.317 76.6842 442.385 75.0509 442.385 72.6637C442.385 70.2975 441.338 68.748 439.411 68.748C437.422 68.748 436.438 70.4232 436.438 72.6637C436.438 74.9462 437.464 76.6842 439.411 76.6842ZM448.212 82.6311C447.751 82.6311 447.312 82.6102 447.018 82.5683V80.7046C447.27 80.7256 447.709 80.7465 448.024 80.7465C448.715 80.7465 449.301 80.6837 449.824 79.2598L450.097 78.506L445.93 66.9891H448.317L451.185 75.8047H451.311L454.18 66.9891H456.588L451.897 79.867C451.248 81.6679 450.076 82.6311 448.212 82.6311Z" fill="url(#paint19_linear_2204_4898)" fill-opacity="0.8"/>
<defs>
<linearGradient id="paint0_linear_2204_4898" x1="33.1075" y1="3.63281" x2="95.5781" y2="3.63281" gradientUnits="userSpaceOnUse">
<stop stop-color="#F7F7F7"/>
<stop offset="1" stop-color="#F7F7F7" stop-opacity="0.5"/>
</linearGradient>
<linearGradient id="paint1_linear_2204_4898" x1="151.049" y1="3.63281" x2="194.779" y2="3.63281" gradientUnits="userSpaceOnUse">
<stop stop-color="#F7F7F7"/>
<stop offset="1" stop-color="#F7F7F7" stop-opacity="0.5"/>
</linearGradient>
<linearGradient id="paint2_linear_2204_4898" x1="263.663" y1="3.63281" x2="314.334" y2="3.63281" gradientUnits="userSpaceOnUse">
<stop stop-color="#F7F7F7"/>
<stop offset="1" stop-color="#F7F7F7" stop-opacity="0.5"/>
</linearGradient>
<linearGradient id="paint3_linear_2204_4898" x1="378.29" y1="3.63281" x2="426.184" y2="3.63281" gradientUnits="userSpaceOnUse">
<stop stop-color="#F7F7F7"/>
<stop offset="1" stop-color="#F7F7F7" stop-opacity="0.5"/>
</linearGradient>
<linearGradient id="paint4_linear_2204_4898" x1="27.9449" y1="212.672" x2="86.2508" y2="212.672" gradientUnits="userSpaceOnUse">
<stop stop-color="#F7F7F7"/>
<stop offset="1" stop-color="#F7F7F7" stop-opacity="0.5"/>
</linearGradient>
<linearGradient id="paint5_linear_2204_4898" x1="141.275" y1="212.672" x2="203.052" y2="212.672" gradientUnits="userSpaceOnUse">
<stop stop-color="#F7F7F7"/>
<stop offset="1" stop-color="#F7F7F7" stop-opacity="0.5"/>
</linearGradient>
<linearGradient id="paint6_linear_2204_4898" x1="245.423" y1="212.672" x2="280.129" y2="212.672" gradientUnits="userSpaceOnUse">
<stop stop-color="#F7F7F7"/>
<stop offset="1" stop-color="#F7F7F7" stop-opacity="0.5"/>
</linearGradient>
<linearGradient id="paint7_linear_2204_4898" x1="339.05" y1="212.672" x2="397.356" y2="212.672" gradientUnits="userSpaceOnUse">
<stop stop-color="#F7F7F7"/>
<stop offset="1" stop-color="#F7F7F7" stop-opacity="0.5"/>
</linearGradient>
<linearGradient id="paint8_linear_2204_4898" x1="67.8458" y1="160.414" x2="117.128" y2="160.414" gradientUnits="userSpaceOnUse">
<stop stop-color="#F7F7F7"/>
<stop offset="1" stop-color="#F7F7F7" stop-opacity="0.5"/>
</linearGradient>
<linearGradient id="paint9_linear_2204_4898" x1="181.9" y1="160.414" x2="231.183" y2="160.414" gradientUnits="userSpaceOnUse">
<stop stop-color="#F7F7F7"/>
<stop offset="1" stop-color="#F7F7F7" stop-opacity="0.5"/>
</linearGradient>
<linearGradient id="paint10_linear_2204_4898" x1="296.96" y1="160.414" x2="341.384" y2="160.414" gradientUnits="userSpaceOnUse">
<stop stop-color="#F7F7F7"/>
<stop offset="1" stop-color="#F7F7F7" stop-opacity="0.5"/>
</linearGradient>
<linearGradient id="paint11_linear_2204_4898" x1="409.285" y1="160.414" x2="462.038" y2="160.414" gradientUnits="userSpaceOnUse">
<stop stop-color="#F7F7F7"/>
<stop offset="1" stop-color="#F7F7F7" stop-opacity="0.5"/>
</linearGradient>
<linearGradient id="paint12_linear_2204_4898" x1="38.0075" y1="108.016" x2="76.8781" y2="108.016" gradientUnits="userSpaceOnUse">
<stop stop-color="#F7F7F7"/>
<stop offset="1" stop-color="#F7F7F7" stop-opacity="0.5"/>
</linearGradient>
<linearGradient id="paint13_linear_2204_4898" x1="152.347" y1="108.016" x2="189.829" y2="108.016" gradientUnits="userSpaceOnUse">
<stop stop-color="#F7F7F7"/>
<stop offset="1" stop-color="#F7F7F7" stop-opacity="0.5"/>
</linearGradient>
<linearGradient id="paint14_linear_2204_4898" x1="265.392" y1="108.016" x2="307.734" y2="108.016" gradientUnits="userSpaceOnUse">
<stop stop-color="#F7F7F7"/>
<stop offset="1" stop-color="#F7F7F7" stop-opacity="0.5"/>
</linearGradient>
<linearGradient id="paint15_linear_2204_4898" x1="379.155" y1="108.016" x2="422.884" y2="108.016" gradientUnits="userSpaceOnUse">
<stop stop-color="#F7F7F7"/>
<stop offset="1" stop-color="#F7F7F7" stop-opacity="0.5"/>
</linearGradient>
<linearGradient id="paint16_linear_2204_4898" x1="69.311" y1="55.3594" x2="106.099" y2="55.3594" gradientUnits="userSpaceOnUse">
<stop stop-color="#F7F7F7"/>
<stop offset="1" stop-color="#F7F7F7" stop-opacity="0.5"/>
</linearGradient>
<linearGradient id="paint17_linear_2204_4898" x1="182.554" y1="55.3594" x2="221.425" y2="55.3594" gradientUnits="userSpaceOnUse">
<stop stop-color="#F7F7F7"/>
<stop offset="1" stop-color="#F7F7F7" stop-opacity="0.5"/>
</linearGradient>
<linearGradient id="paint18_linear_2204_4898" x1="292.426" y1="55.3594" x2="351.426" y2="55.3594" gradientUnits="userSpaceOnUse">
<stop stop-color="#F7F7F7"/>
<stop offset="1" stop-color="#F7F7F7" stop-opacity="0.5"/>
</linearGradient>
<linearGradient id="paint19_linear_2204_4898" x1="407.489" y1="55.3594" x2="461.63" y2="55.3594" gradientUnits="userSpaceOnUse">
<stop stop-color="#F7F7F7"/>
<stop offset="1" stop-color="#F7F7F7" stop-opacity="0.5"/>
</linearGradient>
</defs>
</svg>
