<svg width="52" height="37" viewBox="0 0 52 37" fill="none" xmlns="http://www.w3.org/2000/svg">
<g filter="url(#filter0_d_10781_47058)" data-figma-bg-blur-radius="20">
<rect x="4" width="44" height="29" rx="14.5" fill="#64676D" fill-opacity="0.8" shape-rendering="crispEdges"/>
<rect x="4" width="44" height="29" rx="14.5" fill="#212224" fill-opacity="0.8" shape-rendering="crispEdges"/>
<rect x="23.0977" y="21.4663" width="16.8585" height="6.80419" rx="2.28813" transform="rotate(-70.6386 23.0977 21.4663)" fill="#FAFAFA"/>
<rect x="25.1313" y="17.0331" width="7.51319" height="3.03236" rx="1.01973" transform="rotate(-70.6386 25.1313 17.0331)" fill="#212224"/>
<rect x="29.1035" y="11.8467" width="2.0668" height="0.834173" rx="0.280518" transform="rotate(19.3614 29.1035 11.8467)" fill="#FAFAFA"/>
<rect x="16" y="21.1834" width="16.8585" height="6.80419" rx="2.28813" transform="rotate(-70.6386 16 21.1834)" fill="#FAFAFA"/>
<rect x="18.0337" y="16.7494" width="7.51319" height="3.03236" rx="1.01973" transform="rotate(-70.6386 18.0337 16.7494)" fill="#212224"/>
<rect x="22.0059" y="11.563" width="2.0668" height="0.834173" rx="0.280518" transform="rotate(19.3614 22.0059 11.563)" fill="#FAFAFA"/>
</g>
<defs>
<filter id="filter0_d_10781_47058" x="-16" y="-20" width="84" height="69" filterUnits="userSpaceOnUse" color-interpolation-filters="sRGB">
<feFlood flood-opacity="0" result="BackgroundImageFix"/>
<feColorMatrix in="SourceAlpha" type="matrix" values="0 0 0 0 0 0 0 0 0 0 0 0 0 0 0 0 0 0 127 0" result="hardAlpha"/>
<feOffset dy="4"/>
<feGaussianBlur stdDeviation="2"/>
<feComposite in2="hardAlpha" operator="out"/>
<feColorMatrix type="matrix" values="0 0 0 0 0.0705882 0 0 0 0 0.0705882 0 0 0 0 0.0705882 0 0 0 0.15 0"/>
<feBlend mode="normal" in2="BackgroundImageFix" result="effect1_dropShadow_10781_47058"/>
<feBlend mode="normal" in="SourceGraphic" in2="effect1_dropShadow_10781_47058" result="shape"/>
</filter>
<clipPath id="bgblur_0_10781_47058_clip_path" transform="translate(16 20)"><rect x="4" width="44" height="29" rx="14.5"/>
</clipPath></defs>
</svg>
