<svg width="137" height="36" viewBox="0 0 137 36" fill="none" xmlns="http://www.w3.org/2000/svg">
<rect y="2" width="101.308" height="32" rx="16" fill="#F7F7F7" fill-opacity="0.8"/>
<path d="M7.78125 21.5V14.4297H10.1836C11.8438 14.4297 12.5957 15.3477 12.5957 16.6074C12.5957 17.54 12.1758 18.2773 11.2773 18.5898L12.8691 21.5H11.8438L10.3691 18.7461L10.1934 18.7559H8.66016V21.5H7.78125ZM8.66016 17.9551H10.1543C11.2773 17.9551 11.7266 17.4473 11.7266 16.6074C11.7266 15.7578 11.2773 15.2109 10.1445 15.2109H8.66016V17.9551ZM15.6758 21.6074C14.1426 21.6074 13.1953 20.5234 13.1953 18.8926C13.1953 17.2617 14.1523 16.1289 15.5977 16.1289C16.7109 16.1289 17.8828 16.8125 17.8828 18.7754V19.127H14.0352C14.0742 20.25 14.7285 20.8652 15.6758 20.8652C16.3105 20.8652 16.7109 20.5918 16.9062 20.2598H17.8047C17.5508 21.0605 16.7695 21.6074 15.6758 21.6074ZM14.0449 18.4141H17.0332C17.0332 17.5254 16.4668 16.8711 15.5977 16.8711C14.6797 16.8711 14.0938 17.5938 14.0449 18.4141ZM18.4727 19.9961C18.4727 18.7754 19.5469 18.502 20.4648 18.4336C20.8018 18.4092 21.6611 18.3652 21.9004 18.3555V17.9258C21.9004 17.252 21.5 16.8613 20.6992 16.8613C20.0254 16.8613 19.625 17.1738 19.5078 17.5742H18.6289C18.7363 16.7246 19.5664 16.1289 20.7383 16.1289C21.4316 16.1289 22.7305 16.334 22.7305 18.0039V21.5H21.9004V20.7773H21.8613C21.6855 21.1387 21.1973 21.627 20.2793 21.627C19.2734 21.627 18.4727 21.0312 18.4727 19.9961ZM19.3125 20.0352C19.3125 20.5918 19.7812 20.875 20.4258 20.875C21.373 20.875 21.9004 20.2402 21.9004 19.5762V19.0391L20.5625 19.1367C19.8008 19.1855 19.3125 19.459 19.3125 20.0352ZM25.9961 21.6074C24.4922 21.6074 23.5742 20.4648 23.5742 18.873C23.5742 17.2617 24.5312 16.1289 25.9766 16.1289C27.1094 16.1289 27.9492 16.793 28.0859 17.7988H27.2461C27.1289 17.3105 26.6992 16.8711 25.9961 16.8711C25.0488 16.8711 24.4141 17.6523 24.4141 18.8438C24.4141 20.0742 25.0293 20.8555 25.9961 20.8555C26.6211 20.8555 27.0996 20.5234 27.2461 19.9375H28.0859C27.9492 20.8848 27.1777 21.6074 25.9961 21.6074ZM31.1855 16.1973V16.9004H30.0723V19.9766C30.0723 20.6602 30.4043 20.7676 30.7656 20.7676C30.9219 20.7676 31.1367 20.7578 31.2637 20.748V21.5293C31.1367 21.5488 30.9219 21.5684 30.6777 21.5684C29.9746 21.5684 29.2227 21.1289 29.2227 20.1914V16.9004H28.4219V16.1973H29.2227V14.9277H30.0723V16.1973H31.1855Z" fill="#212224"/>
<g clip-path="url(#clip0_340_8323)">
<rect x="43.7695" y="25.6719" width="17.3665" height="7.00922" rx="2.35708" transform="rotate(-70.6386 43.7695 25.6719)" fill="white"/>
<rect x="45.8672" y="21.1094" width="7.73958" height="3.12374" rx="1.05046" transform="rotate(-70.6386 45.8672 21.1094)" fill="#212224"/>
<rect x="49.957" y="15.7656" width="2.12908" height="0.859309" rx="0.288971" transform="rotate(19.3614 49.957 15.7656)" fill="white"/>
<rect x="36.457" y="25.3828" width="17.3665" height="7.00922" rx="2.35708" transform="rotate(-70.6386 36.457 25.3828)" fill="white"/>
<rect x="38.5547" y="20.8203" width="7.73958" height="3.12374" rx="1.05046" transform="rotate(-70.6386 38.5547 20.8203)" fill="#212224"/>
<rect x="42.6445" y="15.4766" width="2.12908" height="0.859309" rx="0.288971" transform="rotate(19.3614 42.6445 15.4766)" fill="white"/>
</g>
<path d="M62 18H65.9993" stroke="#75787E" stroke-width="0.464741"/>
<path d="M64 16V19.9993" stroke="#75787E" stroke-width="0.464741"/>
<path d="M72.1641 14.4297V21.5H71.2754V15.3477H71.2363L69.5176 16.4902V15.6016L71.2754 14.4297H72.1641ZM76.2402 21.5977C74.834 21.5977 73.8281 20.8457 73.7793 19.7227H74.668C74.7168 20.3965 75.3906 20.8164 76.2305 20.8164C77.1582 20.8164 77.8418 20.3086 77.8418 19.5762C77.8418 18.8047 77.2266 18.2578 76.123 18.2578H75.5469V17.4863H76.123C76.9824 17.4863 77.5781 17.0078 77.5781 16.2754C77.5781 15.5723 77.0605 15.0938 76.2598 15.0938C75.5078 15.0938 74.8145 15.5137 74.7754 16.207H73.9258C73.9746 15.084 75.0098 14.332 76.2695 14.332C77.6172 14.332 78.4375 15.2109 78.4277 16.2266C78.4375 17.0273 77.9688 17.623 77.2266 17.8281V17.877C78.1445 18.0234 78.7109 18.6777 78.7012 19.5762C78.7109 20.7383 77.6465 21.5977 76.2402 21.5977Z" fill="#75787E"/>
<path d="M86.6289 14.409L89.4439 17.2215C89.7764 17.5538 89.7764 18.0974 89.4439 18.4297L86.6289 21.2422" stroke="#75787E" stroke-width="0.8" stroke-miterlimit="10" stroke-linecap="round"/>
<g clip-path="url(#clip1_340_8323)">
<rect x="102.383" y="18" width="25.3481" height="25.3481" rx="7.9828" transform="rotate(-45 102.383 18)" fill="#FAFAFA" fill-opacity="0.8"/>
<path d="M114.625 10.7294C114.625 10.3936 114.88 10.1331 115.215 10.133C117.159 10.1325 123.351 10.1331 125.357 10.1333C125.711 10.1333 125.991 10.4198 125.991 10.7733V24.8232C125.991 25.3736 125.342 25.6673 124.929 25.304L120.714 21.6008C120.472 21.3881 120.109 21.3886 119.868 21.6022L115.689 25.2967C115.276 25.6619 114.625 25.3686 114.625 24.8173V10.7294Z" fill="#212224"/>
</g>
<defs>
<clipPath id="clip0_340_8323">
<rect width="20" height="20" fill="white" transform="translate(36 8)"/>
</clipPath>
<clipPath id="clip1_340_8323">
<rect width="32" height="32" fill="white" transform="translate(104.309 2)"/>
</clipPath>
</defs>
</svg>
