<svg width="73" height="37" viewBox="0 0 73 37" fill="none" xmlns="http://www.w3.org/2000/svg">
<g filter="url(#filter0_d_10781_47057)" data-figma-bg-blur-radius="20">
<rect x="4" width="65" height="29" rx="14.5" fill="#64676D" fill-opacity="0.8" shape-rendering="crispEdges"/>
<rect x="4" width="65" height="29" rx="14.5" fill="#212224" fill-opacity="0.8" shape-rendering="crispEdges"/>
<g clip-path="url(#clip1_10781_47057)">
<path d="M23.9359 7.93091C24.2214 7.93091 24.4533 8.16208 24.4535 8.44751V8.59204C24.4535 11.9389 27.1663 14.6525 30.5131 14.6526C30.7799 14.6526 30.9956 14.8592 31.014 15.1213H31.0179V15.9026H31.014C30.9955 16.1646 30.7798 16.3713 30.5131 16.3713C27.1663 16.3714 24.4535 19.0851 24.4535 22.4319V22.5764C24.4533 22.8618 24.2213 23.093 23.9359 23.093H23.2523C22.967 23.0929 22.7359 22.8617 22.7357 22.5764V22.4319C22.7357 19.085 20.0221 16.3713 16.6752 16.3713C16.4085 16.3712 16.1927 16.1646 16.1742 15.9026H16.1703V15.1213H16.1742C16.1928 14.8594 16.4085 14.6527 16.6752 14.6526C20.0221 14.6526 22.7357 11.9389 22.7357 8.59204V8.44849C22.7357 8.16297 22.9668 7.93095 23.2523 7.93091H23.9359Z" fill="#FAFAFA"/>
<path d="M32.5063 5.90662C32.6472 5.90662 32.7622 6.02068 32.7622 6.1615V6.23279C32.7622 7.88391 34.1003 9.22205 35.7515 9.22205C35.8829 9.2221 35.9892 9.3244 35.9985 9.45349H36.0005V9.83923H35.9985C35.9892 9.96832 35.8829 10.0706 35.7515 10.0707C34.1003 10.0707 32.7622 11.4088 32.7622 13.0599V13.1312C32.7622 13.272 32.6472 13.3861 32.5063 13.3861H32.1694C32.0286 13.3861 31.9146 13.272 31.9146 13.1312V13.0599C31.9145 11.4088 30.5754 10.0707 28.9243 10.0707C28.7929 10.0705 28.6865 9.96827 28.6772 9.83923H28.6743V9.47205C28.6743 9.46922 28.6752 9.46606 28.6753 9.46326V9.45349H28.6763C28.6856 9.32442 28.7929 9.22302 28.9243 9.22302C30.5753 9.22281 31.9136 7.88378 31.9136 6.23279V6.1615C31.9137 6.0208 32.0277 5.9067 32.1685 5.90662H32.5063Z" fill="#B9BDC2"/>
</g>
<path d="M40.9297 19L40.916 18.0977L44.293 14.543C45.4688 13.2988 46.0293 12.6289 46.0293 11.7129C46.0293 10.7012 45.168 10.0312 44.0605 10.0312C42.8848 10.0312 42.1328 10.7832 42.1328 11.8906H40.9707C40.957 10.1406 42.3105 8.96484 44.1016 8.96484C45.8926 8.96484 47.1777 10.168 47.1777 11.7129C47.1777 12.8203 46.6582 13.6816 44.9082 15.4863L42.6387 17.8242V17.9062H47.3555V19H40.9297ZM52.0367 19.1367C49.8355 19.1367 48.5777 17.291 48.5777 14.0508C48.5777 10.8379 49.8629 8.96484 52.0367 8.96484C54.2105 8.96484 55.4957 10.8379 55.4957 14.0508C55.4957 17.291 54.2242 19.1367 52.0367 19.1367ZM52.0367 18.043C53.4586 18.043 54.2926 16.6074 54.2926 14.0508C54.2926 11.4941 53.4586 10.0312 52.0367 10.0312C50.6148 10.0312 49.7672 11.4941 49.7672 14.0508C49.7672 16.6074 50.6012 18.043 52.0367 18.043Z" fill="#FAFAFA"/>
</g>
<defs>
<filter id="filter0_d_10781_47057" x="-16" y="-20" width="105" height="69" filterUnits="userSpaceOnUse" color-interpolation-filters="sRGB">
<feFlood flood-opacity="0" result="BackgroundImageFix"/>
<feColorMatrix in="SourceAlpha" type="matrix" values="0 0 0 0 0 0 0 0 0 0 0 0 0 0 0 0 0 0 127 0" result="hardAlpha"/>
<feOffset dy="4"/>
<feGaussianBlur stdDeviation="2"/>
<feComposite in2="hardAlpha" operator="out"/>
<feColorMatrix type="matrix" values="0 0 0 0 0.0705882 0 0 0 0 0.0705882 0 0 0 0 0.0705882 0 0 0 0.15 0"/>
<feBlend mode="normal" in2="BackgroundImageFix" result="effect1_dropShadow_10781_47057"/>
<feBlend mode="normal" in="SourceGraphic" in2="effect1_dropShadow_10781_47057" result="shape"/>
</filter>
<clipPath id="bgblur_0_10781_47057_clip_path" transform="translate(16 20)"><rect x="4" width="65" height="29" rx="14.5"/>
</clipPath><clipPath id="clip1_10781_47057">
<rect width="20" height="20" fill="white" transform="translate(16 4.5)"/>
</clipPath>
</defs>
</svg>
