<svg width="67" height="7" viewBox="0 0 67 7" fill="none" xmlns="http://www.w3.org/2000/svg">
<path d="M0.670655 5.18091H3.65662L3.58961 5.52344H0.000488137L0.0600585 5.25537L2.72583 3.0736C3.11304 2.7559 3.37863 2.48286 3.52259 2.25451C3.67151 2.02616 3.74598 1.78291 3.74598 1.52477C3.74598 1.24181 3.64421 1.02091 3.44068 0.862053C3.24211 0.698234 2.9393 0.616325 2.53223 0.616325C2.23934 0.616325 1.95887 0.670931 1.6908 0.780144C1.42273 0.884392 1.19934 1.03332 1.02063 1.22692L0.752565 0.996086C0.966025 0.767733 1.23161 0.591504 1.54932 0.467399C1.87199 0.33833 2.21452 0.273795 2.57691 0.273795C3.07829 0.273795 3.46054 0.383007 3.72364 0.601432C3.99171 0.819857 4.12574 1.11274 4.12574 1.4801C4.12574 1.78788 4.04135 2.08325 3.87256 2.36621C3.70378 2.6442 3.40841 2.95446 2.98646 3.29699L0.670655 5.18091ZM6.36388 5.56067C5.8476 5.56067 5.44302 5.39685 5.15013 5.06921C4.86221 4.74158 4.71824 4.28487 4.71824 3.69909C4.71824 3.10835 4.82497 2.55236 5.03843 2.03112C5.25189 1.50492 5.55471 1.08048 5.94688 0.757805C6.33906 0.435132 6.79328 0.273795 7.30956 0.273795C7.82583 0.273795 8.22793 0.437614 8.51586 0.765251C8.80378 1.09289 8.94774 1.54959 8.94774 2.13537C8.94774 2.72611 8.84101 3.28458 8.62755 3.81079C8.41906 4.33203 8.11872 4.75399 7.72655 5.07666C7.33438 5.39933 6.88015 5.56067 6.36388 5.56067ZM6.40111 5.21069C6.83796 5.21069 7.2202 5.05928 7.54784 4.75647C7.88044 4.45365 8.13361 4.06644 8.30736 3.59485C8.48607 3.12325 8.57543 2.63924 8.57543 2.14282C8.57543 1.65632 8.46125 1.28153 8.2329 1.01843C8.00454 0.755322 7.68435 0.623771 7.27232 0.623771C6.83051 0.623771 6.44579 0.775179 6.11815 1.078C5.79051 1.38081 5.53734 1.76802 5.35863 2.23962C5.18488 2.71122 5.098 3.19523 5.098 3.69165C5.098 4.17814 5.2097 4.55294 5.43309 4.81604C5.66144 5.07914 5.98411 5.21069 6.40111 5.21069ZM9.73129 5.18091H12.7173L12.6502 5.52344H9.06112L9.12069 5.25537L11.7865 3.0736C12.1737 2.7559 12.4393 2.48286 12.5832 2.25451C12.7322 2.02616 12.8066 1.78291 12.8066 1.52477C12.8066 1.24181 12.7048 1.02091 12.5013 0.862053C12.3027 0.698234 11.9999 0.616325 11.5929 0.616325C11.3 0.616325 11.0195 0.670931 10.7514 0.780144C10.4834 0.884392 10.26 1.03332 10.0813 1.22692L9.8132 0.996086C10.0267 0.767733 10.2922 0.591504 10.61 0.467399C10.9326 0.33833 11.2752 0.273795 11.6375 0.273795C12.1389 0.273795 12.5212 0.383007 12.7843 0.601432C13.0523 0.819857 13.1864 1.11274 13.1864 1.4801C13.1864 1.78788 13.102 2.08325 12.9332 2.36621C12.7644 2.6442 12.469 2.95446 12.0471 3.29699L9.73129 5.18091ZM15.0887 0.653556L14.5154 2.49279H15.26C15.8954 2.49279 16.367 2.61193 16.6748 2.85022C16.9826 3.08353 17.1365 3.41365 17.1365 3.84057C17.1365 4.18807 17.0521 4.49088 16.8833 4.74902C16.7145 5.00716 16.4737 5.20821 16.161 5.35217C15.8483 5.49117 15.4834 5.56067 15.0664 5.56067C14.6693 5.56067 14.3143 5.49862 14.0016 5.37451C13.6938 5.24544 13.463 5.0717 13.3091 4.85327L13.5399 4.57031C13.669 4.76391 13.87 4.92029 14.143 5.03943C14.4161 5.1536 14.7338 5.21069 15.0962 5.21069C15.6174 5.21069 16.0245 5.09403 16.3174 4.86072C16.6103 4.62244 16.7567 4.2948 16.7567 3.8778C16.7567 3.54024 16.6326 3.2821 16.3844 3.10339C16.1362 2.92468 15.739 2.83532 15.193 2.83532H14.0388L14.8132 0.311026H17.5758L17.5088 0.653556H15.0887ZM17.9006 5.55322C17.8162 5.55322 17.7442 5.52344 17.6846 5.46387C17.6251 5.4043 17.5953 5.33232 17.5953 5.24792C17.5953 5.1536 17.6276 5.07666 17.6921 5.01709C17.7566 4.95255 17.8336 4.92029 17.9229 4.92029C18.0073 4.92029 18.0793 4.95007 18.1389 5.00964C18.1984 5.06921 18.2282 5.14119 18.2282 5.22559C18.2282 5.31494 18.196 5.39189 18.1314 5.45642C18.0669 5.52096 17.9899 5.55322 17.9006 5.55322ZM21.2846 0.311026L20.2421 5.52344H19.8623L20.8378 0.653556H19.5645L19.6315 0.311026H21.2846ZM23.9097 0.311026L22.8672 5.52344H22.4874L23.4629 0.653556H22.1896L22.2566 0.311026H23.9097ZM24.5615 5.55322C24.4771 5.55322 24.4052 5.52344 24.3456 5.46387C24.286 5.4043 24.2562 5.33232 24.2562 5.24792C24.2562 5.1536 24.2885 5.07666 24.353 5.01709C24.4176 4.95255 24.4945 4.92029 24.5839 4.92029C24.6683 4.92029 24.7402 4.95007 24.7998 5.00964C24.8594 5.06921 24.8892 5.14119 24.8892 5.22559C24.8892 5.31494 24.8569 5.39189 24.7924 5.45642C24.7278 5.52096 24.6509 5.55322 24.5615 5.55322ZM26.3037 5.18091H29.2896L29.2226 5.52344H25.6335L25.6931 5.25537L28.3589 3.0736C28.7461 2.7559 29.0116 2.48286 29.1556 2.25451C29.3045 2.02616 29.379 1.78291 29.379 1.52477C29.379 1.24181 29.2772 1.02091 29.0737 0.862053C28.8751 0.698234 28.5723 0.616325 28.1652 0.616325C27.8724 0.616325 27.5919 0.670931 27.3238 0.780144C27.0558 0.884392 26.8324 1.03332 26.6536 1.22692L26.3856 0.996086C26.599 0.767733 26.8646 0.591504 27.1823 0.467399C27.505 0.33833 27.8475 0.273795 28.2099 0.273795C28.7113 0.273795 29.0936 0.383007 29.3567 0.601432C29.6247 0.819857 29.7588 1.11274 29.7588 1.4801C29.7588 1.78788 29.6744 2.08325 29.5056 2.36621C29.3368 2.6442 29.0414 2.95446 28.6195 3.29699L26.3037 5.18091ZM34.3837 4.07886H33.2891L32.9987 5.52344H32.619L32.9094 4.07886H29.9457L29.9979 3.80334L33.4902 0.311026H33.9444L30.5191 3.74377H32.9838L33.2444 2.47045H33.6093L33.3561 3.74377H34.4507L34.3837 4.07886ZM41.9552 -0.00171815H42.3051L40.9127 6.96802H40.5627L41.9552 -0.00171815ZM50.3436 5.56067C49.8273 5.56067 49.4227 5.39685 49.1298 5.06921C48.8419 4.74158 48.698 4.28487 48.698 3.69909C48.698 3.10835 48.8047 2.55236 49.0182 2.03112C49.2316 1.50492 49.5344 1.08048 49.9266 0.757805C50.3188 0.435132 50.773 0.273795 51.2893 0.273795C51.8056 0.273795 52.2077 0.437614 52.4956 0.765251C52.7835 1.09289 52.9275 1.54959 52.9275 2.13537C52.9275 2.72611 52.8207 3.28458 52.6073 3.81079C52.3988 4.33203 52.0984 4.75399 51.7063 5.07666C51.3141 5.39933 50.8599 5.56067 50.3436 5.56067ZM50.3808 5.21069C50.8177 5.21069 51.1999 5.05928 51.5276 4.75647C51.8602 4.45365 52.1133 4.06644 52.2871 3.59485C52.4658 3.12325 52.5551 2.63924 52.5551 2.14282C52.5551 1.65632 52.441 1.28153 52.2126 1.01843C51.9843 0.755322 51.6641 0.623771 51.252 0.623771C50.8102 0.623771 50.4255 0.775179 50.0979 1.078C49.7702 1.38081 49.5171 1.76802 49.3383 2.23962C49.1646 2.71122 49.0777 3.19523 49.0777 3.69165C49.0777 4.17814 49.1894 4.55294 49.4128 4.81604C49.6412 5.07914 49.9638 5.21069 50.3808 5.21069ZM55.5575 0.273795C56.1234 0.273795 56.5752 0.447542 56.9127 0.795036C57.2503 1.13757 57.4191 1.63647 57.4191 2.29174C57.4191 2.83284 57.3223 3.3516 57.1287 3.84802C56.94 4.34444 56.6347 4.75399 56.2128 5.07666C55.7908 5.39933 55.2547 5.56067 54.6044 5.56067C54.103 5.56067 53.7034 5.46883 53.4055 5.28516L53.5917 4.97241C53.8498 5.14119 54.1973 5.22559 54.6342 5.22559C55.1703 5.22559 55.6146 5.09155 55.9671 4.82349C56.3195 4.55542 56.5801 4.21289 56.7489 3.7959C56.9177 3.3789 57.0095 2.93709 57.0244 2.47045C56.8705 2.7832 56.6447 3.01652 56.3468 3.17041C56.0539 3.31933 55.7288 3.3938 55.3714 3.3938C55.0536 3.3938 54.7682 3.33671 54.515 3.22253C54.2668 3.10835 54.0707 2.94205 53.9268 2.72363C53.7828 2.5052 53.7108 2.24458 53.7108 1.94177C53.7108 1.6042 53.7878 1.30883 53.9417 1.05566C54.1005 0.802483 54.3189 0.608879 54.5969 0.474845C54.8799 0.340812 55.2001 0.273795 55.5575 0.273795ZM55.4384 3.06616C55.7362 3.06616 55.9993 3.00907 56.2277 2.89489C56.461 2.78072 56.6397 2.62434 56.7638 2.42578C56.8929 2.22721 56.9574 2.00878 56.9574 1.7705C56.9574 1.57193 56.9028 1.38329 56.7936 1.20458C56.6894 1.02587 56.5305 0.88191 56.317 0.772697C56.1085 0.658521 55.8554 0.601432 55.5575 0.601432C55.1157 0.601432 54.7608 0.720573 54.4927 0.958855C54.2296 1.19217 54.098 1.50988 54.098 1.91198C54.098 2.27437 54.2197 2.55733 54.4629 2.76086C54.7111 2.96439 55.0363 3.06616 55.4384 3.06616ZM58.6817 2.23962C58.5973 2.23962 58.5253 2.20983 58.4658 2.15026C58.4062 2.09069 58.3764 2.01871 58.3764 1.93432C58.3764 1.84 58.4087 1.76306 58.4732 1.70349C58.5377 1.63895 58.6147 1.60668 58.704 1.60668C58.7884 1.60668 58.8604 1.63647 58.92 1.69604C58.9796 1.75561 59.0093 1.82759 59.0093 1.91198C59.0093 2.00134 58.9771 2.07828 58.9125 2.14282C58.848 2.20735 58.7711 2.23962 58.6817 2.23962ZM58.019 5.55322C57.9346 5.55322 57.8626 5.52344 57.803 5.46387C57.7435 5.4043 57.7137 5.33232 57.7137 5.24792C57.7137 5.1536 57.746 5.07666 57.8105 5.01709C57.875 4.95255 57.952 4.92029 58.0413 4.92029C58.1257 4.92029 58.1977 4.95007 58.2573 5.00964C58.3168 5.06921 58.3466 5.14119 58.3466 5.22559C58.3466 5.31494 58.3144 5.39189 58.2498 5.45642C58.1853 5.52096 58.1083 5.55322 58.019 5.55322ZM63.769 4.07886H62.6744L62.384 5.52344H62.0042L62.2946 4.07886H59.331L59.3831 3.80334L62.8754 0.311026H63.3297L59.9044 3.74377H62.3691L62.6297 2.47045H62.9946L62.7414 3.74377H63.836L63.769 4.07886ZM66.166 0.311026L65.1235 5.52344H64.7437L65.7192 0.653556H64.4459L64.5129 0.311026H66.166Z" fill="white"/>
</svg>
