<svg width="48" height="48" viewBox="0 0 48 48" fill="none" xmlns="http://www.w3.org/2000/svg">
<path d="M17.8457 5.6084C18.5051 5.6085 19.1215 5.93511 19.4922 6.48047L20.9336 8.60156C21.0453 8.76603 21.1277 8.93827 21.1846 9.11328H42.0117C43.1114 9.11328 44.0027 10.0049 44.0029 11.1045V40.3975C44.0029 41.4973 43.1115 42.3887 42.0117 42.3887H5.99121C4.89148 42.3886 4 41.4972 4 40.3975V11.1045C4.00003 10.965 4.01369 10.8287 4.04102 10.6973C4.01438 10.5674 4 10.4329 4 10.2949V7.59961C4.00008 6.49987 4.89145 5.60841 5.99121 5.6084H17.8457Z" fill="#75787E"/>
<path d="M17.377 17.2892C17.377 16.8763 17.69 16.5559 18.1029 16.5559C20.3963 16.5553 27.4732 16.556 29.8417 16.5562C30.2762 16.5563 30.623 16.9086 30.623 17.3431V33.5847C30.623 34.2615 29.8252 34.6226 29.3167 34.1759L24.5 29.9442C24.2022 29.6826 23.7563 29.6833 23.4594 29.9458L18.6851 34.1669C18.1772 34.616 17.377 34.2554 17.377 33.5774V17.2892Z" fill="#212224"/>
</svg>
