<svg width="54" height="54" viewBox="0 0 54 54" fill="none" xmlns="http://www.w3.org/2000/svg">
<circle cx="27" cy="27" r="27" fill="#75787E"/>
<path fill-rule="evenodd" clip-rule="evenodd" d="M27.5239 15C35.3698 15 39.8852 18.5935 42.4517 22.7031C44.9977 26.7802 45.6121 31.3365 45.7622 33.3076C45.8282 34.1741 45.1281 34.835 44.311 34.835H36.2642C35.432 34.8349 34.7882 34.1716 34.6929 33.4014C34.5585 32.3154 34.1785 30.5366 33.1265 29.041C32.0936 27.5727 30.3949 26.3477 27.5239 26.3477C24.64 26.3478 22.9015 27.5845 21.8267 29.0674C20.7336 30.5756 20.3118 32.3647 20.1528 33.4424C20.0414 34.197 19.4031 34.8348 18.5874 34.835H10.4556C9.62964 34.8348 8.92537 34.1602 9.00636 33.2852C9.1899 31.3037 9.8818 26.7527 12.4927 22.6836C15.1232 18.5841 19.6891 15.0001 27.5239 15ZM27.2329 22.7734C24.496 22.7735 22.4959 23.4701 21.0259 24.4873C19.5522 25.5071 18.579 26.8718 17.936 28.2539C17.2922 29.6379 16.9848 31.0286 16.8394 32.0781C16.7669 32.6014 16.7349 33.0364 16.7212 33.3389C16.7144 33.4898 16.7121 33.6078 16.7114 33.6865V33.7959L16.7124 33.7998C16.7127 33.8117 16.71 33.8233 16.7095 33.835H18.5874C18.8553 33.8347 19.1168 33.6133 19.1636 33.2959C19.3328 32.1488 19.7869 30.1767 21.0161 28.4805C22.2636 26.7591 24.294 25.3478 27.5239 25.3477C30.741 25.3477 32.7367 26.7483 33.9448 28.4658C35.1337 30.1561 35.5421 32.124 35.6851 33.2793C35.7255 33.6049 35.992 33.8349 36.2642 33.835H38.0415C38.0412 33.8275 38.0396 33.82 38.0396 33.8125V33.7871C38.0393 33.768 38.0379 33.7385 38.0366 33.6992C38.0341 33.6205 38.0296 33.5027 38.0191 33.3516C37.9979 33.0491 37.9552 32.6135 37.8696 32.0898C37.6982 31.0401 37.356 29.6482 36.6773 28.2627C35.9993 26.879 34.9907 25.5122 33.4888 24.4902C31.9902 23.4706 29.9699 22.7734 27.2329 22.7734ZM27.5239 16C20.0618 16.0001 15.7991 19.3827 13.3345 23.2236C10.8505 27.0949 10.1802 31.4585 10.0025 33.377C9.98051 33.6139 10.1649 33.8348 10.4556 33.835H12.3638C12.3638 33.8198 12.3636 33.8036 12.3638 33.7861C12.3647 33.6687 12.3679 33.4983 12.3775 33.2832C12.3966 32.8531 12.4415 32.2412 12.5415 31.5088C12.7412 30.0467 13.1651 28.0888 14.0659 26.124C14.9677 24.1572 16.3534 22.1709 18.48 20.6777C20.6106 19.1819 23.4533 18.2031 27.228 18.2031C31.003 18.2031 33.867 19.1821 36.0308 20.6758C38.1905 22.1666 39.6229 24.1492 40.5718 26.1143C41.5199 28.0777 41.9917 30.0351 42.2271 31.4971C42.3449 32.229 42.4034 32.8405 42.4331 33.2705C42.448 33.4856 42.4557 33.656 42.4595 33.7734C42.4602 33.7959 42.4601 33.8164 42.4605 33.835H44.311C44.5985 33.835 44.783 33.6186 44.7651 33.3838C44.6198 31.4754 44.0232 27.109 41.603 23.2334C39.2028 19.3899 34.995 16 27.5239 16ZM27.228 19.2031C23.6352 19.2031 20.9982 20.1312 19.0542 21.4961C17.1064 22.8637 15.8222 24.6925 14.9751 26.54C14.1272 28.3894 13.7228 30.2459 13.5317 31.6445C13.4365 32.3423 13.3945 32.9229 13.3765 33.3271C13.3675 33.5292 13.3646 33.6879 13.3638 33.7939C13.3637 33.8086 13.3638 33.8223 13.3638 33.835H15.7134C15.7132 33.8317 15.7125 33.8285 15.7124 33.8252L16.2124 33.8125L15.7124 33.8242V33.8125C15.7123 33.8057 15.7115 33.7962 15.7114 33.7842C15.7112 33.7596 15.7111 33.7239 15.7114 33.6787C15.7122 33.5884 15.7147 33.4582 15.7222 33.2939C15.7371 32.9654 15.7718 32.4987 15.8491 31.9404C16.0035 30.8264 16.3318 29.3325 17.0298 27.832C17.7288 26.3295 18.8039 24.8087 20.4566 23.665C22.1128 22.5189 24.317 21.7735 27.2329 21.7734C30.1491 21.7734 32.3699 22.5191 34.0513 23.6631C35.7288 24.8045 36.8404 26.3224 37.5757 27.8232C38.31 29.3221 38.6741 30.815 38.856 31.9287C38.9471 32.4868 38.9931 32.9537 39.0161 33.2822C39.0276 33.4464 39.0337 33.5768 39.0366 33.667C39.0381 33.7119 39.0392 33.747 39.0396 33.7715V33.8115C39.0396 33.8119 39.0396 33.8125 38.5396 33.8125H39.0396C39.0396 33.82 39.0379 33.8275 39.0376 33.835H41.4605C41.4602 33.8257 41.4598 33.8159 41.4595 33.8057C41.4561 33.6996 41.45 33.5419 41.436 33.3398C41.4082 32.9355 41.3521 32.3545 41.2398 31.6562C41.0146 30.2575 40.565 28.4005 39.6714 26.5498C38.7784 24.7005 37.447 22.869 35.4624 21.499C33.4819 20.1319 30.8206 19.2031 27.228 19.2031Z" fill="#FAFAFA"/>
</svg>
