<svg width="160" height="160" viewBox="0 0 160 160" fill="none" xmlns="http://www.w3.org/2000/svg">
<path d="M84.7979 0C126.33 0 160 33.6686 160 75.2012V84.7979C160 126.331 126.331 160 84.7979 160H75.2012C33.6686 160 0 126.33 0 84.7979V75.2012C0.000111669 33.6687 33.6687 0.00014928 75.2012 0H84.7979ZM106.146 26.2461C91.6522 11.7528 68.1535 11.7528 53.6602 26.2461L26.2422 53.6641C11.749 68.1574 11.7489 91.6561 26.2422 106.149L53.6602 133.567C68.1534 148.061 91.6522 148.061 106.146 133.567L133.563 106.149C148.057 91.6561 148.057 68.1574 133.563 53.6641L106.146 26.2461Z" fill="#FAFAFA"/>
</svg>
