<svg width="54" height="54" viewBox="0 0 54 54" fill="none" xmlns="http://www.w3.org/2000/svg">
<circle cx="27" cy="27" r="27" fill="#212224"/>
<circle cx="26.9989" cy="26.995" r="14.58" stroke="#FAFAFA" stroke-width="1.08"/>
<path d="M26.9991 42.115C28.9847 42.115 30.9509 41.7239 32.7853 40.9641C34.6198 40.2042 36.2866 39.0905 37.6906 37.6865C39.0946 36.2824 40.2083 34.6156 40.9682 32.7812C41.7281 30.9467 42.1191 28.9806 42.1191 26.995C42.1191 25.0094 41.7281 23.0433 40.9682 21.2088C40.2083 19.3744 39.0946 17.7076 37.6906 16.3035C36.2866 14.8995 34.6198 13.7858 32.7853 13.0259C30.9509 12.2661 28.9847 11.875 26.9991 11.875L26.9991 26.995V42.115Z" fill="#FAFAFA"/>
</svg>
