<svg width="20" height="20" viewBox="0 0 20 20" fill="none" xmlns="http://www.w3.org/2000/svg">
<g clip-path="url(#clip0_12718_14801)">
<path d="M7.93555 3.43115C8.22101 3.43115 8.45298 3.66233 8.45312 3.94775V4.09229C8.45312 7.43911 11.1659 10.1527 14.5127 10.1528C14.7795 10.1528 14.9952 10.3595 15.0137 10.6216H15.0176V11.4028H15.0137C14.9952 11.6649 14.7795 11.8716 14.5127 11.8716C11.1659 11.8717 8.45312 14.5853 8.45312 17.9321V18.0767C8.45294 18.362 8.22098 18.5933 7.93555 18.5933H7.25195C6.96664 18.5931 6.73554 18.362 6.73535 18.0767V17.9321C6.73535 14.5852 4.02169 11.8716 0.674805 11.8716C0.408155 11.8714 0.192315 11.6648 0.173828 11.4028H0.169922V10.6216H0.173828C0.192402 10.3596 0.408139 10.1529 0.674805 10.1528C4.02169 10.1528 6.73535 7.43917 6.73535 4.09229V3.94873C6.73535 3.66321 6.96644 3.4312 7.25195 3.43115H7.93555Z" fill="#FAFAFA"/>
<path d="M16.5059 1.40674C16.6467 1.40674 16.7617 1.5208 16.7617 1.66162V1.73291C16.7617 3.38403 18.0999 4.72217 19.751 4.72217C19.8824 4.72223 19.9888 4.82453 19.998 4.95361H20V5.33936H19.998C19.9888 5.46844 19.8824 5.57074 19.751 5.5708C18.0999 5.5708 16.7617 6.90894 16.7617 8.56006V8.63135C16.7617 8.77217 16.6467 8.88623 16.5059 8.88623H16.1689C16.0281 8.88623 15.9141 8.77217 15.9141 8.63135V8.56006C15.9141 6.90894 14.5749 5.5708 12.9238 5.5708C12.7925 5.57066 12.686 5.4684 12.6768 5.33936H12.6738V4.97217C12.6738 4.96934 12.6747 4.96618 12.6748 4.96338V4.95361H12.6758C12.6851 4.82454 12.7924 4.72314 12.9238 4.72314C14.5748 4.72294 15.9131 3.3839 15.9131 1.73291V1.66162C15.9132 1.52092 16.0273 1.40683 16.168 1.40674H16.5059Z" fill="#B9BDC2"/>
</g>
<defs>
<clipPath id="clip0_12718_14801">
<rect width="20" height="20" fill="white"/>
</clipPath>
</defs>
</svg>
