<svg width="24" height="24" viewBox="0 0 24 24" fill="none" xmlns="http://www.w3.org/2000/svg">
<path fill-rule="evenodd" clip-rule="evenodd" d="M15.542 2.5C16.0942 2.50009 16.542 2.94777 16.542 3.5V3.79883H18.2177V3.80469C18.4401 3.82812 18.6567 3.92526 18.8271 4.0957L19.8857 5.15527C20.2807 5.55046 20.2807 6.19079 19.8857 6.58594L18.8271 7.64551C18.7364 7.73612 18.632 7.80457 18.5214 7.85352C18.5277 7.91772 18.5322 7.98299 18.5322 8.04883V19.5C18.5322 20.6044 17.6365 21.4998 16.5322 21.5H7.47164C6.36707 21.5 5.47164 20.6046 5.47164 19.5V8.04883C5.47164 7.99298 5.47496 7.9375 5.47945 7.88281C5.32726 7.83592 5.18297 7.75427 5.06246 7.63379L4.0068 6.57812C3.61217 6.18315 3.61246 5.54262 4.0068 5.14746L5.06246 4.0918C5.28231 3.87198 5.57891 3.77405 5.86617 3.79883H7.45894V3.5C7.45894 2.94772 7.90666 2.5 8.45894 2.5H15.542ZM9.53121 11.5762C9.31769 11.3627 8.97135 11.3628 8.75777 11.5762L8.10055 12.2334C7.88738 12.447 7.88721 12.7933 8.10055 13.0068L8.75777 13.6631C8.97136 13.8767 9.31762 13.8767 9.53121 13.6631L10.1875 13.0068C10.401 12.7933 10.401 12.447 10.1875 12.2334L9.53121 11.5762ZM12.3925 11.5762C12.179 11.3628 11.8326 11.3628 11.6191 11.5762L10.9629 12.2334C10.7493 12.447 10.7493 12.7932 10.9629 13.0068L11.6191 13.6631C11.8327 13.8767 12.1789 13.8767 12.3925 13.6631L13.0488 13.0068C13.2624 12.7932 13.2624 12.447 13.0488 12.2334L12.3925 11.5762ZM15.2539 11.5762C15.0403 11.3628 14.6939 11.3627 14.4804 11.5762L13.8242 12.2334C13.6106 12.447 13.6106 12.7933 13.8242 13.0068L14.4804 13.6631C14.694 13.8767 15.0403 13.8767 15.2539 13.6631L15.9111 13.0068C16.1244 12.7933 16.1243 12.447 15.9111 12.2334L15.2539 11.5762Z" fill="#D0D3D7"/>
</svg>
