<svg width="60" height="48" viewBox="0 0 60 48" fill="none" xmlns="http://www.w3.org/2000/svg">
<rect x="0.5" y="0.5" width="59" height="47" rx="9.5" stroke="#36383E"/>
<path d="M31.9998 12.6343H36.9998V7.63428M36.7091 20.9912C35.7772 22.4261 34.4099 23.5245 32.8079 24.125C31.2059 24.7256 29.4534 24.7967 27.8079 24.328C26.1625 23.8593 24.7109 22.8756 23.6658 21.521C22.6207 20.1664 22.0376 18.5123 22.0018 16.8018C21.9659 15.0912 22.479 13.4143 23.4665 12.0171C24.4539 10.6199 25.8633 9.57628 27.4877 9.03906C29.1121 8.50185 30.8661 8.49927 32.4919 9.03223C34.1177 9.56519 35.5298 10.6052 36.5209 11.9998" stroke="#D0D3D7" stroke-linecap="round" stroke-linejoin="round"/>
<path d="M29.1391 32.4095V38.4804H28.145V37.7793H26.574V37.087H28.145V32.4095H29.1391ZM29.3254 39.4656V40.2644H23.4409V37.8946H24.4261V39.4656H29.3254ZM22.3758 36.013C23.858 36.0041 25.8462 35.9864 27.5503 35.7734L27.6036 36.4834C26.9423 36.5944 26.2589 36.6698 25.5799 36.7142V38.2585H24.5947V36.7674C23.8447 36.7985 23.1302 36.8029 22.5001 36.8029L22.3758 36.013ZM24.9941 32.7024C26.1657 32.7024 26.9823 33.2793 26.9911 34.1225C26.9823 34.9834 26.1657 35.5337 24.9941 35.5337C23.8048 35.5337 22.9882 34.9834 22.9882 34.1225C22.9882 33.2793 23.8048 32.7024 24.9941 32.7024ZM24.9941 33.4302C24.3551 33.4302 23.9202 33.6876 23.9202 34.1225C23.9202 34.5574 24.3551 34.8148 24.9941 34.8148C25.6065 34.8148 26.0415 34.5574 26.0503 34.1225C26.0415 33.6876 25.6065 33.4302 24.9941 33.4302ZM32.1923 32.7024V33.5722H35.6538V32.7024H36.6301V35.9598H34.4112V36.6964H37.5798V37.4952H30.2663V36.6964H33.4171V35.9598H31.216V32.7024H32.1923ZM32.1923 35.1698H35.6538V34.3355H32.1923V35.1698ZM36.7544 39.4656V40.2644H31.1716V38.01H32.1568V39.4656H36.7544Z" fill="#B9BDC2"/>
</svg>
