<svg width="54" height="54" viewBox="0 0 54 54" fill="none" xmlns="http://www.w3.org/2000/svg">
<circle cx="27" cy="27" r="27" fill="#212224"/>
<rect x="15" y="8" width="26" height="38" rx="1" fill="#FAFAFA"/>
<path d="M29.9043 28.2357L33.9623 22.1254H35.695V28.1832H36.943V29.3335H35.695V31.0831H34.3618V29.3335H29.9043V28.2357ZM34.3708 28.1832V23.7438H34.272L31.3677 28.1132V28.1832H34.3708Z" fill="#212224"/>
<path d="M27.7892 29.9745C27.6246 29.9745 27.4719 29.9351 27.3313 29.8564C27.1936 29.7777 27.0844 29.6712 27.0036 29.5371C26.9228 29.403 26.8839 29.2572 26.8869 29.0997C26.8839 28.9423 26.9228 28.7965 27.0036 28.6623C27.0844 28.5282 27.1936 28.4218 27.3313 28.343C27.4719 28.2643 27.6246 28.225 27.7892 28.225C27.9478 28.225 28.0959 28.2643 28.2336 28.343C28.3712 28.4218 28.4805 28.5282 28.5613 28.6623C28.6451 28.7965 28.6869 28.9423 28.6869 29.0997C28.6869 29.2572 28.6451 29.403 28.5613 29.5371C28.4805 29.6712 28.3712 29.7777 28.2336 29.8564C28.0959 29.9351 27.9478 29.9745 27.7892 29.9745ZM27.7892 25.4913C27.6246 25.4913 27.4719 25.4519 27.3313 25.3732C27.1936 25.2945 27.0844 25.188 27.0036 25.0539C26.9228 24.9198 26.8839 24.774 26.8869 24.6165C26.8839 24.4591 26.9228 24.3133 27.0036 24.1791C27.0844 24.045 27.1936 23.9386 27.3313 23.8599C27.4719 23.7811 27.6246 23.7418 27.7892 23.7418C27.9478 23.7418 28.0959 23.7811 28.2336 23.8599C28.3712 23.9386 28.4805 24.045 28.5613 24.1791C28.6451 24.3133 28.6869 24.4591 28.6869 24.6165C28.6869 24.774 28.6451 24.9198 28.5613 25.0539C28.4805 25.188 28.3712 25.2945 28.2336 25.3732C28.0959 25.4519 27.9478 25.4913 27.7892 25.4913Z" fill="#212224"/>
<path d="M22.3605 31.2043C21.735 31.2043 21.1739 31.1008 20.6772 30.8938C20.1834 30.6867 19.7928 30.3966 19.5055 30.0234C19.2212 29.6501 19.0716 29.223 19.0566 28.7418H20.4707C20.4856 28.9984 20.5769 29.2244 20.7445 29.4198C20.9151 29.6152 21.1395 29.7668 21.4178 29.8747C21.6961 29.9796 22.0059 30.0321 22.347 30.0321C22.7151 30.0321 23.0443 29.9709 23.3346 29.8484C23.6279 29.726 23.8553 29.5539 24.0169 29.3323C24.1815 29.1107 24.2638 28.8585 24.2638 28.5756C24.2668 28.2782 24.186 28.0143 24.0214 27.784C23.8598 27.5536 23.6219 27.3743 23.3077 27.246C22.9964 27.1177 22.6254 27.0535 22.1944 27.0535H21.4133V25.9426H22.1944C22.5416 25.9426 22.8498 25.8843 23.1191 25.7676C23.3885 25.6481 23.598 25.4804 23.7476 25.2646C23.9002 25.0489 23.9765 24.7995 23.9765 24.5167C23.9765 24.2455 23.9107 24.0064 23.779 23.7994C23.6473 23.5894 23.4603 23.4276 23.2179 23.3139C22.9785 23.2002 22.6987 23.1433 22.3785 23.1433C22.0672 23.1433 21.7769 23.1973 21.5076 23.3051C21.2413 23.4101 21.0258 23.5617 20.8612 23.76C20.6966 23.9583 20.6083 24.1887 20.5964 24.4511H19.2497C19.2646 23.9758 19.4128 23.553 19.6941 23.1827C19.9754 22.8094 20.3525 22.5193 20.8253 22.3123C21.2981 22.1053 21.8203 22.0017 22.3919 22.0017C22.9755 22.0017 23.4902 22.1125 23.9361 22.3342C24.385 22.5528 24.7292 22.8488 24.9686 23.222C25.211 23.5924 25.3307 24.0006 25.3277 24.4467C25.3307 24.7791 25.2649 25.0809 25.1302 25.3521C24.9985 25.6233 24.81 25.8507 24.5646 26.0344C24.3192 26.2152 24.0319 26.345 23.7027 26.4237V26.4937C24.1127 26.5491 24.4658 26.673 24.7621 26.8655C25.0614 27.0579 25.2888 27.3043 25.4444 27.6046C25.6 27.905 25.6763 28.2447 25.6734 28.6237C25.6763 29.1136 25.5342 29.5554 25.2469 29.949C24.9626 30.3398 24.5676 30.6474 24.0618 30.8719C23.5561 31.0935 22.989 31.2043 22.3605 31.2043Z" fill="#212224"/>
</svg>
