<svg width="54" height="54" viewBox="0 0 54 54" fill="none" xmlns="http://www.w3.org/2000/svg">
<circle cx="27" cy="27" r="27" fill="#75787E"/>
<path d="M34.8506 14.9141C37.3753 14.9141 39.4228 16.9607 39.4229 19.4854V36.6279C39.4229 39.1527 37.3753 41.2002 34.8506 41.2002H17.708C15.1833 41.2001 13.1367 39.1526 13.1367 36.6279V19.4854C13.1368 16.9607 15.1834 14.9141 17.708 14.9141H34.8506ZM34.5635 10.9209H37.1357C40.607 10.921 43.4207 13.7348 43.4209 17.2061V20.6348C43.4209 20.9504 43.1652 21.2061 42.8496 21.2061C42.5341 21.2059 42.2783 20.9503 42.2783 20.6348V17.2061C42.2781 14.366 39.9759 12.0636 37.1357 12.0635H34.5635V13.4668L30.2773 11.4873L34.5635 9.50781V10.9209Z" fill="#D9D9D9"/>
</svg>
