<svg width="24" height="24" viewBox="0 0 24 24" fill="none" xmlns="http://www.w3.org/2000/svg">
<g clip-path="url(#clip0_264_7268)">
<rect width="24" height="24" fill="#D9D9D9"/>
<circle cx="12" cy="12" r="12" fill="white"/>
<path d="M9.13965 7.39355C10.7584 5.77489 13.383 5.77512 15.002 7.39355L16.6357 9.02734C18.2543 10.6462 18.2544 13.2708 16.6357 14.8896L15.002 16.5225C13.383 18.1412 10.7585 18.1413 9.13965 16.5225L7.50684 14.8896C5.88799 13.2708 5.88812 10.6463 7.50684 9.02734L9.13965 7.39355ZM13.0439 9.95312C12.4451 9.35432 11.4738 9.35432 10.875 9.95312L9.9541 10.874C9.35549 11.4728 9.35537 12.4433 9.9541 13.042L10.875 13.9629C11.4738 14.5617 12.4451 14.5617 13.0439 13.9629L13.9648 13.042C14.5633 12.4433 14.5631 11.4728 13.9648 10.874L13.0439 9.95312Z" fill="#212224"/>
<path d="M7.43827 19.6508C6.97949 19.9241 6.48868 19.9223 6.21332 19.6469L4.25209 17.6857C4.11834 17.5513 4.04651 17.3615 4.0463 17.142C4.04609 16.9225 4.1175 16.6838 4.2509 16.4581L6.0923 13.3804L10.5086 17.7967L7.43827 19.6508Z" fill="#212224"/>
<path d="M19.7504 7.53598C20.0228 7.07624 20.0184 6.5829 19.7403 6.30472L17.7589 4.32334C17.6231 4.18821 17.432 4.11504 17.2114 4.1137C16.9907 4.11236 16.7512 4.18291 16.525 4.31584L13.4409 6.15089L17.9026 10.6125L19.7504 7.53598Z" fill="#212224"/>
<path d="M16.5578 19.6508C17.0166 19.9241 17.5074 19.9223 17.7828 19.6469L19.744 17.6857C19.8778 17.5513 19.9496 17.3615 19.9498 17.142C19.95 16.9225 19.8786 16.6838 19.7452 16.4581L17.9038 13.3804L13.4875 17.7967L16.5578 19.6508Z" fill="#212224"/>
<path d="M4.24566 7.53598C3.97328 7.07624 3.97765 6.5829 4.25583 6.30472L6.2372 4.32334C6.37299 4.18821 6.56409 4.11504 6.78473 4.1137C7.00536 4.11236 7.24493 4.18291 7.47114 4.31584L10.5552 6.15089L6.09354 10.6125L4.24566 7.53598Z" fill="#212224"/>
<path d="M9.80581 20.6366C9.93694 21.1542 10.2853 21.5 10.6747 21.5L13.4483 21.5C13.6379 21.4995 13.8229 21.4161 13.9783 21.2611C14.1336 21.106 14.2519 20.8867 14.3172 20.6328L15.1914 17.1545L8.94583 17.1545L9.80581 20.6366Z" fill="#212224"/>
<path d="M9.67041 3.36344C9.80289 2.84575 10.1548 2.5 10.5482 2.5L13.3503 2.5C13.5419 2.50047 13.7288 2.58385 13.8857 2.73892C14.0427 2.89399 14.1622 3.11327 14.2282 3.36722L15.1113 6.84555L8.8016 6.84555L9.67041 3.36344Z" fill="#212224"/>
<path d="M3.36344 9.80971C2.84576 9.94084 2.5 10.2892 2.5 10.6786L2.5 13.4522C2.50047 13.6418 2.58385 13.8268 2.73892 13.9822C2.89399 14.1375 3.11327 14.2558 3.36722 14.3211L6.84555 15.1953L6.84555 8.94973L3.36344 9.80971Z" fill="#212224"/>
<path d="M20.6366 9.67627C21.1542 9.80875 21.5 10.1607 21.5 10.5541L21.5 13.3562C21.4995 13.5478 21.4161 13.7346 21.2611 13.8916C21.106 14.0485 20.8867 14.1681 20.6328 14.234L17.1545 15.1172L17.1545 8.80746L20.6366 9.67627Z" fill="#212224"/>
</g>
<defs>
<clipPath id="clip0_264_7268">
<rect width="24" height="24" fill="white"/>
</clipPath>
</defs>
</svg>
