<svg width="54" height="54" viewBox="0 0 54 54" fill="none" xmlns="http://www.w3.org/2000/svg">
<circle cx="27" cy="27" r="27" fill="#212224"/>
<path fill-rule="evenodd" clip-rule="evenodd" d="M30.373 12.2598L28.8682 17.8711C30.2326 18.1979 31.4766 18.8338 32.5205 19.7031L37.0078 15.1367L37.7217 15.8389L33.252 20.3867C34.0777 21.2456 34.7335 22.2677 35.168 23.4004L40.9307 21.627L41.2246 22.584L35.4756 24.3535C35.6638 25.0783 35.7646 25.8384 35.7646 26.6221C35.7646 27.3872 35.668 28.1296 35.4883 28.8389L41.2246 30.6055L40.9307 31.5625L35.1875 29.7939C34.7579 30.9342 34.1036 31.9633 33.2783 32.8291L37.7217 37.3506L37.0078 38.0527L32.5488 33.5146C31.5025 34.3937 30.2537 35.0373 28.8818 35.3682L30.373 40.9297L29.4062 41.1895L27.8936 35.5488C27.5236 35.5951 27.1471 35.6221 26.7646 35.6221C26.2801 35.6221 25.8046 35.5825 25.3408 35.5088L23.8184 41.1895L22.8516 40.9297L24.3613 35.2949C23.0294 34.9266 21.822 34.2609 20.8145 33.3721L16.2168 38.0527L15.5029 37.3506L20.1006 32.6709C19.3253 31.8172 18.711 30.8144 18.3076 29.71L12.2939 31.5625L12 30.6055L18.0195 28.751C17.8539 28.0683 17.7646 27.3556 17.7646 26.6221C17.7646 25.87 17.8575 25.1397 18.0312 24.4414L12 22.584L12.2939 21.627L18.3271 23.4844C18.7353 22.3872 19.3509 21.391 20.127 20.5439L15.5029 15.8389L16.2168 15.1367L20.8438 19.8457C21.8488 18.9668 23.0506 18.3082 24.375 17.9443L22.8516 12.2598L23.8184 12L25.3545 17.7324C25.814 17.6601 26.2849 17.6221 26.7646 17.6221C27.1424 17.6221 27.5144 17.6482 27.8799 17.6934L29.4062 12L30.373 12.2598ZM26.7646 18.6221C22.3464 18.6221 18.7646 22.2038 18.7646 26.6221C18.7646 31.0403 22.3464 34.6221 26.7646 34.6221C31.1829 34.6221 34.7646 31.0403 34.7646 26.6221C34.7646 22.2038 31.1829 18.6221 26.7646 18.6221Z" fill="#FAFAFA"/>
</svg>
