<svg width="60" height="48" viewBox="0 0 60 48" fill="none" xmlns="http://www.w3.org/2000/svg">
<rect width="60" height="48" rx="10" fill="#212224"/>
<path d="M24.1992 18.4834C24.6132 18.4836 24.9492 18.8193 24.9492 19.2334V25.1094C24.9492 25.5235 24.6133 25.8592 24.1992 25.8594C23.785 25.8594 23.4492 25.5236 23.4492 25.1094V22.9219H20C19.5859 22.9219 19.2502 22.5859 19.25 22.1719C19.25 21.7577 19.5858 21.4219 20 21.4219H23.4492V19.2334C23.4493 18.8192 23.785 18.4834 24.1992 18.4834ZM40.0098 21.4219C40.4239 21.422 40.7598 21.7577 40.7598 22.1719C40.7595 22.5858 40.4237 22.9218 40.0098 22.9219H28.209C27.7951 22.9216 27.4592 22.5857 27.459 22.1719C27.459 21.7578 27.795 21.4221 28.209 21.4219H40.0098ZM30.2617 9.25C30.6758 9.25019 31.0117 9.5859 31.0117 10V15.876C31.0116 16.29 30.6757 16.6258 30.2617 16.626C29.8476 16.626 29.5118 16.2901 29.5117 15.876V13.874H20C19.5858 13.874 19.25 13.5382 19.25 13.124C19.2501 12.7099 19.5859 12.374 20 12.374H29.5117V10C29.5117 9.58579 29.8475 9.25 30.2617 9.25ZM40.0098 12.374C40.4238 12.3741 40.7596 12.71 40.7598 13.124C40.7598 13.5382 40.4239 13.8739 40.0098 13.874H34.085C33.671 13.8738 33.335 13.5381 33.335 13.124C33.3351 12.7101 33.6711 12.3743 34.085 12.374H40.0098Z" fill="#B9BDC2"/>
<path d="M29.7461 39.8211H22.4118V39.0114H25.5784V37.1723H26.5701V39.0114H29.7461V39.8211ZM22.7319 36.7204C23.255 36.6346 23.7278 36.4683 24.1504 36.2214C24.5752 35.9724 24.911 35.6733 25.1579 35.3238C25.4047 34.9724 25.5345 34.6062 25.547 34.2254H23.0206V33.4157H29.109V34.2254H26.5827C26.5931 34.6062 26.7229 34.9692 26.9718 35.3144C27.2208 35.6597 27.5608 35.9536 27.9918 36.1963C28.4249 36.4369 28.9113 36.598 29.4511 36.6796L29.0557 37.4611C28.6059 37.3795 28.1864 37.2477 27.7972 37.0656C27.4081 36.8836 27.066 36.6597 26.771 36.394C26.476 36.1262 26.2427 35.826 26.0711 35.4933C25.9016 35.8302 25.6705 36.1356 25.3775 36.4097C25.0867 36.6817 24.7488 36.9108 24.3639 37.097C23.981 37.2832 23.5678 37.4182 23.1242 37.5019L22.7319 36.7204ZM36.986 37.5364H36.0005V35.5749H34.6291V34.7684H36.0005V32.7692H36.986V37.5364ZM30.2417 36.7298C30.658 36.5876 31.0137 36.3825 31.3087 36.1147C31.6058 35.8448 31.8297 35.5393 31.9803 35.1983C32.133 34.8573 32.2094 34.5068 32.2094 34.147V34.0873H30.5367V33.2902H34.8739V34.0873H33.2137V34.1375C33.2137 34.4702 33.2859 34.7935 33.4302 35.1073C33.5746 35.419 33.788 35.6994 34.0705 35.9484C34.355 36.1953 34.6981 36.3857 35.0998 36.5196L34.6071 37.301C34.1719 37.1546 33.7953 36.937 33.4773 36.6482C33.1593 36.3595 32.9103 36.0206 32.7304 35.6314C32.5504 36.0687 32.2931 36.4505 31.9583 36.7769C31.6236 37.1033 31.2229 37.3481 30.7563 37.5113L30.2417 36.7298ZM31.5409 39.2625C31.5409 38.9445 31.6497 38.6714 31.8673 38.4434C32.087 38.2132 32.4019 38.0375 32.812 37.9161C33.222 37.7948 33.7085 37.7341 34.2713 37.7341C34.8362 37.7341 35.3237 37.7948 35.7338 37.9161C36.1439 38.0375 36.4587 38.2132 36.6784 38.4434C36.8981 38.6714 37.008 38.9445 37.008 39.2625C37.008 39.5805 36.8981 39.8535 36.6784 40.0816C36.4587 40.3117 36.1439 40.4875 35.7338 40.6088C35.3237 40.7302 34.8362 40.7909 34.2713 40.7909C33.7085 40.7909 33.222 40.7302 32.812 40.6088C32.4019 40.4875 32.087 40.3117 31.8673 40.0816C31.6497 39.8535 31.5409 39.5805 31.5409 39.2625ZM32.5232 39.2625C32.5211 39.5115 32.6718 39.7019 32.9752 39.8337C33.2785 39.9655 33.7106 40.0293 34.2713 40.0251C34.832 40.0293 35.2641 39.9655 35.5674 39.8337C35.8729 39.7019 36.0267 39.5115 36.0288 39.2625C36.0267 39.0135 35.874 38.8231 35.5706 38.6913C35.2672 38.5595 34.8341 38.4936 34.2713 38.4936C33.7085 38.4936 33.2754 38.5595 32.972 38.6913C32.6707 38.8231 32.5211 39.0135 32.5232 39.2625Z" fill="#B9BDC2"/>
</svg>
