<svg width="32" height="32" viewBox="0 0 32 32" fill="none" xmlns="http://www.w3.org/2000/svg">
<g clip-path="url(#clip0_3146_11618)">
<rect x="-1.92383" y="16" width="25" height="25" rx="7.9828" transform="rotate(-45 -1.92383 16)" fill="#75787E"/>
<path d="M17.1387 18.5133H14.8571L14.6175 9.46875H17.3782L17.1387 18.5133ZM14.5041 21.0407C14.4999 20.7718 14.565 20.5239 14.6995 20.297C14.8339 20.0701 15.0167 19.8894 15.2478 19.7549C15.4789 19.6205 15.731 19.5532 16.0042 19.5532C16.2647 19.5532 16.5084 19.6205 16.7353 19.7549C16.9664 19.8894 17.1513 20.0701 17.2899 20.297C17.4286 20.5239 17.4979 20.7718 17.4979 21.0407C17.4979 21.3096 17.4286 21.5596 17.2899 21.7907C17.1513 22.0176 16.9664 22.1983 16.7353 22.3328C16.5084 22.4672 16.2647 22.5345 16.0042 22.5345C15.731 22.5345 15.4789 22.4672 15.2478 22.3328C15.0167 22.1983 14.8339 22.0176 14.6995 21.7907C14.565 21.5596 14.4999 21.3096 14.5041 21.0407Z" fill="#FAFAFA"/>
</g>
<defs>
<clipPath id="clip0_3146_11618">
<rect width="32" height="32" fill="white"/>
</clipPath>
</defs>
</svg>
