<svg width="54" height="54" viewBox="0 0 54 54" fill="none" xmlns="http://www.w3.org/2000/svg">
<circle cx="27" cy="27" r="27" fill="#75787E"/>
<circle cx="26.9989" cy="27.0028" r="14.58" stroke="#FAFAFA" stroke-width="1.08"/>
<path d="M26.9991 42.1228C28.9847 42.1228 30.9509 41.7317 32.7853 40.9719C34.6198 40.212 36.2866 39.0983 37.6906 37.6943C39.0946 36.2902 40.2083 34.6234 40.9682 32.789C41.7281 30.9545 42.1191 28.9884 42.1191 27.0028C42.1191 25.0172 41.7281 23.0511 40.9682 21.2166C40.2083 19.3822 39.0946 17.7154 37.6906 16.3114C36.2866 14.9073 34.6198 13.7936 32.7853 13.0338C30.9509 12.2739 28.9847 11.8828 26.9991 11.8828L26.9991 27.0028V42.1228Z" fill="#FAFAFA"/>
</svg>
