<svg width="20" height="20" viewBox="0 0 20 20" fill="none" xmlns="http://www.w3.org/2000/svg">
<path d="M11.9355 3.14309C13.2501 1.8286 15.3817 1.8286 16.6963 3.14309L19.0142 5.46098C20.3286 6.77558 20.3286 8.90717 19.0142 10.2217L16.6963 12.5396C16.6334 12.6025 16.5669 12.6602 16.5005 12.7171L16.511 12.7275L12.3681 16.8695C11.0699 18.1677 8.96507 18.1677 7.66682 16.8695L6.07524 15.2779L9.04339 12.2407C9.37665 11.8996 9.37049 11.353 9.02941 11.0197L8.27164 10.2786C7.93055 9.94539 7.38387 9.95236 7.05064 10.2934L4.10433 13.307L3.59478 12.7975C3.49437 12.7177 3.39658 12.6325 3.30374 12.5396L0.985847 10.2217C-0.328627 8.90717 -0.328604 6.77557 0.985847 5.46098L3.30374 3.14309C4.61832 1.8286 6.74991 1.8286 8.0645 3.14309L9.99957 5.07816L11.9355 3.14309Z" fill="#FAFAFA"/>
</svg>
