<svg width="54" height="54" viewBox="0 0 54 54" fill="none" xmlns="http://www.w3.org/2000/svg">
<circle cx="27" cy="27" r="27" fill="#75787E"/>
<path d="M27.1406 17.0859C34.9865 17.0859 39.5019 20.6794 42.0684 24.7891C44.6144 28.8661 45.2288 33.4225 45.3789 35.3936C45.4449 36.2601 44.7448 36.9209 43.9277 36.9209H35.8809C35.0488 36.9208 34.4049 36.2575 34.3096 35.4873C34.1752 34.4013 33.7952 32.6226 32.7432 31.127C31.7102 29.6586 30.0116 28.4336 27.1406 28.4336C24.2568 28.4337 22.5182 29.6704 21.4434 31.1533C20.3503 32.6616 19.9285 34.4506 19.7695 35.5283C19.6581 36.283 19.0198 36.9207 18.2041 36.9209H10.0723C9.24635 36.9207 8.54206 36.2461 8.62305 35.3711C8.80659 33.3896 9.4985 28.8386 12.1094 24.7695C14.7399 20.67 19.3058 17.0861 27.1406 17.0859ZM26.8496 24.8594C24.1127 24.8594 22.1126 25.556 20.6426 26.5732C19.1689 27.5931 18.1957 28.9577 17.5527 30.3398C16.9089 31.7239 16.6015 33.1146 16.4561 34.1641C16.3836 34.6873 16.3516 35.1224 16.3379 35.4248C16.3311 35.5757 16.3288 35.6937 16.3281 35.7725V35.8818L16.3291 35.8857C16.3294 35.8976 16.3267 35.9092 16.3262 35.9209H18.2041C18.472 35.9207 18.7334 35.6993 18.7803 35.3818C18.9495 34.2348 19.4036 32.2626 20.6328 30.5664C21.8803 28.845 23.9107 27.4337 27.1406 27.4336C30.3577 27.4336 32.3534 28.8342 33.5615 30.5518C34.7504 32.242 35.1588 34.2099 35.3018 35.3652C35.3422 35.6909 35.6087 35.9208 35.8809 35.9209H37.6582L37.6562 35.8984V35.873C37.6559 35.8539 37.6546 35.8244 37.6533 35.7852C37.6507 35.7064 37.6463 35.5886 37.6357 35.4375C37.6146 35.135 37.5718 34.6994 37.4863 34.1758C37.3149 33.1261 36.9727 31.7341 36.2939 30.3486C35.616 28.965 34.6074 27.5982 33.1055 26.5762C31.6069 25.5566 29.5866 24.8594 26.8496 24.8594ZM27.1406 18.0859C19.6785 18.0861 15.4158 21.4686 12.9512 25.3096C10.4672 29.1808 9.79688 33.5444 9.61914 35.4629C9.5972 35.6998 9.78163 35.9207 10.0723 35.9209H11.9805C11.9805 35.9058 11.9803 35.8895 11.9805 35.8721C11.9814 35.7546 11.9846 35.5842 11.9941 35.3691C12.0133 34.939 12.0582 34.3271 12.1582 33.5947C12.3579 32.1327 12.7818 30.1747 13.6826 28.21C14.5844 26.2432 15.9701 24.2568 18.0967 22.7637C20.2273 21.2678 23.07 20.2891 26.8447 20.2891C30.6196 20.2891 33.4837 21.2681 35.6475 22.7617C37.8071 24.2526 39.2396 26.2351 40.1885 28.2002C41.1366 30.1636 41.6084 32.1211 41.8438 33.583C41.9616 34.315 42.0201 34.9264 42.0498 35.3564C42.0646 35.5715 42.0724 35.7419 42.0762 35.8594C42.0769 35.8818 42.0767 35.9023 42.0771 35.9209H43.9277C44.2152 35.9209 44.3997 35.7046 44.3818 35.4697C44.2365 33.5613 43.6399 29.195 41.2197 25.3193C38.8195 21.4758 34.6116 18.0859 27.1406 18.0859ZM26.8447 21.2891C23.2519 21.2891 20.6148 22.2171 18.6709 23.582C16.7232 24.9496 15.4389 26.7785 14.5918 28.626C13.7439 30.4753 13.3395 32.3318 13.1484 33.7305C13.0531 34.4282 13.0112 35.0088 12.9932 35.4131C12.9842 35.6152 12.9813 35.7738 12.9805 35.8799C12.9804 35.8945 12.9805 35.9082 12.9805 35.9209H15.3301C15.3299 35.9176 15.3292 35.9144 15.3291 35.9111L15.8291 35.8984L15.3291 35.9102V35.8984C15.329 35.8916 15.3282 35.8822 15.3281 35.8701C15.3279 35.8456 15.3278 35.8098 15.3281 35.7646C15.3288 35.6744 15.3314 35.5441 15.3389 35.3799C15.3537 35.0513 15.3885 34.5846 15.4658 34.0264C15.6202 32.9124 15.9485 31.4185 16.6465 29.918C17.3455 28.4154 18.4206 26.8947 20.0732 25.751C21.7295 24.6048 23.9337 23.8594 26.8496 23.8594C29.7658 23.8594 31.9866 24.6051 33.668 25.749C35.3455 26.8905 36.4571 28.4084 37.1924 29.9092C37.9267 31.4081 38.2908 32.9009 38.4727 34.0146C38.5638 34.5728 38.6098 35.0396 38.6328 35.3682C38.6443 35.5323 38.6504 35.6627 38.6533 35.7529C38.6548 35.7979 38.6559 35.8329 38.6562 35.8574V35.8975C38.6556 35.8978 38.6375 35.8984 38.1562 35.8984H38.6562C38.6562 35.906 38.6546 35.9134 38.6543 35.9209H41.0771C41.0769 35.9116 41.0765 35.9019 41.0762 35.8916C41.0728 35.7856 41.0667 35.6278 41.0527 35.4258C41.0248 35.0214 40.9688 34.4404 40.8564 33.7422C40.6313 32.3434 40.1817 30.4865 39.2881 28.6357C38.3951 26.7864 37.0636 24.9549 35.0791 23.585C33.0986 22.2178 30.4373 21.2891 26.8447 21.2891Z" fill="white"/>
</svg>
