<svg width="54" height="54" viewBox="0 0 54 54" fill="none" xmlns="http://www.w3.org/2000/svg">
<circle cx="27" cy="27" r="27" fill="#212224"/>
<path d="M24.0942 14.417C24.5467 13.4476 26.0003 13.7701 26.0004 14.8398L25.9995 38.332C25.9994 39.4366 25.104 40.332 23.9995 40.332H15.1411C13.6778 40.332 12.7098 38.8123 13.3286 37.4863L24.0942 14.417ZM28.0004 14.8398C28.0006 13.7701 29.4542 13.4476 29.9067 14.417L40.6723 37.4863C41.2911 38.8123 40.323 40.332 38.8598 40.332H30.0014C28.8969 40.332 28.0014 39.4366 28.0014 38.332L28.0004 14.8398ZM35.4291 9.42188C35.4294 9.05715 35.8079 8.81578 36.1391 8.96875L38.7328 10.166C39.1196 10.3449 39.1196 10.8953 38.7328 11.0742L36.1391 12.2715C35.8078 12.4245 35.4291 12.1823 35.4291 11.8174V11.3359H18.2856V11.8174C18.2856 12.1823 17.9079 12.4245 17.5766 12.2715L14.9828 11.0742C14.5959 10.8954 14.5959 10.3449 14.9828 10.166L17.5766 8.96875C17.9078 8.81579 18.2853 9.05715 18.2856 9.42188V10.3359H35.4291V9.42188Z" fill="#FAFAFA"/>
</svg>
