<svg width="17" height="19" viewBox="0 0 17 19" fill="none" xmlns="http://www.w3.org/2000/svg">
<path d="M11.8311 0C12.3833 6.79491e-05 12.8311 0.447757 12.8311 1V1.29883H14.5068V1.30469C14.7292 1.32811 14.9458 1.42525 15.1162 1.5957L16.1748 2.65527C16.5698 3.05046 16.5699 3.69079 16.1748 4.08594L15.1162 5.14551C15.0284 5.2333 14.928 5.30092 14.8213 5.34961V18C14.8213 18.5521 14.3734 18.9998 13.8213 19H2.76074C2.20846 19 1.76074 18.5523 1.76074 18V5.38184C1.61127 5.33453 1.47015 5.25234 1.35156 5.13379L0.295898 4.07812C-0.0987677 3.6831 -0.0985682 3.04261 0.295898 2.64746L1.35156 1.5918C1.57145 1.37193 1.86797 1.27401 2.15527 1.29883H3.74805V1C3.74805 0.447715 4.19576 0 4.74805 0H11.8311ZM5.82031 9.07617C5.6068 8.86274 5.26046 8.86285 5.04688 9.07617L4.38965 9.7334C4.17648 9.94699 4.17631 10.2933 4.38965 10.5068L5.04688 11.1631C5.26047 11.3767 5.60673 11.3767 5.82031 11.1631L6.47656 10.5068C6.69014 10.2933 6.6901 9.94701 6.47656 9.7334L5.82031 9.07617ZM8.68164 9.07617C8.46809 8.86279 8.12175 8.86279 7.9082 9.07617L7.25195 9.7334C7.03836 9.947 7.03836 10.2932 7.25195 10.5068L7.9082 11.1631C8.12179 11.3767 8.46805 11.3767 8.68164 11.1631L9.33789 10.5068C9.55148 10.2932 9.55148 9.947 9.33789 9.7334L8.68164 9.07617ZM11.543 9.07617C11.3294 8.86285 10.983 8.86274 10.7695 9.07617L10.1133 9.7334C9.89975 9.94701 9.89971 10.2933 10.1133 10.5068L10.7695 11.1631C10.9831 11.3767 11.3294 11.3767 11.543 11.1631L12.2002 10.5068C12.4135 10.2933 12.4134 9.94699 12.2002 9.7334L11.543 9.07617Z" fill="#FAFAFA"/>
</svg>
