<svg width="54" height="54" viewBox="0 0 54 54" fill="none" xmlns="http://www.w3.org/2000/svg">
<circle cx="27" cy="27" r="27" fill="#212224"/>
<mask id="path-2-inside-1_2886_11465" fill="white">
<path d="M27 10.5156C28.933 10.5156 30.5 12.0826 30.5 14.0156V28.993C30.5 29.3339 30.6771 29.6468 30.9478 29.8541C32.4989 31.0417 33.5 32.9111 33.5 35.0156C33.5 38.6055 30.5899 41.5156 27 41.5156C23.4101 41.5156 20.5 38.6055 20.5 35.0156C20.5 32.9111 21.5011 31.0417 23.0522 29.8541C23.3229 29.6468 23.5 29.3339 23.5 28.993V14.0156C23.5 12.0826 25.067 10.5156 27 10.5156Z"/>
</mask>
<path d="M23.0522 29.8541L23.6602 30.648L23.0522 29.8541ZM30.9478 29.8541L30.3398 30.648L30.9478 29.8541ZM27 10.5156V11.5156C28.3807 11.5156 29.5 12.6349 29.5 14.0156H30.5H31.5C31.5 11.5303 29.4853 9.51562 27 9.51562V10.5156ZM30.5 14.0156H29.5V28.993H30.5H31.5V14.0156H30.5ZM30.9478 29.8541L30.3398 30.648C31.6549 31.655 32.5 33.236 32.5 35.0156H33.5H34.5C34.5 32.5862 33.3429 30.4285 31.5557 29.0601L30.9478 29.8541ZM33.5 35.0156H32.5C32.5 38.0532 30.0376 40.5156 27 40.5156V41.5156V42.5156C31.1421 42.5156 34.5 39.1578 34.5 35.0156H33.5ZM27 41.5156V40.5156C23.9624 40.5156 21.5 38.0532 21.5 35.0156H20.5H19.5C19.5 39.1578 22.8579 42.5156 27 42.5156V41.5156ZM20.5 35.0156H21.5C21.5 33.236 22.3451 31.655 23.6602 30.648L23.0522 29.8541L22.4443 29.0601C20.6571 30.4285 19.5 32.5862 19.5 35.0156H20.5ZM23.5 28.993H24.5V14.0156H23.5H22.5V28.993H23.5ZM23.5 14.0156H24.5C24.5 12.6349 25.6193 11.5156 27 11.5156V10.5156V9.51562C24.5147 9.51562 22.5 11.5303 22.5 14.0156H23.5ZM23.0522 29.8541L23.6602 30.648C24.1409 30.28 24.5 29.689 24.5 28.993H23.5H22.5C22.5 28.9879 22.5017 28.991 22.4949 29.0038C22.4873 29.0179 22.4715 29.0393 22.4443 29.0601L23.0522 29.8541ZM30.5 28.993H29.5C29.5 29.689 29.8591 30.28 30.3398 30.648L30.9478 29.8541L31.5557 29.0601C31.5285 29.0393 31.5127 29.0179 31.5051 29.0038C31.4983 28.991 31.5 28.9879 31.5 28.993H30.5Z" fill="white" mask="url(#path-2-inside-1_2886_11465)"/>
<circle cx="27" cy="35.0156" r="3.5" fill="white"/>
<path d="M27 33.0156V20.0156" stroke="white" stroke-linecap="round"/>
</svg>
