<svg width="24" height="24" viewBox="0 0 24 24" fill="none" xmlns="http://www.w3.org/2000/svg">
<g clip-path="url(#clip0_10556_5625)">
<rect x="-1.22485" y="12" width="18.7029" height="18.7029" rx="4.58974" transform="rotate(-45 -1.22485 12)" fill="#B9BDC2"/>
<path d="M11.6846 7.34189C14.9787 7.28897 18.7946 9.98697 18.7946 11.8823C18.7946 13.7777 15.029 16.7129 11.6846 16.6581C8.41943 16.6046 4.82031 14.0306 4.82031 11.8823C4.82031 9.73407 8.471 7.39352 11.6846 7.34189Z" fill="#212224"/>
<path d="M14.0228 11.7354C14.0228 12.9432 13.0437 13.9223 11.8359 13.9223C10.6281 13.9223 9.64899 12.9432 9.64899 11.7354C9.64899 10.5276 10.6281 9.54849 11.8359 9.54849C13.0437 9.54849 14.0228 10.5276 14.0228 11.7354Z" fill="#B9BDC2"/>
</g>
<defs>
<clipPath id="clip0_10556_5625">
<rect width="24" height="24" fill="white"/>
</clipPath>
</defs>
</svg>
