<svg width="65" height="65" viewBox="0 0 65 65" fill="none" xmlns="http://www.w3.org/2000/svg">
<g opacity="0.9">
<rect width="65" height="65" rx="30" fill="#212224"/>
<g clip-path="url(#clip0_2886_10952)">
<mask id="mask0_2886_10952" style="mask-type:alpha" maskUnits="userSpaceOnUse" x="12" y="12" width="41" height="40">
<circle cx="32.5" cy="32" r="20" fill="white"/>
</mask>
<g mask="url(#mask0_2886_10952)">
<path d="M22.2714 14.9912C18.7636 11.3588 18.8646 5.5704 22.4971 2.06257L38.1656 -13.0684C41.7981 -16.5762 47.5865 -16.4752 51.0943 -12.8427L66.2252 2.82584C69.7331 6.45831 69.632 12.2467 65.9996 15.7545L50.331 30.8855C46.6986 34.3933 40.9102 34.2922 37.4024 30.6598L22.2714 14.9912Z" fill="white"/>
<path d="M27.6172 44.0183C27.6172 38.9686 31.7108 34.875 36.7605 34.875H58.5424C63.5921 34.875 67.6857 38.9686 67.6857 44.0183V65.8002C67.6857 70.8499 63.5921 74.9435 58.5424 74.9435H36.7605C31.7108 74.9435 27.6172 70.8499 27.6172 65.8002V44.0183Z" fill="white"/>
<path d="M-6.62367 15.953C-4.41958 11.4096 1.05027 9.51333 5.59359 11.7174L25.191 21.2247C29.7344 23.4288 31.6307 28.8987 29.4266 33.442L19.9193 53.0394C17.7152 57.5827 12.2454 59.4791 7.70204 57.275L-11.8954 47.7677C-16.4387 45.5636 -18.335 40.0937 -16.131 35.5504L-6.62367 15.953Z" fill="white"/>
</g>
</g>
</g>
<defs>
<clipPath id="clip0_2886_10952">
<rect width="40" height="40" fill="white" transform="translate(12.5 12)"/>
</clipPath>
</defs>
</svg>
