<svg width="24" height="24" viewBox="0 0 24 24" fill="none" xmlns="http://www.w3.org/2000/svg">
<g clip-path="url(#clip0_264_7267)">
<rect width="24" height="24" fill="#D9D9D9"/>
<circle cx="12" cy="12" r="12" fill="#FAFAFA"/>
<rect x="9.92969" y="17.3984" width="2.88343" height="2.88343" rx="1.01194" transform="rotate(-45 9.92969 17.3984)" fill="#212224"/>
<path d="M12.5283 5C14.6051 5 16.2891 6.68392 16.2891 8.76074V12.1895H16.3877C17.178 12.1895 17.8192 12.8299 17.8193 13.6201C17.8193 14.4105 17.1781 15.0518 16.3877 15.0518H7.43066C6.64049 15.0515 6 14.4103 6 13.6201C6.00014 12.83 6.64058 12.1897 7.43066 12.1895H7.64355V8.76074C7.64355 6.68398 9.32658 5.0001 11.4033 5H12.5283Z" fill="#212224"/>
</g>
<defs>
<clipPath id="clip0_264_7267">
<rect width="24" height="24" fill="white"/>
</clipPath>
</defs>
</svg>
