<svg width="24" height="24" viewBox="0 0 24 24" fill="none" xmlns="http://www.w3.org/2000/svg">
<g clip-path="url(#clip0_2886_11025)">
<circle cx="12" cy="12" r="12" fill="#212224"/>
<rect x="9.93164" y="17.3984" width="2.88343" height="2.88343" rx="1.01194" transform="rotate(-45 9.93164 17.3984)" fill="#FAFAFA"/>
<path d="M16.002 12.0342C16.2619 12.0334 16.5223 12.1327 16.7207 12.3311L17.208 12.8184C17.6032 13.2135 17.6032 13.8548 17.208 14.25L16.7207 14.7373C16.5084 14.9496 16.2252 15.0471 15.9473 15.0312H7.97656V15.0254C7.72242 15.0218 7.46931 14.9234 7.27539 14.7295L6.79004 14.2451C6.39486 13.8499 6.39487 13.2087 6.79004 12.8135L7.27539 12.3281C7.46929 12.1343 7.72249 12.0358 7.97656 12.0322V12.0312H16.002V12.0342Z" fill="#FAFAFA"/>
<path d="M7.64648 8.76042C7.64648 6.68359 9.33008 5 11.4069 5H12.5321C14.6089 5 16.2925 6.6836 16.2925 8.76042V13.646H7.64648L7.64648 8.76042Z" fill="#FAFAFA"/>
</g>
<defs>
<clipPath id="clip0_2886_11025">
<rect width="24" height="24" fill="white"/>
</clipPath>
</defs>
</svg>
