<svg width="24" height="24" viewBox="0 0 24 24" fill="none" xmlns="http://www.w3.org/2000/svg">
<path d="M8.92188 2.8042C9.25173 2.8042 9.56075 2.96787 9.74609 3.24072L10.4668 4.30127C10.5226 4.38354 10.5644 4.46959 10.5928 4.55713H21.0049C21.5545 4.55733 21.9998 5.00262 22 5.55225V20.1997C22 20.7495 21.5546 21.1956 21.0049 21.1958H2.99609C2.44619 21.1958 2 20.7496 2 20.1997V5.55225C2.00002 5.48299 2.00702 5.41537 2.02051 5.3501C2.00705 5.28487 2.00002 5.21726 2 5.14795V3.80029C2 3.25038 2.44619 2.8042 2.99609 2.8042H8.92188Z" fill="#E2E2E2"/>
<path d="M8.68848 8.64461C8.68848 8.43815 8.84501 8.27797 9.05147 8.27793C10.1981 8.27767 13.7366 8.27799 14.9208 8.27811C15.1381 8.27813 15.3115 8.45429 15.3115 8.67157V16.7924C15.3115 17.1308 14.9126 17.3113 14.6584 17.0879L12.25 14.9721C12.1011 14.8413 11.8782 14.8416 11.7297 14.9729L9.34255 17.0835C9.08858 17.308 8.68848 17.1277 8.68848 16.7887V8.64461Z" fill="#212224"/>
</svg>
