<svg width="24" height="24" viewBox="0 0 24 24" fill="none" xmlns="http://www.w3.org/2000/svg">
<path d="M9.61553 21.8918C8.98595 21.2622 8.98596 20.2415 9.61553 19.6119L10.5838 18.6436C11.2134 18.0141 12.2341 18.0141 12.8637 18.6436L13.8319 19.6119C14.4615 20.2415 14.4615 21.2622 13.8319 21.8918L12.8637 22.86C12.2341 23.4896 11.2134 23.4896 10.5838 22.86L9.61553 21.8918Z" fill="#E2E2E2"/>
<path d="M18.1461 12.2061C18.5604 12.2046 18.9749 12.3629 19.2911 12.679L20.069 13.4554C20.6985 14.0849 20.6985 15.1065 20.069 15.7361L19.2911 16.5124C18.9527 16.8508 18.5019 17.0061 18.0589 16.9807H5.36086V16.9714C4.95625 16.9654 4.55413 16.8087 4.24539 16.5L3.47218 15.7283C2.84261 15.0987 2.84261 14.0771 3.47218 13.4476L4.24539 12.6744C4.55405 12.3661 4.95653 12.2089 5.36086 12.203V12.2014H18.1461V12.2061Z" fill="#E2E2E2"/>
<path d="M4.83496 6.99069C4.83496 3.68212 7.51708 1 10.8257 1L12.6182 1C15.9268 1 18.6089 3.68212 18.6089 6.99069V14.7739H4.83496L4.83496 6.99069Z" fill="#E2E2E2"/>
<rect x="1.98385" y="19.3331" width="24.4469" height="2.5" rx="1.25" transform="rotate(-43.8427 1.98385 19.3331)" fill="#64676D" stroke="#E2E2E2" stroke-width="0.5"/>
</svg>
