<svg width="16" height="16" viewBox="0 0 16 16" fill="none" xmlns="http://www.w3.org/2000/svg">
<g clip-path="url(#clip0_9342_3455)">
<path d="M6.92975 14.4831C6.50975 14.0631 6.50975 13.3831 6.92975 12.9631L7.57641 12.3165C7.99641 11.8965 8.67641 11.8965 9.09641 12.3165L9.74308 12.9631C10.1631 13.3831 10.1631 14.0631 9.74308 14.4831L9.09641 15.1298C8.67641 15.5498 7.99641 15.5498 7.57641 15.1298L6.92975 14.4831Z" fill="#b9bdc2"/>
<path d="M1.88307 12.3231L13.4031 1.26312C13.5364 1.13645 13.7497 1.14312 13.8764 1.26979C14.0031 1.40312 13.9964 1.61645 13.8697 1.74312L2.34973 12.8031C2.2164 12.9298 2.00307 12.9231 1.8764 12.7965C1.74973 12.6631 1.7564 12.4498 1.88307 12.3231Z" fill="#b9bdc2"/>
<path d="M3.31661 10.89C3.50995 11.0833 3.76328 11.1833 4.01661 11.1966L12.5766 2.98331C11.9633 1.55664 10.5499 0.556641 8.90328 0.556641H7.70995C5.49661 0.556641 3.70995 2.34331 3.70995 4.54997V8.08997C3.56995 8.14331 3.42995 8.22331 3.31661 8.33664L2.80328 8.84997C2.38328 9.26997 2.38328 9.94997 2.80328 10.37L3.31661 10.8833V10.89Z" fill="#b9bdc2"/>
<path d="M13.3502 8.34344C13.2168 8.2101 13.0635 8.12344 12.8968 8.0701V4.5501C12.8968 4.5501 12.8968 4.5301 12.8968 4.52344L5.93018 11.2101H12.5235C12.8168 11.2301 13.1168 11.1234 13.3435 10.8968L13.8635 10.3768C14.2835 9.95677 14.2835 9.27677 13.8635 8.85677L13.3435 8.33677L13.3502 8.34344Z" fill="#b9bdc2"/>
</g>
<defs>
<clipPath id="clip0_9342_3455">
<rect width="12.4333" height="14.8867" fill="white" transform="translate(1.7832 0.556641)"/>
</clipPath>
</defs>
</svg>
