<svg width="54" height="54" viewBox="0 0 54 54" fill="none" xmlns="http://www.w3.org/2000/svg">
<circle cx="27" cy="27" r="27" fill="#212224"/>
<circle cx="27.12" cy="27.12" r="14.58" stroke="#FAFAFA" stroke-width="1.08"/>
<path d="M27.1202 42.24C29.1058 42.24 31.072 41.8489 32.9064 41.0891C34.7409 40.3292 36.4077 39.2155 37.8117 37.8115C39.2157 36.4074 40.3294 34.7406 41.0893 32.9062C41.8491 31.0717 42.2402 29.1056 42.2402 27.12C42.2402 25.1344 41.8491 23.1683 41.0893 21.3338C40.3294 19.4994 39.2157 17.8326 37.8117 16.4285C36.4077 15.0245 34.7408 13.9108 32.9064 13.1509C31.072 12.3911 29.1058 12 27.1202 12L27.1202 27.12V42.24Z" fill="#FAFAFA"/>
</svg>
