<svg width="54" height="54" viewBox="0 0 54 54" fill="none" xmlns="http://www.w3.org/2000/svg">
<circle cx="27" cy="27" r="27" fill="#212224"/>
<path d="M27.1201 13.0254C27.1479 13.0248 27.183 13.0326 27.2246 13.0684C28.3076 14.0008 30.99 16.845 33.4014 20.2402C34.6049 21.9348 35.7318 23.7542 36.5557 25.5283C37.3825 27.309 37.8867 29.0078 37.8867 30.4727C37.8865 36.353 32.999 41.1328 27.1045 41.1328C21.177 41.1327 15.8645 36.3206 16.1221 30.4941C16.289 26.7222 18.4054 22.8476 20.8193 19.6445C23.224 16.4538 25.8686 14.0018 26.9824 13.0859C27.0397 13.0388 27.089 13.0261 27.1201 13.0254Z" stroke="#FAFAFA"/>
</svg>
