<svg width="15" height="14" viewBox="0 0 15 14" fill="none" xmlns="http://www.w3.org/2000/svg">
<path fill-rule="evenodd" clip-rule="evenodd" d="M4.04248 1.4722C5.59278 -0.0780416 8.10663 -0.0780804 9.65691 1.4722L12.5361 4.35208C14.0864 5.90237 14.0864 8.41557 12.5361 9.96586L9.65691 12.8457C8.10662 14.396 5.59278 14.396 4.04248 12.8457L1.16259 9.96586C-0.387503 8.41558 -0.38756 5.90233 1.16259 4.35208L4.04248 1.4722ZM6.85002 3.62087C4.82294 3.62087 3.17966 5.2642 3.17962 7.29127C3.17962 9.31837 4.82291 10.9617 6.85002 10.9617C8.87704 10.9616 10.5204 9.31831 10.5204 7.29127C10.5204 5.26426 8.87701 3.62097 6.85002 3.62087Z" fill="#212224"/>
<path d="M13.0366 0C13.7737 5.43415e-05 14.3713 0.597595 14.3713 1.33469C14.3713 2.07179 13.7737 2.66933 13.0366 2.66938C12.2995 2.66938 11.702 2.07182 11.702 1.33469C11.702 0.597561 12.2995 0 13.0366 0Z" fill="#212224"/>
</svg>
