<svg width="54" height="54" viewBox="0 0 54 54" fill="none" xmlns="http://www.w3.org/2000/svg">
<circle cx="27" cy="27" r="27" fill="#75787E"/>
<path d="M14.9828 11.7397C14.5956 11.5609 14.5956 11.0107 14.9828 10.8319L17.5761 9.63411C17.9074 9.48108 18.2857 9.72307 18.2857 10.088L18.2857 12.4836C18.2857 12.8486 17.9074 13.0906 17.5761 12.9375L14.9828 11.7397Z" fill="#D0D3D7"/>
<path d="M38.7321 11.9126C39.1192 11.7338 39.1192 11.1836 38.7321 11.0047L36.1388 9.80696C35.8075 9.65393 35.4291 9.89592 35.4291 10.2609L35.4291 12.6565C35.4291 13.0214 35.8075 13.2634 36.1388 13.1104L38.7321 11.9126Z" fill="#D0D3D7"/>
<path d="M24.0937 15.0852C24.5461 14.1156 25.9999 14.4382 25.9999 15.5081L25.9991 39.0003C25.9991 40.1049 25.1037 41.0002 23.9991 41.0002H15.1404C13.6772 41.0002 12.7092 39.4804 13.328 38.1545L24.0937 15.0852Z" fill="#D0D3D7"/>
<path d="M29.9063 15.0852C29.4539 14.1156 28.0001 14.4382 28.0001 15.5081L28.0009 39.0003C28.0009 40.1049 28.8963 41.0002 30.0009 41.0002H38.8596C40.3228 41.0002 41.2908 39.4804 40.672 38.1545L29.9063 15.0852Z" fill="#D0D3D7"/>
<line x1="18" y1="11.5002" x2="38" y2="11.5002" stroke="#D0D3D7"/>
</svg>
