<svg width="24" height="24" viewBox="0 0 24 24" fill="none" xmlns="http://www.w3.org/2000/svg">
<g clip-path="url(#clip0_10556_1872)">
<rect x="-1.22485" y="12" width="18.7029" height="18.7029" rx="4.58974" transform="rotate(-45 -1.22485 12)" fill="#B9BDC2"/>
<path d="M16.8027 8.01179C16.5487 7.83886 16.2028 7.90465 16.0297 8.15857L11.4958 14.8071C11.2477 15.0297 10.8638 15.0243 10.6239 14.7886L7.93182 11.6976C7.72993 11.4657 7.37761 11.4413 7.14574 11.6432C6.91422 11.845 6.88987 12.1964 7.09138 12.4282L9.80516 15.5443L9.81712 15.5584L9.83126 15.5726C10.5139 16.2555 11.6275 16.2555 12.3102 15.5726L12.3472 15.5356L12.3765 15.4921L16.9495 8.78483C17.1224 8.53084 17.0566 8.18492 16.8027 8.01179Z" fill="#212224"/>
</g>
<defs>
<clipPath id="clip0_10556_1872">
<rect width="24" height="24" fill="white"/>
</clipPath>
</defs>
</svg>
