<svg width="110" height="77" viewBox="0 0 110 77" fill="none" xmlns="http://www.w3.org/2000/svg">
<defs>
<filter id="folderBlur" x="-50%" y="-50%" width="200%" height="200%">
<feGaussianBlur in="SourceGraphic" stdDeviation="15"/>
</filter>
<clipPath id="folderShape">
<path d="M39.4453 0C40.9847 0 42.4382 0.70969 43.3857 1.92285L47.2236 6.83594C47.6459 7.37665 47.9327 7.96029 48.1025 8.55664H105C107.761 8.55664 110 10.7952 110 13.5566V71.9102C110 74.6714 107.761 76.9102 105 76.9102H5C2.23868 76.9101 0.000154689 74.6714 0 71.9102V13.5566C0 13.1779 0.0432453 12.8088 0.123047 12.4541C0.0432978 12.0995 0 11.7307 0 11.3516V5C0.000131793 2.23871 2.23869 3.30129e-05 5 0H39.4453Z"/>
</clipPath>
</defs>
<path d="M39.4453 0C40.9847 0 42.4382 0.70969 43.3857 1.92285L47.2236 6.83594C47.6459 7.37665 47.9327 7.96029 48.1025 8.55664H105C107.761 8.55664 110 10.7952 110 13.5566V71.9102C110 74.6714 107.761 76.9102 105 76.9102H5C2.23868 76.9101 0.000154689 74.6714 0 71.9102V13.5566C0 13.1779 0.0432453 12.8088 0.123047 12.4541C0.0432978 12.0995 0 11.7307 0 11.3516V5C0.000131793 2.23871 2.23869 3.30129e-05 5 0H39.4453Z" fill="#212224" fill-opacity="0.6"/>
</svg>
