<svg width="24" height="24" viewBox="0 0 24 24" fill="none" xmlns="http://www.w3.org/2000/svg">
<g clip-path="url(#clip0_2886_10918)">
<circle cx="12" cy="12" r="12" fill="#64676D"/>
<path d="M7.77832 4.23438C10.1014 1.91133 13.8673 1.91142 16.1904 4.23438L19.7637 7.80664C22.0868 10.1297 22.0868 13.8966 19.7637 16.2197L16.1904 19.792C13.8673 22.1151 10.1014 22.1151 7.77832 19.792L4.20508 16.2197C1.88213 13.8966 1.88205 10.1297 4.20508 7.80664L7.77832 4.23438ZM9.30371 10.9209C9.12776 10.745 8.84193 10.745 8.66602 10.9209L7.90723 11.6797C7.73131 11.8556 7.73136 12.1414 7.90723 12.3174L8.66602 13.0762C8.84196 13.2521 9.12777 13.2521 9.30371 13.0762L10.0625 12.3174C10.2384 12.1414 10.2384 11.8556 10.0625 11.6797L9.30371 10.9209ZM12.3193 10.9209C12.1434 10.745 11.8576 10.745 11.6816 10.9209L10.9229 11.6797C10.7469 11.8556 10.747 12.1414 10.9229 12.3174L11.6816 13.0762C11.8576 13.2521 12.1434 13.2521 12.3193 13.0762L13.0781 12.3174C13.2541 12.1414 13.2541 11.8556 13.0781 11.6797L12.3193 10.9209ZM15.335 10.9209C15.159 10.745 14.8732 10.745 14.6973 10.9209L13.9385 11.6797C13.7626 11.8556 13.7626 12.1414 13.9385 12.3174L14.6973 13.0762C14.8732 13.2521 15.159 13.2521 15.335 13.0762L16.0938 12.3174C16.2697 12.1414 16.2697 11.8556 16.0938 11.6797L15.335 10.9209Z" fill="#212224"/>
</g>
<defs>
<clipPath id="clip0_2886_10918">
<rect width="24" height="24" fill="white"/>
</clipPath>
</defs>
</svg>
