<svg width="54" height="54" viewBox="0 0 54 54" fill="none" xmlns="http://www.w3.org/2000/svg">
<circle cx="27" cy="27" r="27" fill="#212224"/>
<path d="M27.5068 12.666C27.5347 12.6654 27.5698 12.6732 27.6113 12.709C28.6943 13.6414 31.3767 16.4856 33.7881 19.8809C34.9916 21.5754 36.1186 23.3948 36.9424 25.1689C37.7692 26.9496 38.2735 28.6484 38.2734 30.1133C38.2733 35.9936 33.3857 40.7734 27.4912 40.7734C21.5637 40.7733 16.2512 35.9612 16.5088 30.1348C16.6757 26.3628 18.7922 22.4882 21.2061 19.2852C23.6107 16.0945 26.2553 13.6424 27.3691 12.7266C27.4264 12.6794 27.4758 12.6668 27.5068 12.666Z" stroke="#FAFAFA"/>
</svg>
