<svg width="60" height="48" viewBox="0 0 60 48" fill="none" xmlns="http://www.w3.org/2000/svg">
<rect width="60" height="48" rx="10" fill="#212224"/>
<circle cx="30" cy="17" r="10" stroke="#B9BDC2" stroke-width="2"/>
<path d="M29.0934 40.7846H28.1079V32.7692H29.0934V40.7846ZM22.8449 38.5626C22.9683 38.5605 23.2079 38.5584 23.5636 38.5564C23.9213 38.5522 24.2561 38.5459 24.5678 38.5375V37.7969C24.2687 37.7508 24.0061 37.6609 23.7801 37.527C23.5562 37.3931 23.3836 37.2246 23.2623 37.0217C23.1409 36.8188 23.0803 36.5917 23.0803 36.3407C23.0803 36.0436 23.1619 35.782 23.3251 35.5561C23.4903 35.328 23.7215 35.1512 24.0186 35.0257C24.3178 34.9002 24.661 34.8374 25.048 34.8374C25.4372 34.8374 25.7824 34.9002 26.0837 35.0257C26.387 35.1512 26.6224 35.328 26.7898 35.5561C26.9593 35.782 27.044 36.0436 27.044 36.3407C27.044 36.5897 26.9823 36.8156 26.8588 37.0186C26.7375 37.2194 26.5638 37.3868 26.3379 37.5207C26.114 37.6546 25.8525 37.7456 25.5533 37.7937V38.503C26.319 38.4653 27.0147 38.4057 27.6403 38.3241L27.7125 39.0616C26.9279 39.1934 26.1182 39.2792 25.2834 39.319C24.4507 39.3587 23.551 39.3786 22.5844 39.3786L22.4495 38.5658L22.8449 38.5626ZM22.6158 33.695H24.5678V32.7943H25.5564V33.695H27.4959V34.4734H22.6158V33.695ZM24.0155 36.3407C24.0134 36.4934 24.0552 36.6252 24.141 36.7361C24.2289 36.847 24.3513 36.9317 24.5082 36.9903C24.6651 37.0489 24.8451 37.0771 25.048 37.0751C25.2572 37.0751 25.4403 37.0468 25.5972 36.9903C25.7562 36.9317 25.8797 36.847 25.9676 36.7361C26.0554 36.6252 26.0994 36.4934 26.0994 36.3407C26.0994 36.1879 26.0554 36.0551 25.9676 35.9421C25.8797 35.8291 25.7562 35.7433 25.5972 35.6848C25.4403 35.6241 25.2572 35.5937 25.048 35.5937C24.8451 35.5937 24.6651 35.6241 24.5082 35.6848C24.3513 35.7454 24.2289 35.8323 24.141 35.9452C24.0552 36.0561 24.0134 36.1879 24.0155 36.3407ZM36.986 38.638H36.0005V35.6973H34.5789V34.9002H36.0005V32.7755H36.986V38.638ZM30.2479 36.8993C30.6622 36.7633 31.0168 36.5656 31.3118 36.3062C31.6068 36.0446 31.8297 35.7465 31.9803 35.4117C32.133 35.0749 32.2094 34.7265 32.2094 34.3666V34.1501H30.5367V33.353H34.8739V34.1501H33.2137V34.3729C33.2137 34.6993 33.2859 35.0194 33.4302 35.3333C33.5746 35.645 33.789 35.9254 34.0736 36.1743C34.3581 36.4233 34.7002 36.6137 35.0998 36.7455L34.6071 37.527C34.1698 37.3805 33.7922 37.1629 33.4742 36.8742C33.1561 36.5834 32.9072 36.2434 32.7272 35.8542C32.5452 36.2852 32.2868 36.6608 31.9521 36.9809C31.6194 37.301 31.2208 37.5406 30.7563 37.6996L30.2479 36.8993ZM31.723 38.1201H32.7084V39.8337H37.1868V40.6339H31.723V38.1201Z" fill="#B9BDC2"/>
</svg>
