<svg width="24" height="24" viewBox="0 0 24 24" fill="none" xmlns="http://www.w3.org/2000/svg">
<g clip-path="url(#clip0_2886_10906)">
<circle cx="12" cy="12" r="12" fill="#64676D"/>
<path d="M7.78027 4.23438C10.1033 1.91152 13.8693 1.9115 16.1924 4.23438L19.7656 7.80762C22.0884 10.1307 22.0884 13.8967 19.7656 16.2197L16.1924 19.793C13.8694 22.1157 10.1033 22.1157 7.78027 19.793L4.20703 16.2197C1.88418 13.8967 1.88423 10.1307 4.20703 7.80762L7.78027 4.23438ZM12 13.3496C11.2972 13.3496 10.7275 13.9193 10.7275 14.6221V16.3145C10.7275 17.0172 11.2972 17.5869 12 17.5869C12.7027 17.5868 13.2725 17.0172 13.2725 16.3145V14.6221C13.2725 13.9194 12.7027 13.3497 12 13.3496Z" fill="#212224"/>
</g>
<defs>
<clipPath id="clip0_2886_10906">
<rect width="24" height="24" fill="white"/>
</clipPath>
</defs>
</svg>
