<svg width="54" height="54" viewBox="0 0 54 54" fill="none" xmlns="http://www.w3.org/2000/svg">
<circle cx="27" cy="27" r="27" fill="#75787E"/>
<path d="M24.0937 15.002C24.5462 14.0324 26 14.3548 26 15.4248L25.999 38.917C25.9988 40.0214 25.1035 40.917 23.999 40.917H15.1406C13.6774 40.917 12.7096 39.3972 13.3281 38.0713L24.0937 15.002ZM28 15.4248C27.9999 14.3548 29.4537 14.0324 29.9062 15.002L40.6718 38.0713C41.2903 39.3972 40.3225 40.917 38.8593 40.917H30.0009C28.8965 40.917 28.0011 40.0214 28.0009 38.917L28 15.4248ZM35.4287 10.0068C35.4287 9.64191 35.8073 9.39979 36.1386 9.55273L38.7324 10.751C39.1189 10.9299 39.1189 11.4792 38.7324 11.6582L36.1386 12.8564C35.8073 13.0094 35.4287 12.7673 35.4287 12.4023V11.9199H18.2851V12.4023C18.2851 12.7672 17.9074 13.0093 17.5761 12.8564L14.9824 11.6582C14.5957 11.4793 14.5957 10.9299 14.9824 10.751L17.5761 9.55273C17.9074 9.39992 18.2851 9.64196 18.2851 10.0068V10.9199H35.4287V10.0068Z" fill="#FAFAFA"/>
</svg>
