<svg width="24" height="24" viewBox="0 0 24 24" fill="none" xmlns="http://www.w3.org/2000/svg">
<rect x="1.72363" y="12.1846" width="2" height="2" rx="0.780833" transform="rotate(-45 1.72363 12.1846)" fill="#D0D3D7"/>
<rect x="2.3916" y="15.9268" width="2" height="2" rx="0.780833" transform="rotate(-45 2.3916 15.9268)" fill="#D0D3D7"/>
<rect x="4.44629" y="18.8174" width="2" height="2" rx="0.780833" transform="rotate(-45 4.44629 18.8174)" fill="#D0D3D7"/>
<rect x="7.59277" y="20.8643" width="2" height="2" rx="0.780833" transform="rotate(-45 7.59277 20.8643)" fill="#D0D3D7"/>
<path d="M12.0869 8.01367V11.9789L14.2444 14.1364" stroke="#D0D3D7" stroke-linecap="round" stroke-linejoin="round"/>
<path d="M12.1631 21.4478C12.1631 21.7733 12.4272 22.0388 12.7521 22.0205C14.5191 21.9206 16.2351 21.3728 17.7369 20.4243C19.405 19.3706 20.7403 17.8658 21.5881 16.0842C22.4358 14.3025 22.7612 12.3171 22.5265 10.3581C22.2918 8.39909 21.5067 6.54671 20.2621 5.01574C19.0175 3.48477 17.3645 2.3379 15.4947 1.70812C13.6249 1.07833 11.6149 0.991419 9.6977 1.45746C7.78051 1.92349 6.03467 2.92339 4.66261 4.34122C3.42741 5.61761 2.54068 7.18564 2.0821 8.89494C1.99776 9.20931 2.20383 9.52207 2.52245 9.58854C2.84108 9.655 3.15141 9.44991 3.23801 9.13615C3.64962 7.64483 4.42941 6.27714 5.50962 5.1609C6.72674 3.90318 8.27542 3.0162 9.97611 2.60279C11.6768 2.18938 13.4598 2.26648 15.1185 2.82515C16.7771 3.38381 18.2435 4.40116 19.3475 5.75924C20.4515 7.11733 21.148 8.76052 21.3562 10.4983C21.5644 12.2361 21.2757 13.9973 20.5237 15.5777C19.7717 17.1582 18.5872 18.4931 17.1074 19.4277C15.7941 20.2572 14.296 20.7413 12.7521 20.8397C12.4272 20.8604 12.1631 21.1223 12.1631 21.4478Z" fill="#D0D3D7"/>
<path d="M2.61035 9.10059H5.33496" stroke="#D0D3D7" stroke-linecap="round"/>
</svg>
