<svg width="122" height="30" viewBox="0 0 122 30" fill="none" xmlns="http://www.w3.org/2000/svg">
<path d="M22.6811 6.95312V10.0703H24.4994V10.9863H22.6811V14.1309H21.601V6.95312H22.6811ZM22.6811 14.6777V17.125H15.8588V18.2051H23.1459V18.9707H14.7924V16.4004H21.6146V15.4434H14.765V14.6777H22.6811ZM13.1381 13.0371C14.1088 13.0371 15.2436 13.0371 16.433 12.9961V12.2441C15.0111 12.1416 14.1088 11.5742 14.1088 10.6445C14.1088 9.64648 15.2299 9.07227 16.9525 9.07227C18.6889 9.07227 19.7963 9.64648 19.81 10.6445C19.7963 11.5674 18.9213 12.1348 17.4994 12.2441V12.9688C18.6342 12.9141 19.7826 12.8252 20.849 12.668L20.9447 13.3926C18.3197 13.8164 15.3939 13.8438 13.2611 13.8438L13.1381 13.0371ZM20.4799 7.88281V8.66211H13.4389V7.88281H16.433V6.84375H17.4994V7.88281H20.4799ZM16.9525 9.7832C15.8314 9.79688 15.1342 10.1113 15.1342 10.6445C15.1342 11.1914 15.8314 11.5469 16.9525 11.5469C18.0736 11.5469 18.7846 11.1914 18.7846 10.6445C18.7846 10.1113 18.0736 9.79688 16.9525 9.7832ZM29.126 8.86719C29.1123 10.6035 30.3428 12.1348 32.1338 12.7363L31.5322 13.5703C30.1924 13.0645 29.1396 12.0801 28.6201 10.7949C28.0938 12.251 26.9795 13.3857 25.5166 13.9395L24.9287 13.0645C26.8018 12.4082 28.0459 10.7949 28.0596 8.9082V7.65039H29.126V8.86719ZM35.0186 6.95312V14.1582H33.9385V10.4531H31.2314V9.56445H33.9385V6.95312H35.0186ZM30.9854 14.5137C33.5146 14.5137 35.0596 15.3477 35.0596 16.8105C35.0596 18.2598 33.5146 19.0801 30.9854 19.0801C28.4561 19.0801 26.9111 18.2598 26.9111 16.8105C26.9111 15.3477 28.4561 14.5137 30.9854 14.5137ZM30.9854 15.3613C29.126 15.3613 27.9639 15.9082 27.9775 16.8105C27.9639 17.6855 29.126 18.2188 30.9854 18.2188C32.8447 18.2188 33.9932 17.6855 33.9932 16.8105C33.9932 15.9082 32.8447 15.3613 30.9854 15.3613ZM46.1256 6.95312V12.1348H48.067V13.0371H46.1256V19.1074H45.0455V6.95312H46.1256ZM36.5416 15.8672C37.5328 15.8672 38.6881 15.8672 39.8912 15.8262V14.4727C38.4762 14.3154 37.5533 13.4883 37.567 12.2852C37.5533 10.918 38.7154 10.0293 40.4381 10.0293C42.1334 10.0293 43.3092 10.918 43.3229 12.2852C43.3092 13.4883 42.3727 14.3154 40.9713 14.4863V15.7852C42.1061 15.7305 43.2477 15.6416 44.3072 15.4844L44.3756 16.3047C41.7232 16.7559 38.8521 16.7832 36.7193 16.7832L36.5416 15.8672ZM44.0885 8.44336V9.31836H36.7604V8.44336H39.8912V6.98047H40.9713V8.44336H44.0885ZM40.4381 10.8633C39.317 10.8633 38.565 11.4375 38.565 12.2852C38.565 13.1328 39.317 13.6797 40.4381 13.666C41.5455 13.6797 42.2975 13.1328 42.2975 12.2852C42.2975 11.4375 41.5455 10.8633 40.4381 10.8633Z" fill="#828282"/>
<path d="M0 29L61 29" stroke="#4C4C4C" stroke-width="0.507446"/>
<path d="M76.5531 5.32812V19.3594H75.0688V5.32812H76.5531ZM67.225 6.5V10.0938H70.9906V6.5H72.4594V16H65.7406V6.5H67.225ZM67.225 14.7812H70.9906V11.2656H67.225V14.7812ZM89.4031 5.32812V8.8125H91.4031V10.0781H89.4031V13.5781H87.9188V5.32812H89.4031ZM89.4031 14.1719V17.0938H81.6688V18.1562H89.9188V19.1875H80.1844V16.1406H87.9344V15.2031H80.1531V14.1719H89.4031ZM78.2938 12.25C79.3797 12.25 80.6375 12.25 81.95 12.2031V11.4219C80.3406 11.2734 79.3406 10.6328 79.3563 9.57812C79.3406 8.4375 80.6531 7.76562 82.6844 7.76562C84.7 7.76562 86.0125 8.4375 86.0125 9.57812C86.0125 10.625 85.0203 11.2656 83.4344 11.4219V12.1562C84.6844 12.0938 85.95 11.9922 87.1219 11.8281L87.2469 12.7969C84.2313 13.2969 80.9188 13.3125 78.45 13.3125L78.2938 12.25ZM86.7313 6.32812V7.35938H78.6531V6.32812H81.95V5.20312H83.4344V6.32812H86.7313ZM82.6844 8.73438C81.4813 8.73438 80.7625 9.04688 80.7625 9.57812C80.7625 10.1406 81.4813 10.4844 82.6844 10.4844C83.8719 10.4844 84.5906 10.1406 84.5906 9.57812C84.5906 9.04688 83.8719 8.73438 82.6844 8.73438ZM96.7844 7.42188C96.7844 9.39062 98.05 11.1406 100.175 11.8281L99.3625 12.9844C97.8234 12.4297 96.6906 11.3516 96.0813 9.95312C95.4719 11.5547 94.2531 12.7969 92.5656 13.4062L91.7688 12.2188C94.0031 11.4531 95.3 9.59375 95.3156 7.48438V6.10938H96.7844V7.42188ZM103.488 5.32812V13.5938H102.003V9.39062H99.05V8.17188H102.003V5.32812H103.488ZM98.8 13.9844C101.738 13.9844 103.534 14.9531 103.534 16.6562C103.534 18.3438 101.738 19.3125 98.8 19.2969C95.8625 19.3125 94.05 18.3438 94.0656 16.6562C94.05 14.9531 95.8625 13.9844 98.8 13.9844ZM98.8 15.1406C96.7531 15.1406 95.5344 15.6875 95.5344 16.6562C95.5344 17.5938 96.7531 18.125 98.8 18.125C100.847 18.125 102.066 17.5938 102.066 16.6562C102.066 15.6875 100.847 15.1406 98.8 15.1406ZM116.213 5.32812V11.1875H118.322V12.4375H116.213V19.3281H114.728V5.32812H116.213ZM105.072 15.5156C106.173 15.5156 107.455 15.5156 108.791 15.4688V14.0469C107.213 13.8281 106.181 12.875 106.197 11.5156C106.181 9.9375 107.541 8.89062 109.541 8.89062C111.525 8.89062 112.9 9.9375 112.916 11.5156C112.9 12.875 111.853 13.8359 110.275 14.0625V15.4062C111.517 15.3594 112.767 15.2578 113.931 15.0938L114.025 16.1875C110.994 16.7344 107.713 16.75 105.306 16.75L105.072 15.5156ZM113.728 6.98438V8.17188H105.338V6.98438H108.791V5.35938H110.275V6.98438H113.728ZM109.541 10.0469C108.369 10.0469 107.588 10.625 107.588 11.5156C107.588 12.4062 108.369 12.9531 109.541 12.9531C110.713 12.9531 111.494 12.4062 111.494 11.5156C111.494 10.625 110.713 10.0469 109.541 10.0469Z" fill="#D0D3D7"/>
<path d="M61 29L122 29" stroke="#E2E2E2" stroke-width="2"/>
</svg>
