<svg width="40" height="40" viewBox="0 0 40 40" fill="none" xmlns="http://www.w3.org/2000/svg">
<g clip-path="url(#clip0_12567_2372)">
<mask id="mask0_12567_2372" style="mask-type:alpha" maskUnits="userSpaceOnUse" x="0" y="0" width="40" height="40">
<circle cx="20" cy="20" r="20" fill="white"/>
</mask>
<g mask="url(#mask0_12567_2372)">
<path d="M9.77142 2.99123C6.26358 -0.641239 6.36462 -6.4296 9.99709 -9.93743L25.6656 -25.0684C29.2981 -28.5762 35.0865 -28.4752 38.5943 -24.8427L53.7252 -9.17416C57.2331 -5.54169 57.132 0.246674 53.4996 3.75451L37.831 18.8855C34.1986 22.3933 28.4102 22.2922 24.9024 18.6598L9.77142 2.99123Z" fill="white"/>
<path d="M15.1152 32.0183C15.1152 26.9686 19.2088 22.875 24.2586 22.875H46.0404C51.0901 22.875 55.1838 26.9686 55.1838 32.0183V53.8002C55.1838 58.8499 51.0901 62.9435 46.0404 62.9435H24.2586C19.2088 62.9435 15.1152 58.8499 15.1152 53.8002V32.0183Z" fill="white"/>
<path d="M-19.1237 3.95296C-16.9196 -0.590352 -11.4497 -2.48667 -6.90641 -0.282575L12.691 9.22471C17.2344 11.4288 19.1307 16.8987 16.9266 21.442L7.4193 41.0394C5.21521 45.5827 -0.254648 47.4791 -4.79796 45.275L-24.3954 35.7677C-28.9387 33.5636 -30.835 28.0937 -28.631 23.5504L-19.1237 3.95296Z" fill="white"/>
</g>
</g>
<defs>
<clipPath id="clip0_12567_2372">
<rect width="40" height="40" fill="white"/>
</clipPath>
</defs>
</svg>
