<svg width="24" height="19" viewBox="0 0 24 19" fill="none" xmlns="http://www.w3.org/2000/svg">
<path d="M8.67188 2C8.95385 2.00002 9.18244 2.2288 9.18262 2.51074V2.65332C9.18262 5.95988 11.8634 8.64062 15.1699 8.64062C15.4332 8.64074 15.6465 8.84497 15.665 9.10352H15.6689V9.87598H15.665C15.6467 10.1347 15.4333 10.3387 15.1699 10.3389C11.8634 10.3389 9.18269 13.0197 9.18262 16.3262V16.4688C9.18262 16.7508 8.95396 16.9795 8.67188 16.9795H7.99707C7.71496 16.9795 7.48633 16.7509 7.48633 16.4688V16.3262C7.48625 13.0197 4.80549 10.3389 1.49902 10.3389C1.23553 10.3389 1.02227 10.1348 1.00391 9.87598H1V9.10352H1.00391C1.02239 8.84481 1.23561 8.64062 1.49902 8.64062C4.80554 8.64057 7.48633 5.95985 7.48633 2.65332V2.51074C7.4864 2.2287 7.71501 2 7.99707 2H8.67188Z" fill="white"/>
<path d="M19.4541 2C19.5931 2.00014 19.706 2.11289 19.7061 2.25195V2.32227C19.7061 3.95341 21.0281 5.27623 22.6592 5.27637C22.789 5.27637 22.894 5.3765 22.9033 5.50391H22.9053V5.88574H22.9033C22.894 6.01318 22.789 6.11426 22.6592 6.11426C21.0281 6.11439 19.7061 7.43624 19.7061 9.06738V9.1377C19.7061 9.27678 19.5932 9.3895 19.4541 9.38965H19.1201C18.981 9.38957 18.8682 9.27682 18.8682 9.1377V9.06738C18.8682 7.43628 17.5461 6.11446 15.915 6.11426C15.7852 6.11426 15.6802 6.01318 15.6709 5.88574H15.668V5.52246C15.668 5.51965 15.6689 5.51646 15.6689 5.51367V5.50391H15.6699C15.6792 5.37662 15.7845 5.27659 15.9141 5.27637C17.5453 5.27637 18.8682 3.95349 18.8682 2.32227V2.25195C18.8682 2.1128 18.981 2 19.1201 2H19.4541Z" fill="#212224"/>
</svg>
