<svg width="52" height="52" viewBox="0 0 52 52" fill="none" xmlns="http://www.w3.org/2000/svg">
<circle cx="26" cy="26" r="26" fill="#75787E"/>
<path d="M13.9828 11.2922C13.5956 11.1134 13.5956 10.5632 13.9828 10.3844L16.5761 9.18658C16.9074 9.03355 17.2857 9.27555 17.2857 9.6405L17.2857 12.0361C17.2857 12.401 16.9074 12.643 16.5761 12.49L13.9828 11.2922Z" fill="#FAFAFA"/>
<path d="M37.7321 11.4651C38.1192 11.2863 38.1192 10.7361 37.7321 10.5573L35.1388 9.35951C34.8075 9.20648 34.4291 9.44848 34.4291 9.81343L34.4291 12.209C34.4291 12.574 34.8075 12.816 35.1388 12.6629L37.7321 11.4651Z" fill="#FAFAFA"/>
<path d="M23.0937 14.6377C23.5461 13.6681 24.9999 13.9907 24.9999 15.0606L24.9991 38.5528C24.9991 39.6573 24.1037 40.5527 22.9991 40.5527H14.1404C12.6772 40.5527 11.7092 39.0329 12.328 37.7069L23.0937 14.6377Z" fill="#FAFAFA"/>
<path d="M28.9063 14.6377C28.4539 13.6681 27.0001 13.9907 27.0001 15.0606L27.0009 38.5528C27.0009 39.6573 27.8963 40.5527 29.0009 40.5527H37.8596C39.3228 40.5527 40.2908 39.0329 39.672 37.7069L28.9063 14.6377Z" fill="#FAFAFA"/>
<line x1="17" y1="11.0527" x2="37" y2="11.0527" stroke="#FAFAFA"/>
</svg>
