<svg width="18" height="18" viewBox="0 0 18 18" fill="none" xmlns="http://www.w3.org/2000/svg">
<g clip-path="url(#clip0_6850_11521)">
<path d="M16.3699 5.69537C16.6632 5.98778 16.664 6.46267 16.3716 6.75603L16.353 6.77471C16.0753 7.05336 15.6338 7.06691 15.3387 6.81715C15.3257 6.83925 15.3142 6.86246 15.2988 6.88351L12.0524 11.3029L12.1845 11.4345L12.1824 11.4366C12.366 11.6182 12.4642 11.8847 12.4364 12.1916L12.3693 12.9465C12.3138 13.5577 11.7733 14.1 11.1622 14.1576L10.4069 14.228C10.0786 14.2587 9.79775 14.1427 9.61574 13.9344L7.25846 11.585L4.62298 14.2294C4.33069 14.5226 3.85573 14.5232 3.56232 14.2312C3.26894 13.9388 3.26814 13.4639 3.56054 13.1705L6.19602 10.5262L4.01028 8.34774L4.0151 8.34289C3.83964 8.16175 3.74505 7.90146 3.77217 7.60167L3.83927 6.85094C3.89488 6.23976 4.43536 5.69733 5.04637 5.63979L5.79755 5.56948C6.09695 5.54157 6.358 5.6352 6.53959 5.80992L6.54028 5.80923L6.66133 5.92987L11.0324 2.6204C11.0499 2.60717 11.07 2.59795 11.0883 2.58647L11.0696 2.56785C10.7762 2.27545 10.7754 1.80058 11.0678 1.5072L11.0864 1.48852C11.3788 1.19514 11.8537 1.19434 12.1471 1.48674L16.3699 5.69537Z" fill="#7E7E7E"/>
</g>
<defs>
<clipPath id="clip0_6850_11521">
<rect width="18" height="18" fill="white"/>
</clipPath>
</defs>
</svg>
