<svg width="24" height="24" viewBox="0 0 24 24" fill="none" xmlns="http://www.w3.org/2000/svg">
<g clip-path="url(#clip0_10443_7976)">
<rect x="-1.22461" y="12" width="18.7029" height="18.7029" rx="4.58974" transform="rotate(-45 -1.22461 12)" fill="#B9BDC2"/>
<path d="M16.803 8.01253C16.549 7.83959 16.203 7.90538 16.0299 8.15931L11.4961 14.8079C11.248 15.0305 10.8641 15.025 10.6241 14.7894L7.93207 11.6983C7.73018 11.4664 7.37785 11.4421 7.14599 11.644C6.91446 11.8458 6.89012 12.1972 7.09162 12.4289L9.80541 15.545L9.81737 15.5591L9.8315 15.5733C10.5142 16.2562 11.6278 16.2562 12.3104 15.5733L12.3474 15.5363L12.3768 15.4928L16.9497 8.78556C17.1227 8.53157 17.0569 8.18565 16.803 8.01253Z" fill="#212224"/>
</g>
<defs>
<clipPath id="clip0_10443_7976">
<rect width="24" height="24" fill="white"/>
</clipPath>
</defs>
</svg>
