<svg width="48" height="48" viewBox="0 0 48 48" fill="none" xmlns="http://www.w3.org/2000/svg">
<path d="M17.8447 5.6084C18.5041 5.60851 19.1206 5.93513 19.4912 6.48047L20.9326 8.60254C21.0443 8.76704 21.1267 8.93921 21.1836 9.11426H42.0088C43.1086 9.11426 44 10.0057 44 11.1055V40.4004C43.9999 41.5002 43.1086 42.3916 42.0088 42.3916H5.99121C4.89151 42.3915 4.00006 41.5001 4 40.4004V11.1055C4 10.966 4.01375 10.8296 4.04102 10.6982C4.01432 10.5682 4 10.4331 4 10.2949V7.59961C4.0001 6.49994 4.89154 5.6085 5.99121 5.6084H17.8447Z" fill="#75787E"/>
</svg>
