<svg width="54" height="54" viewBox="0 0 54 54" fill="none" xmlns="http://www.w3.org/2000/svg">
<circle cx="27" cy="27" r="27" fill="#75787E"/>
<mask id="path-2-inside-1_2886_11468" fill="white">
<path d="M27 11.5C28.933 11.5 30.5 13.067 30.5 15V29.9774C30.5 30.3182 30.6771 30.6312 30.9478 30.8384C32.4989 32.0261 33.5 33.8955 33.5 36C33.5 39.5899 30.5899 42.5 27 42.5C23.4101 42.5 20.5 39.5899 20.5 36C20.5 33.8955 21.5011 32.0261 23.0522 30.8384C23.3229 30.6312 23.5 30.3182 23.5 29.9774V15C23.5 13.067 25.067 11.5 27 11.5Z"/>
</mask>
<path d="M23.0522 30.8384L23.6602 31.6324L23.0522 30.8384ZM30.9478 30.8384L30.3398 31.6324L30.9478 30.8384ZM27 11.5V12.5C28.3807 12.5 29.5 13.6193 29.5 15H30.5H31.5C31.5 12.5147 29.4853 10.5 27 10.5V11.5ZM30.5 15H29.5V29.9774H30.5H31.5V15H30.5ZM30.9478 30.8384L30.3398 31.6324C31.6549 32.6393 32.5 34.2204 32.5 36H33.5H34.5C34.5 33.5705 33.3429 31.4129 31.5557 30.0445L30.9478 30.8384ZM33.5 36H32.5C32.5 39.0376 30.0376 41.5 27 41.5V42.5V43.5C31.1421 43.5 34.5 40.1421 34.5 36H33.5ZM27 42.5V41.5C23.9624 41.5 21.5 39.0376 21.5 36H20.5H19.5C19.5 40.1421 22.8579 43.5 27 43.5V42.5ZM20.5 36H21.5C21.5 34.2204 22.3451 32.6393 23.6602 31.6324L23.0522 30.8384L22.4443 30.0445C20.6571 31.4129 19.5 33.5705 19.5 36H20.5ZM23.5 29.9774H24.5V15H23.5H22.5V29.9774H23.5ZM23.5 15H24.5C24.5 13.6193 25.6193 12.5 27 12.5V11.5V10.5C24.5147 10.5 22.5 12.5147 22.5 15H23.5ZM23.0522 30.8384L23.6602 31.6324C24.1409 31.2644 24.5 30.6734 24.5 29.9774H23.5H22.5C22.5 29.9723 22.5017 29.9754 22.4949 29.9882C22.4873 30.0023 22.4715 30.0236 22.4443 30.0445L23.0522 30.8384ZM30.5 29.9774H29.5C29.5 30.6734 29.8591 31.2644 30.3398 31.6324L30.9478 30.8384L31.5557 30.0445C31.5285 30.0236 31.5127 30.0023 31.5051 29.9882C31.4983 29.9754 31.5 29.9723 31.5 29.9774H30.5Z" fill="white" mask="url(#path-2-inside-1_2886_11468)"/>
<circle cx="27" cy="36" r="3.5" fill="white"/>
<path d="M27 34V21" stroke="white" stroke-linecap="round"/>
</svg>
