<svg width="54" height="54" viewBox="0 0 54 54" fill="none" xmlns="http://www.w3.org/2000/svg">
<circle cx="27" cy="27" r="27" fill="#212224"/>
<path d="M30.252 12.1426L28.7471 17.7539C30.1115 18.0807 31.3556 18.7166 32.3994 19.5859L36.8867 15.0195L37.6006 15.7217L33.1309 20.2695C33.9566 21.1284 34.6124 22.1506 35.0469 23.2832L40.8096 21.5098L41.1035 22.4668L35.3545 24.2363C35.5427 24.9611 35.6436 25.7212 35.6436 26.5049C35.6436 27.27 35.5469 28.0124 35.3672 28.7217L41.1035 30.4883L40.8096 31.4453L35.0664 29.6768C34.6368 30.817 33.9825 31.8461 33.1572 32.7119L37.6006 37.2334L36.8867 37.9355L32.4277 33.3975C31.3814 34.2765 30.1326 34.9201 28.7607 35.251L30.252 40.8125L29.2852 41.0723L27.7725 35.4316C27.4025 35.4779 27.026 35.5049 26.6436 35.5049C26.159 35.5049 25.6835 35.4653 25.2197 35.3916L23.6973 41.0723L22.7305 40.8125L24.2402 35.1777C22.9083 34.8094 21.7009 34.1437 20.6934 33.2549L16.0957 37.9355L15.3818 37.2334L19.9795 32.5537C19.2042 31.7001 18.5899 30.6972 18.1865 29.5928L12.1729 31.4453L11.8789 30.4883L17.8984 28.6338C17.7328 27.9511 17.6436 27.2384 17.6436 26.5049C17.6436 25.7528 17.7364 25.0225 17.9102 24.3242L11.8789 22.4668L12.1729 21.5098L18.2061 23.3672C18.6142 22.27 19.2298 21.2738 20.0059 20.4268L15.3818 15.7217L16.0957 15.0195L20.7227 19.7285C21.7277 18.8496 22.9295 18.191 24.2539 17.8271L22.7305 12.1426L23.6973 11.8828L25.2334 17.6152C25.6929 17.5429 26.1638 17.5049 26.6436 17.5049C27.0213 17.5049 27.3933 17.531 27.7588 17.5762L29.2852 11.8828L30.252 12.1426ZM26.6436 18.5049C22.2253 18.5049 18.6436 22.0866 18.6436 26.5049C18.6436 30.9232 22.2253 34.5049 26.6436 34.5049C31.0618 34.5049 34.6436 30.9232 34.6436 26.5049C34.6436 22.0866 31.0618 18.5049 26.6436 18.5049Z" fill="white"/>
</svg>
