<svg width="24" height="24" viewBox="0 0 24 24" fill="none" xmlns="http://www.w3.org/2000/svg">
<g clip-path="url(#clip0_264_7436)">
<rect width="24" height="24" fill="#D0D3D7"/>
<path d="M13.8945 4.65625C15.3634 3.18753 17.745 3.18753 19.2139 4.65625L21.8037 7.24609C23.2724 8.71493 23.2724 11.0966 21.8037 12.5654L19.2139 15.1553C19.1436 15.2255 19.0693 15.29 18.9951 15.3535L19.0068 15.3652L14.3779 19.9932C12.9274 21.4437 10.5756 21.4437 9.125 19.9932L7.34668 18.2148L10.6631 14.8213C11.0354 14.4402 11.0286 13.8294 10.6475 13.457L9.80078 12.6289C9.41968 12.2567 8.80885 12.2644 8.43652 12.6455L5.14453 16.0127L4.5752 15.4434C4.463 15.3543 4.35373 15.259 4.25 15.1553L1.66016 12.5654C0.191456 11.0966 0.191483 8.71492 1.66016 7.24609L4.25 4.65625C5.71883 3.18753 8.10051 3.18753 9.56934 4.65625L11.7314 6.81836L13.8945 4.65625Z" fill="#212224"/>
</g>
<defs>
<clipPath id="clip0_264_7436">
<rect width="24" height="24" fill="white"/>
</clipPath>
</defs>
</svg>
