<svg width="54" height="54" viewBox="0 0 54 54" fill="none" xmlns="http://www.w3.org/2000/svg">
<circle cx="27" cy="27" r="27" fill="#212224"/>
<path d="M34.8525 14.3281C37.3772 14.3281 39.4247 16.3747 39.4248 18.8994V36.042C39.4248 38.5667 37.3773 40.6143 34.8525 40.6143H17.71C15.1853 40.6142 13.1387 38.5667 13.1387 36.042V18.8994C13.1387 16.3748 15.1853 14.3282 17.71 14.3281H34.8525ZM34.5654 10.335H37.1377C40.609 10.335 43.4226 13.1489 43.4229 16.6201V20.0488C43.4229 20.3644 43.1672 20.6201 42.8516 20.6201C42.5361 20.62 42.2803 20.3643 42.2803 20.0488V16.6201C42.28 13.78 39.9778 11.4776 37.1377 11.4775H34.5654V12.8809L30.2793 10.9014L34.5654 8.92188V10.335Z" fill="#D9D9D9"/>
</svg>
