<svg width="54" height="54" viewBox="0 0 54 54" fill="none" xmlns="http://www.w3.org/2000/svg">
<circle cx="27" cy="27" r="27" fill="#75787E"/>
<path d="M32.5763 14.0482C32.7239 13.3903 33.6247 13.2999 33.9002 13.9154L36.2057 19.0672C36.4111 19.5264 36.0803 20.0461 35.5773 20.0543L29.934 20.1474C29.2596 20.1585 28.9594 19.3043 29.4931 18.892L30.7595 17.9131C28.7654 17.3217 26.6404 17.2849 24.6165 17.8186C22.2608 18.44 20.1659 19.8004 18.6405 21.7C17.1153 23.5995 16.2385 25.9387 16.1406 28.3728C16.0428 30.8066 16.7282 33.2079 18.0956 35.2236C19.4634 37.2396 21.4423 38.7646 23.7403 39.5732C26.0384 40.3817 28.5361 40.4323 30.8649 39.7169C33.1938 39.0015 35.2315 37.5568 36.6794 35.5974C38.1271 33.638 38.9082 31.2663 38.9082 28.8301H41.5396C41.5396 31.829 40.578 34.7489 38.796 37.1609C37.0137 39.5729 34.5039 41.3498 31.6371 42.2306C28.9495 43.0561 26.0799 43.0542 23.4008 42.2306L22.8682 42.0553C20.0392 41.0599 17.6026 39.1826 15.9188 36.7009C14.2352 34.2192 13.3914 31.2625 13.5119 28.266C13.6326 25.2695 14.7119 22.3899 16.5896 20.0516C18.4674 17.7135 21.046 16.0397 23.9456 15.2749C26.6807 14.5536 29.5658 14.6778 32.223 15.624L32.5763 14.0482Z" fill="#FAFAFA"/>
</svg>
