<svg width="122" height="30" viewBox="0 0 122 30" fill="none" xmlns="http://www.w3.org/2000/svg">
<path d="M21.6891 5.32812V8.8125H23.6891V10.0781H21.6891V13.5781H20.2047V5.32812H21.6891ZM21.6891 14.1719V17.0938H13.9547V18.1562H22.2047V19.1875H12.4703V16.1406H20.2203V15.2031H12.4391V14.1719H21.6891ZM10.5797 12.25C11.6656 12.25 12.9234 12.25 14.2359 12.2031V11.4219C12.6266 11.2734 11.6266 10.6328 11.6422 9.57812C11.6266 8.4375 12.9391 7.76562 14.9703 7.76562C16.9859 7.76562 18.2984 8.4375 18.2984 9.57812C18.2984 10.625 17.3062 11.2656 15.7203 11.4219V12.1562C16.9703 12.0938 18.2359 11.9922 19.4078 11.8281L19.5328 12.7969C16.5172 13.2969 13.2047 13.3125 10.7359 13.3125L10.5797 12.25ZM19.0172 6.32812V7.35938H10.9391V6.32812H14.2359V5.20312H15.7203V6.32812H19.0172ZM14.9703 8.73438C13.7672 8.73438 13.0484 9.04688 13.0484 9.57812C13.0484 10.1406 13.7672 10.4844 14.9703 10.4844C16.1578 10.4844 16.8766 10.1406 16.8766 9.57812C16.8766 9.04688 16.1578 8.73438 14.9703 8.73438ZM29.0703 7.42188C29.0703 9.39062 30.3359 11.1406 32.4609 11.8281L31.6484 12.9844C30.1094 12.4297 28.9766 11.3516 28.3672 9.95312C27.7578 11.5547 26.5391 12.7969 24.8516 13.4062L24.0547 12.2188C26.2891 11.4531 27.5859 9.59375 27.6016 7.48438V6.10938H29.0703V7.42188ZM35.7734 5.32812V13.5938H34.2891V9.39062H31.3359V8.17188H34.2891V5.32812H35.7734ZM31.0859 13.9844C34.0234 13.9844 35.8203 14.9531 35.8203 16.6562C35.8203 18.3438 34.0234 19.3125 31.0859 19.2969C28.1484 19.3125 26.3359 18.3438 26.3516 16.6562C26.3359 14.9531 28.1484 13.9844 31.0859 13.9844ZM31.0859 15.1406C29.0391 15.1406 27.8203 15.6875 27.8203 16.6562C27.8203 17.5938 29.0391 18.125 31.0859 18.125C33.1328 18.125 34.3516 17.5938 34.3516 16.6562C34.3516 15.6875 33.1328 15.1406 31.0859 15.1406ZM48.4984 5.32812V11.1875H50.6078V12.4375H48.4984V19.3281H47.0141V5.32812H48.4984ZM37.3578 15.5156C38.4594 15.5156 39.7406 15.5156 41.0766 15.4688V14.0469C39.4984 13.8281 38.4672 12.875 38.4828 11.5156C38.4672 9.9375 39.8266 8.89062 41.8266 8.89062C43.8109 8.89062 45.1859 9.9375 45.2016 11.5156C45.1859 12.875 44.1391 13.8359 42.5609 14.0625V15.4062C43.8031 15.3594 45.0531 15.2578 46.2172 15.0938L46.3109 16.1875C43.2797 16.7344 39.9984 16.75 37.5922 16.75L37.3578 15.5156ZM46.0141 6.98438V8.17188H37.6234V6.98438H41.0766V5.35938H42.5609V6.98438H46.0141ZM41.8266 10.0469C40.6547 10.0469 39.8734 10.625 39.8734 11.5156C39.8734 12.4062 40.6547 12.9531 41.8266 12.9531C42.9984 12.9531 43.7797 12.4062 43.7797 11.5156C43.7797 10.625 42.9984 10.0469 41.8266 10.0469Z" fill="#D0D3D7"/>
<path d="M0 29L61 29" stroke="#E2E2E2" stroke-width="2"/>
<path d="M78.3395 6.95312V19.1348H77.2594V6.95312H78.3395ZM70.0953 7.99219V11.2051H73.7184V7.99219H74.7711V16.1953H69.0289V7.99219H70.0953ZM70.0953 15.293H73.7184V12.0664H70.0953V15.293ZM89.5559 6.95312V10.0703H91.3742V10.9863H89.5559V14.1309H88.4758V6.95312H89.5559ZM89.5559 14.6777V17.125H82.7336V18.2051H90.0207V18.9707H81.6672V16.4004H88.4895V15.4434H81.6398V14.6777H89.5559ZM80.0129 13.0371C80.9836 13.0371 82.1184 13.0371 83.3078 12.9961V12.2441C81.8859 12.1416 80.9836 11.5742 80.9836 10.6445C80.9836 9.64648 82.1047 9.07227 83.8273 9.07227C85.5637 9.07227 86.6711 9.64648 86.6848 10.6445C86.6711 11.5674 85.7961 12.1348 84.3742 12.2441V12.9688C85.509 12.9141 86.6574 12.8252 87.7238 12.668L87.8195 13.3926C85.1945 13.8164 82.2687 13.8438 80.1359 13.8438L80.0129 13.0371ZM87.3547 7.88281V8.66211H80.3137V7.88281H83.3078V6.84375H84.3742V7.88281H87.3547ZM83.8273 9.7832C82.7062 9.79688 82.009 10.1113 82.009 10.6445C82.009 11.1914 82.7062 11.5469 83.8273 11.5469C84.9484 11.5469 85.6594 11.1914 85.6594 10.6445C85.6594 10.1113 84.9484 9.79688 83.8273 9.7832ZM96.0008 8.86719C95.9871 10.6035 97.2176 12.1348 99.0086 12.7363L98.407 13.5703C97.0672 13.0645 96.0145 12.0801 95.4949 10.7949C94.9686 12.251 93.8543 13.3857 92.3914 13.9395L91.8035 13.0645C93.6766 12.4082 94.9207 10.7949 94.9344 8.9082V7.65039H96.0008V8.86719ZM101.893 6.95312V14.1582H100.813V10.4531H98.1062V9.56445H100.813V6.95312H101.893ZM97.8602 14.5137C100.389 14.5137 101.934 15.3477 101.934 16.8105C101.934 18.2598 100.389 19.0801 97.8602 19.0801C95.3309 19.0801 93.7859 18.2598 93.7859 16.8105C93.7859 15.3477 95.3309 14.5137 97.8602 14.5137ZM97.8602 15.3613C96.0008 15.3613 94.8387 15.9082 94.8523 16.8105C94.8387 17.6855 96.0008 18.2188 97.8602 18.2188C99.7195 18.2188 100.868 17.6855 100.868 16.8105C100.868 15.9082 99.7195 15.3613 97.8602 15.3613ZM113 6.95312V12.1348H114.942V13.0371H113V19.1074H111.92V6.95312H113ZM103.416 15.8672C104.408 15.8672 105.563 15.8672 106.766 15.8262V14.4727C105.351 14.3154 104.428 13.4883 104.442 12.2852C104.428 10.918 105.59 10.0293 107.313 10.0293C109.008 10.0293 110.184 10.918 110.198 12.2852C110.184 13.4883 109.247 14.3154 107.846 14.4863V15.7852C108.981 15.7305 110.122 15.6416 111.182 15.4844L111.25 16.3047C108.598 16.7559 105.727 16.7832 103.594 16.7832L103.416 15.8672ZM110.963 8.44336V9.31836H103.635V8.44336H106.766V6.98047H107.846V8.44336H110.963ZM107.313 10.8633C106.192 10.8633 105.44 11.4375 105.44 12.2852C105.44 13.1328 106.192 13.6797 107.313 13.666C108.42 13.6797 109.172 13.1328 109.172 12.2852C109.172 11.4375 108.42 10.8633 107.313 10.8633Z" fill="#828282"/>
<path d="M61 29L122 29" stroke="#4C4C4C" stroke-width="0.507446"/>
</svg>
