<svg width="54" height="54" viewBox="0 0 54 54" fill="none" xmlns="http://www.w3.org/2000/svg">
<circle cx="27" cy="27" r="27" fill="#75787E"/>
<path d="M27.1201 13.0332C27.1479 13.0326 27.183 13.0404 27.2246 13.0762C28.3076 14.0086 30.99 16.8528 33.4014 20.248C34.6049 21.9426 35.7318 23.762 36.5557 25.5361C37.3825 27.3168 37.8867 29.0156 37.8867 30.4805C37.8865 36.3608 32.999 41.1406 27.1045 41.1406C21.177 41.1405 15.8645 36.3284 16.1221 30.502C16.289 26.73 18.4054 22.8554 20.8193 19.6523C23.224 16.4617 25.8686 14.0096 26.9824 13.0938C27.0397 13.0466 27.089 13.0339 27.1201 13.0332Z" stroke="#FAFAFA"/>
</svg>
