<svg width="24" height="24" viewBox="0 0 24 24" fill="none" xmlns="http://www.w3.org/2000/svg">
<g clip-path="url(#clip0_6850_11591)">
<path d="M21.8267 7.59392C22.2177 7.98368 22.2193 8.61626 21.8298 9.00744L21.8043 9.03303C21.4347 9.40389 20.8472 9.42303 20.4537 9.09192C20.4361 9.12204 20.4176 9.15244 20.3965 9.1811L16.0699 15.0703L16.2455 15.2454L16.2421 15.2489C16.487 15.491 16.6199 15.8464 16.5828 16.2558L16.4927 17.2621C16.4187 18.077 15.6977 18.8003 14.883 18.8772L13.877 18.9707C13.439 19.0119 13.0634 18.8574 12.8206 18.5796L9.67752 15.447L6.16377 18.9726C5.77399 19.3637 5.14076 19.3646 4.74956 18.975C4.35838 18.5851 4.35732 17.9519 4.74719 17.5608L8.26093 14.0352L5.34614 11.1302L5.35304 11.1233C5.11922 10.8818 4.99279 10.5352 5.0289 10.1357L5.11906 9.13491C5.19306 8.31979 5.91386 7.5964 6.72875 7.51981L7.72987 7.4256C8.12904 7.38836 8.47711 7.51285 8.71925 7.74573L8.71994 7.74504L8.84721 7.87189L14.556 3.39869C14.593 3.36969 14.6315 3.3435 14.6711 3.32047C14.3721 2.92901 14.3999 2.36828 14.7573 2.00969L14.7822 1.98479C15.172 1.59361 15.8052 1.59254 16.1964 1.98241L21.8267 7.59392Z" fill="#E2E2E2"/>
</g>
<defs>
<clipPath id="clip0_6850_11591">
<rect width="24" height="24" fill="white"/>
</clipPath>
</defs>
</svg>
