<svg width="60" height="48" viewBox="0 0 60 48" fill="none" xmlns="http://www.w3.org/2000/svg">
<rect width="60" height="48" rx="10" fill="#474A50"/>
<path d="M22.2852 22.2568C23.8235 22.2568 25.0712 23.5037 25.0713 25.042C25.0713 26.5803 23.8235 27.8271 22.2852 27.8271C20.7469 27.827 19.5 26.5803 19.5 25.042C19.5001 23.5038 20.747 22.257 22.2852 22.2568ZM35.7148 22.2568C37.253 22.257 38.4999 23.5038 38.5 25.042C38.5 26.5803 37.2531 27.827 35.7148 27.8271C34.1765 27.8271 32.9287 26.5803 32.9287 25.042C32.9288 23.5037 34.1765 22.2568 35.7148 22.2568ZM27.8633 25.0459H25.625V24.0459H27.8633V25.0459ZM32.3418 25.0459H30.1025V24.0459H32.3418V25.0459ZM23.2666 21.6885H22.2666V19.4492H23.2666V21.6885ZM35.6992 21.6885H34.6992V19.4492H35.6992V21.6885ZM23.2666 17.21H22.2666V14.9717H23.2666V17.21ZM35.6992 17.21H34.6992V14.9717H35.6992V17.21ZM22.2852 9C23.8234 9 25.0711 10.2469 25.0713 11.7852C25.0713 13.3235 23.8235 14.5713 22.2852 14.5713C20.7469 14.5711 19.5 13.3234 19.5 11.7852C19.5002 10.247 20.747 9.00015 22.2852 9ZM35.7148 9C37.253 9.00015 38.4998 10.247 38.5 11.7852C38.5 13.3234 37.2531 14.5711 35.7148 14.5713C34.1765 14.5713 32.9287 13.3235 32.9287 11.7852C32.9289 10.2469 34.1766 9 35.7148 9ZM27.8633 12.6133H25.625V11.6133H27.8633V12.6133ZM32.3418 12.6133H30.1025V11.6133H32.3418V12.6133Z" fill="#FAFAFA"/>
<path d="M20.8622 35.0445C20.8601 35.463 20.9386 35.8856 21.0976 36.3124C21.2587 36.7392 21.4909 37.1274 21.7943 37.4768C22.0997 37.8262 22.4565 38.0961 22.8645 38.2865L22.3121 39.0648C21.8727 38.8597 21.4867 38.5574 21.1541 38.1578C20.8235 37.7561 20.5651 37.2958 20.3789 36.7769C20.1927 37.3418 19.928 37.8439 19.5849 38.2833C19.2417 38.7206 18.8453 39.048 18.3954 39.2656L17.8148 38.4873C18.227 38.2927 18.589 38.0113 18.9007 37.6431C19.2125 37.2728 19.452 36.8595 19.6194 36.4034C19.7868 35.9473 19.8715 35.4944 19.8736 35.0445V34.3698H18.1255V33.5601H22.5381V34.3698H20.8622V35.0445ZM23.2787 32.7692H24.2673V35.8888H25.5038V36.7173H24.2673V40.7846H23.2787V32.7692ZM33.1736 39.8399H25.8393V39.0302H33.1736V39.8399ZM26.696 33.3341H32.3043V35.9201H27.694V36.9652H32.4895V37.7498H26.7086V35.1293H31.3283V34.1313H26.696V33.3341ZM40.3915 40.7846H39.3966V32.7692H40.3915V40.7846ZM33.7476 38.5783C34.4422 38.2478 35.0186 37.8764 35.4768 37.4642C35.9371 37.0499 36.2907 36.5907 36.5376 36.0865C36.7845 35.5801 36.9372 35.0184 36.9958 34.4012H34.1556V33.6197H38.0001C37.998 34.4545 37.8766 35.2224 37.636 35.9233C37.3975 36.6221 37.0021 37.2634 36.4497 37.8471C35.8995 38.4308 35.1714 38.9382 34.2654 39.3692L33.7476 38.5783Z" fill="#FAFAFA"/>
</svg>
