<svg width="68" height="90" viewBox="0 0 68 90" fill="none" xmlns="http://www.w3.org/2000/svg">
<path d="M0 0.25H68V89.25H0V0.25Z" fill="#36383E"/>
<path d="M0 0.25V0.5H68V0.25V0H0V0.25ZM68 89.25V89H0V89.25V89.5H68V89.25Z" fill="#36383E"/>
<path fill-rule="evenodd" clip-rule="evenodd" d="M37.542 35.25C38.0942 35.2501 38.542 35.6978 38.542 36.25V36.5488H40.2177V36.5547C40.4401 36.5781 40.6567 36.6753 40.8271 36.8457L41.8857 37.9053C42.2807 38.3005 42.2807 38.9408 41.8857 39.3359L40.8271 40.3955C40.7364 40.4861 40.632 40.5546 40.5214 40.6035C40.5277 40.6677 40.5322 40.733 40.5322 40.7988V52.25C40.5322 53.3544 39.6365 54.2498 38.5322 54.25H29.4716C28.3671 54.25 27.4716 53.3546 27.4716 52.25V40.7988C27.4716 40.743 27.475 40.6875 27.4795 40.6328C27.3273 40.5859 27.183 40.5043 27.0625 40.3838L26.0068 39.3281C25.6122 38.9331 25.6125 38.2926 26.0068 37.8975L27.0625 36.8418C27.2823 36.622 27.5789 36.524 27.8662 36.5488H29.4589V36.25C29.4589 35.6977 29.9067 35.25 30.4589 35.25H37.542ZM31.5312 44.3262C31.3177 44.1127 30.9714 44.1128 30.7578 44.3262L30.1005 44.9834C29.8874 45.197 29.8872 45.5433 30.1005 45.7568L30.7578 46.4131C30.9714 46.6267 31.3176 46.6267 31.5312 46.4131L32.1875 45.7568C32.401 45.5433 32.401 45.197 32.1875 44.9834L31.5312 44.3262ZM34.3925 44.3262C34.179 44.1128 33.8326 44.1128 33.6191 44.3262L32.9629 44.9834C32.7493 45.197 32.7493 45.5432 32.9629 45.7568L33.6191 46.4131C33.8327 46.6267 34.1789 46.6267 34.3925 46.4131L35.0488 45.7568C35.2624 45.5432 35.2624 45.197 35.0488 44.9834L34.3925 44.3262ZM37.2539 44.3262C37.0403 44.1128 36.6939 44.1127 36.4804 44.3262L35.8242 44.9834C35.6106 45.197 35.6106 45.5433 35.8242 45.7568L36.4804 46.4131C36.694 46.6267 37.0403 46.6267 37.2539 46.4131L37.9111 45.7568C38.1244 45.5433 38.1243 45.197 37.9111 44.9834L37.2539 44.3262Z" fill="#E2E2E2"/>
</svg>
