<svg width="54" height="54" viewBox="0 0 54 54" fill="none" xmlns="http://www.w3.org/2000/svg">
<circle cx="27" cy="27" r="27" fill="#212224"/>
<path fill-rule="evenodd" clip-rule="evenodd" d="M27.1411 15.4609C34.987 15.4609 39.5024 19.0544 42.0689 23.1641C44.6149 27.2411 45.2293 31.7975 45.3794 33.7686C45.4454 34.6351 44.7453 35.2959 43.9282 35.2959H35.8814C35.0492 35.2958 34.4054 34.6325 34.3101 33.8623C34.1757 32.7763 33.7957 30.9976 32.7437 29.502C31.7107 28.0336 30.0121 26.8086 27.1411 26.8086C24.2572 26.8087 22.5187 28.0454 21.4439 29.5283C20.3508 31.0366 19.929 32.8256 19.77 33.9033C19.6586 34.658 19.0203 35.2957 18.2046 35.2959H10.0728C9.24684 35.2957 8.54256 34.6211 8.62355 33.7461C8.80709 31.7646 9.499 27.2136 12.1099 23.1445C14.7404 19.045 19.3063 15.4611 27.1411 15.4609ZM26.8501 23.2344C24.1132 23.2344 22.1131 23.931 20.6431 24.9482C19.1694 25.9681 18.1962 27.3327 17.5532 28.7148C16.9094 30.0989 16.602 31.4896 16.4566 32.5391C16.384 33.0623 16.3521 33.4974 16.3384 33.7998C16.3316 33.9507 16.3293 34.0687 16.3286 34.1475V34.2568L16.3296 34.2607C16.3299 34.2726 16.3272 34.2842 16.3267 34.2959H18.2046C18.4725 34.2957 18.7339 34.0743 18.7808 33.7568C18.95 32.6098 19.4041 30.6376 20.6333 28.9414C21.8808 27.22 23.9112 25.8087 27.1411 25.8086C30.3582 25.8086 32.3539 27.2092 33.562 28.9268C34.7509 30.617 35.1593 32.5849 35.3023 33.7402C35.3427 34.0659 35.6092 34.2958 35.8814 34.2959H37.6587L37.6567 34.2734V34.248C37.6564 34.2289 37.6551 34.1994 37.6538 34.1602C37.6512 34.0814 37.6468 33.9636 37.6362 33.8125C37.6151 33.51 37.5723 33.0744 37.4868 32.5508C37.3154 31.5011 36.9732 30.1091 36.2944 28.7236C35.6165 27.34 34.6079 25.9732 33.106 24.9512C31.6074 23.9316 29.5871 23.2344 26.8501 23.2344ZM27.1411 16.4609C19.679 16.4611 15.4163 19.8436 12.9517 23.6846C10.4677 27.5558 9.79738 31.9194 9.61964 33.8379C9.59769 34.0748 9.78212 34.2957 10.0728 34.2959H11.981C11.981 34.2808 11.9808 34.2645 11.981 34.2471C11.9819 34.1296 11.9851 33.9592 11.9946 33.7441C12.0138 33.314 12.0587 32.7021 12.1587 31.9697C12.3584 30.5077 12.7823 28.5497 13.6831 26.585C14.5849 24.6181 15.9706 22.6318 18.0972 21.1387C20.2278 19.6428 23.0705 18.6641 26.8452 18.6641C30.6201 18.6641 33.4842 19.6431 35.648 21.1367C37.8076 22.6276 39.2401 24.6101 40.189 26.5752C41.1371 28.5386 41.6089 30.4961 41.8442 31.958C41.9621 32.69 42.0206 33.3014 42.0503 33.7314C42.0651 33.9465 42.0729 34.1169 42.0767 34.2344C42.0774 34.2568 42.0772 34.2773 42.0776 34.2959H43.9282C44.2157 34.2959 44.4002 34.0796 44.3823 33.8447C44.237 31.9363 43.6404 27.57 41.2202 23.6943C38.82 19.8508 34.6121 16.4609 27.1411 16.4609ZM26.8452 19.6641C23.2524 19.6641 20.6153 20.5921 18.6714 21.957C16.7236 23.3246 15.4394 25.1535 14.5923 27.001C13.7444 28.8503 13.34 30.7068 13.1489 32.1055C13.0536 32.8032 13.0117 33.3838 12.9937 33.7881C12.9847 33.9902 12.9818 34.1488 12.981 34.2549C12.9809 34.2695 12.981 34.2832 12.981 34.2959H15.3306C15.3304 34.2926 15.3297 34.2894 15.3296 34.2861L15.8296 34.2734L15.3296 34.2852V34.2734C15.3295 34.2666 15.3287 34.2572 15.3286 34.2451C15.3284 34.2206 15.3283 34.1848 15.3286 34.1396C15.3293 34.0494 15.3319 33.9191 15.3394 33.7549C15.3542 33.4263 15.389 32.9596 15.4663 32.4014C15.6207 31.2874 15.949 29.7935 16.647 28.293C17.346 26.7904 18.4211 25.2697 20.0737 24.126C21.73 22.9798 23.9342 22.2344 26.8501 22.2344C29.7663 22.2344 31.9871 22.9801 33.6685 24.124C35.346 25.2655 36.4576 26.7834 37.1929 28.2842C37.9272 29.7831 38.2913 31.2759 38.4732 32.3896C38.5643 32.9478 38.6103 33.4146 38.6333 33.7432C38.6448 33.9073 38.6509 34.0377 38.6538 34.1279C38.6553 34.1729 38.6564 34.2079 38.6567 34.2324V34.2725C38.6567 34.2728 38.6567 34.2734 38.1567 34.2734H38.6567C38.6567 34.281 38.6551 34.2884 38.6548 34.2959H41.0776C41.0774 34.2866 41.077 34.2769 41.0767 34.2666C41.0733 34.1606 41.0672 34.0028 41.0532 33.8008C41.0253 33.3964 40.9693 32.8154 40.8569 32.1172C40.6318 30.7184 40.1822 28.8615 39.2886 27.0107C38.3956 25.1614 37.0641 23.3299 35.0796 21.96C33.0991 20.5928 30.4378 19.6641 26.8452 19.6641Z" fill="white"/>
</svg>
