<svg width="24" height="24" viewBox="0 0 24 24" fill="none" xmlns="http://www.w3.org/2000/svg">
<g clip-path="url(#clip0_10443_4311)">
<rect x="-1.22461" y="12" width="18.7029" height="18.7029" rx="4.58974" transform="rotate(-45 -1.22461 12)" fill="#B9BDC2"/>
<path d="M11.6846 7.34256C14.9787 7.28964 18.7946 9.98765 18.7946 11.883C18.7946 13.7784 15.029 16.7135 11.6846 16.6588C8.41943 16.6053 4.82031 14.0313 4.82031 11.883C4.82031 9.73474 8.471 7.39419 11.6846 7.34256Z" fill="#212224"/>
<path d="M14.0228 11.7361C14.0228 12.9438 13.0437 13.9229 11.8359 13.9229C10.6281 13.9229 9.64899 12.9438 9.64899 11.7361C9.64899 10.5283 10.6281 9.54916 11.8359 9.54916C13.0437 9.54916 14.0228 10.5283 14.0228 11.7361Z" fill="#B9BDC2"/>
</g>
<defs>
<clipPath id="clip0_10443_4311">
<rect width="24" height="24" fill="white"/>
</clipPath>
</defs>
</svg>
