<svg width="60" height="48" viewBox="0 0 60 48" fill="none" xmlns="http://www.w3.org/2000/svg">
<rect width="60" height="48" rx="10" fill="#474A50"/>
<path d="M24.1992 18.2334C24.7513 18.2336 25.1992 18.6813 25.1992 19.2334V25.1094C25.1992 25.6615 24.7513 26.1092 24.1992 26.1094C23.6469 26.1094 23.1992 25.6617 23.1992 25.1094V23.1719H20C19.4479 23.1719 19.0002 22.724 19 22.1719C19 21.6196 19.4477 21.1719 20 21.1719H23.1992V19.2334C23.1993 18.6811 23.647 18.2334 24.1992 18.2334ZM40.0098 21.1719C40.562 21.172 41.0098 21.6197 41.0098 22.1719C41.0095 22.7239 40.5618 23.1718 40.0098 23.1719H28.209C27.657 23.1716 27.2092 22.7238 27.209 22.1719C27.209 21.6197 27.6569 21.1721 28.209 21.1719H40.0098ZM30.2617 9C30.8138 9.00019 31.2617 9.44783 31.2617 10V15.876C31.2616 16.428 30.8138 16.8758 30.2617 16.876C29.7095 16.876 29.2618 16.4282 29.2617 15.876V14.124H20C19.4477 14.124 19 13.6763 19 13.124C19.0001 12.5719 19.4478 12.124 20 12.124H29.2617V10C29.2617 9.44772 29.7094 9 30.2617 9ZM40.0098 12.124C40.5619 12.1241 41.0096 12.5719 41.0098 13.124C41.0098 13.6762 40.5619 14.1239 40.0098 14.124H34.085C33.5329 14.1238 33.085 13.6762 33.085 13.124C33.0851 12.572 33.533 12.1243 34.085 12.124H40.0098Z" fill="#FAFAFA"/>
<path d="M29.7461 39.8211H22.4118V39.0114H25.5784V37.1723H26.5701V39.0114H29.7461V39.8211ZM22.7319 36.7204C23.255 36.6346 23.7278 36.4683 24.1504 36.2214C24.5752 35.9724 24.911 35.6733 25.1579 35.3238C25.4047 34.9724 25.5345 34.6062 25.547 34.2254H23.0206V33.4157H29.109V34.2254H26.5827C26.5931 34.6062 26.7229 34.9692 26.9718 35.3144C27.2208 35.6597 27.5608 35.9536 27.9918 36.1963C28.4249 36.4369 28.9113 36.598 29.4511 36.6796L29.0557 37.4611C28.6059 37.3795 28.1864 37.2477 27.7972 37.0656C27.4081 36.8836 27.066 36.6597 26.771 36.394C26.476 36.1262 26.2427 35.826 26.0711 35.4933C25.9016 35.8302 25.6705 36.1356 25.3775 36.4097C25.0867 36.6817 24.7488 36.9108 24.3639 37.097C23.981 37.2832 23.5678 37.4182 23.1242 37.5019L22.7319 36.7204ZM36.986 37.5364H36.0005V35.5749H34.6291V34.7684H36.0005V32.7692H36.986V37.5364ZM30.2417 36.7298C30.658 36.5876 31.0137 36.3825 31.3087 36.1147C31.6058 35.8448 31.8297 35.5393 31.9803 35.1983C32.133 34.8573 32.2094 34.5068 32.2094 34.147V34.0873H30.5367V33.2902H34.8739V34.0873H33.2137V34.1375C33.2137 34.4702 33.2859 34.7935 33.4302 35.1073C33.5746 35.419 33.788 35.6994 34.0705 35.9484C34.355 36.1953 34.6981 36.3857 35.0998 36.5196L34.6071 37.301C34.1719 37.1546 33.7953 36.937 33.4773 36.6482C33.1593 36.3595 32.9103 36.0206 32.7304 35.6314C32.5504 36.0687 32.2931 36.4505 31.9583 36.7769C31.6236 37.1033 31.2229 37.3481 30.7563 37.5113L30.2417 36.7298ZM31.5409 39.2625C31.5409 38.9445 31.6497 38.6714 31.8673 38.4434C32.087 38.2132 32.4019 38.0375 32.812 37.9161C33.222 37.7948 33.7085 37.7341 34.2713 37.7341C34.8362 37.7341 35.3237 37.7948 35.7338 37.9161C36.1439 38.0375 36.4587 38.2132 36.6784 38.4434C36.8981 38.6714 37.008 38.9445 37.008 39.2625C37.008 39.5805 36.8981 39.8535 36.6784 40.0816C36.4587 40.3117 36.1439 40.4875 35.7338 40.6088C35.3237 40.7302 34.8362 40.7909 34.2713 40.7909C33.7085 40.7909 33.222 40.7302 32.812 40.6088C32.4019 40.4875 32.087 40.3117 31.8673 40.0816C31.6497 39.8535 31.5409 39.5805 31.5409 39.2625ZM32.5232 39.2625C32.5211 39.5115 32.6718 39.7019 32.9752 39.8337C33.2785 39.9655 33.7106 40.0293 34.2713 40.0251C34.832 40.0293 35.2641 39.9655 35.5674 39.8337C35.8729 39.7019 36.0267 39.5115 36.0288 39.2625C36.0267 39.0135 35.874 38.8231 35.5706 38.6913C35.2672 38.5595 34.8341 38.4936 34.2713 38.4936C33.7085 38.4936 33.2754 38.5595 32.972 38.6913C32.6707 38.8231 32.5211 39.0135 32.5232 39.2625Z" fill="#FAFAFA"/>
</svg>
