<svg width="60" height="48" viewBox="0 0 60 48" fill="none" xmlns="http://www.w3.org/2000/svg">
<rect width="60" height="48" rx="10" fill="#212224"/>
<path d="M36.3398 22.5156C37.4444 22.5156 38.3398 23.4111 38.3398 24.5156C38.3398 25.6202 37.4444 26.5156 36.3398 26.5156C35.2355 26.5154 34.3398 25.62 34.3398 24.5156C34.3398 23.4112 35.2355 22.5159 36.3398 22.5156ZM23.5 22.4961C24.6046 22.4961 25.5 23.3915 25.5 24.4961C25.5 25.6007 24.6046 26.4961 23.5 26.4961C22.3954 26.4961 21.5 25.6007 21.5 24.4961C21.5 23.3915 22.3954 22.4961 23.5 22.4961ZM28.8633 25.0459H26.625V24.0459H28.8633V25.0459ZM33.3418 25.0459H31.1025V24.0459H33.3418V25.0459ZM24.2666 21.6885H23.2666V19.4492H24.2666V21.6885ZM36.6992 21.6885H35.6992V19.4492H36.6992V21.6885ZM24.2666 17.21H23.2666V14.9717H24.2666V17.21ZM36.6992 17.21H35.6992V14.9717H36.6992V17.21ZM23.5 10.1094C24.6046 10.1094 25.5 11.0048 25.5 12.1094C25.5 13.2139 24.6046 14.1094 23.5 14.1094C22.3954 14.1094 21.5 13.2139 21.5 12.1094C21.5 11.0048 22.3954 10.1094 23.5 10.1094ZM36.3398 10.1094C37.4444 10.1094 38.3398 11.0048 38.3398 12.1094C38.3398 13.2139 37.4444 14.1094 36.3398 14.1094C35.2355 14.1091 34.3398 13.2138 34.3398 12.1094C34.3398 11.005 35.2355 10.1096 36.3398 10.1094ZM28.8633 12.6133H26.625V11.6133H28.8633V12.6133ZM33.3418 12.6133H31.1025V11.6133H33.3418V12.6133Z" fill="#B9BDC2"/>
<path d="M21.3622 35.0445C21.3601 35.463 21.4386 35.8856 21.5976 36.3124C21.7587 36.7392 21.9909 37.1274 22.2943 37.4768C22.5997 37.8262 22.9565 38.0961 23.3645 38.2865L22.8121 39.0648C22.3727 38.8597 21.9867 38.5574 21.6541 38.1578C21.3235 37.7561 21.0651 37.2958 20.8789 36.7769C20.6927 37.3418 20.428 37.8439 20.0849 38.2833C19.7417 38.7206 19.3453 39.048 18.8954 39.2656L18.3148 38.4873C18.727 38.2927 19.089 38.0113 19.4007 37.6431C19.7125 37.2728 19.952 36.8595 20.1194 36.4034C20.2868 35.9473 20.3715 35.4944 20.3736 35.0445V34.3698H18.6255V33.5601H23.0381V34.3698H21.3622V35.0445ZM23.7787 32.7692H24.7673V35.8888H26.0038V36.7173H24.7673V40.7846H23.7787V32.7692ZM33.6736 39.8399H26.3393V39.0302H33.6736V39.8399ZM27.196 33.3341H32.8043V35.9201H28.194V36.9652H32.9895V37.7498H27.2086V35.1293H31.8283V34.1313H27.196V33.3341ZM40.8915 40.7846H39.8966V32.7692H40.8915V40.7846ZM34.2476 38.5783C34.9422 38.2478 35.5186 37.8764 35.9768 37.4642C36.4371 37.0499 36.7907 36.5907 37.0376 36.0865C37.2845 35.5801 37.4372 35.0184 37.4958 34.4012H34.6556V33.6197H38.5001C38.498 34.4545 38.3766 35.2224 38.136 35.9233C37.8975 36.6221 37.5021 37.2634 36.9497 37.8471C36.3995 38.4308 35.6714 38.9382 34.7654 39.3692L34.2476 38.5783Z" fill="#B9BDC2"/>
</svg>
