<svg width="54" height="54" viewBox="0 0 54 54" fill="none" xmlns="http://www.w3.org/2000/svg">
<circle cx="27" cy="27" r="27" fill="#75787E"/>
<mask id="path-2-inside-1_2886_11468" fill="white">
<path d="M27 10C28.933 10 30.5 11.567 30.5 13.5V28.4774C30.5 28.8182 30.6771 29.1312 30.9478 29.3384C32.4989 30.5261 33.5 32.3955 33.5 34.5C33.5 38.0899 30.5899 41 27 41C23.4101 41 20.5 38.0899 20.5 34.5C20.5 32.3955 21.5011 30.5261 23.0522 29.3384C23.3229 29.1312 23.5 28.8182 23.5 28.4774V13.5C23.5 11.567 25.067 10 27 10Z"/>
</mask>
<path d="M30.9478 29.3384L30.3398 30.1324L30.9478 29.3384ZM27 10V11C28.3807 11 29.5 12.1193 29.5 13.5H30.5H31.5C31.5 11.0147 29.4853 9 27 9V10ZM30.5 13.5H29.5V28.4774H30.5H31.5V13.5H30.5ZM30.9478 29.3384L30.3398 30.1324C31.6549 31.1393 32.5 32.7204 32.5 34.5H33.5H34.5C34.5 32.0705 33.3429 29.9129 31.5557 28.5445L30.9478 29.3384ZM33.5 34.5H32.5C32.5 37.5376 30.0376 40 27 40V41V42C31.1421 42 34.5 38.6421 34.5 34.5H33.5ZM27 41V40C23.9624 40 21.5 37.5376 21.5 34.5H20.5H19.5C19.5 38.6421 22.8579 42 27 42V41ZM20.5 34.5H21.5C21.5 32.7204 22.3451 31.1393 23.6602 30.1324L23.0522 29.3384L22.4443 28.5445C20.6571 29.9129 19.5 32.0705 19.5 34.5H20.5ZM23.5 28.4774H24.5V13.5H23.5H22.5V28.4774H23.5ZM23.5 13.5H24.5C24.5 12.1193 25.6193 11 27 11V10V9C24.5147 9 22.5 11.0147 22.5 13.5H23.5ZM23.0522 29.3384L23.6602 30.1324C24.1409 29.7644 24.5 29.1734 24.5 28.4774H23.5H22.5C22.5 28.4723 22.5017 28.4754 22.4949 28.4882C22.4873 28.5023 22.4715 28.5236 22.4443 28.5445L23.0522 29.3384ZM30.5 28.4774H29.5C29.5 29.1734 29.8591 29.7644 30.3398 30.1324L30.9478 29.3384L31.5557 28.5445C31.5285 28.5236 31.5127 28.5023 31.5051 28.4882C31.4983 28.4754 31.5 28.4723 31.5 28.4774H30.5Z" fill="#FAFAFA" mask="url(#path-2-inside-1_2886_11468)"/>
<circle cx="27" cy="34.5" r="3.5" fill="#FAFAFA"/>
<path d="M27 32.5V19.5" stroke="#FAFAFA" stroke-linecap="round"/>
</svg>
