<svg width="24" height="24" viewBox="0 0 24 24" fill="none" xmlns="http://www.w3.org/2000/svg">
<g clip-path="url(#clip0_2886_10999)">
<circle cx="12" cy="12" r="12" fill="white"/>
<rect y="12.0156" width="16.95" height="16.95" rx="5.94863" transform="rotate(-45 0 12.0156)" fill="#212224"/>
<path d="M7.90646 12.3186C7.73052 12.1426 7.73052 11.8574 7.90646 11.6814L8.66537 10.9225C8.84132 10.7466 9.12657 10.7466 9.30251 10.9225L10.0614 11.6814C10.2374 11.8574 10.2374 12.1426 10.0614 12.3186L9.30251 13.0775C9.12657 13.2534 8.84132 13.2534 8.66537 13.0775L7.90646 12.3186Z" fill="#FAFAFA"/>
<path d="M10.9221 12.3186C10.7461 12.1426 10.7461 11.8574 10.9221 11.6814L11.681 10.9225C11.8569 10.7466 12.1422 10.7466 12.3181 10.9225L13.0771 11.6814C13.253 11.8574 13.253 12.1426 13.0771 12.3186L12.3181 13.0775C12.1422 13.2534 11.8569 13.2534 11.681 13.0775L10.9221 12.3186Z" fill="#FAFAFA"/>
<path d="M13.9377 12.3186C13.7618 12.1426 13.7618 11.8574 13.9377 11.6814L14.6966 10.9225C14.8726 10.7466 15.1578 10.7466 15.3338 10.9225L16.0927 11.6814C16.2686 11.8574 16.2686 12.1426 16.0927 12.3186L15.3338 13.0775C15.1578 13.2534 14.8726 13.2534 14.6966 13.0775L13.9377 12.3186Z" fill="#FAFAFA"/>
</g>
<defs>
<clipPath id="clip0_2886_10999">
<rect width="24" height="24" fill="white"/>
</clipPath>
</defs>
</svg>
