<svg width="49" height="49" viewBox="0 0 49 49" fill="none" xmlns="http://www.w3.org/2000/svg">
<g clip-path="url(#clip0_264_6125)">
<path d="M24.1275 47.7862C37.1915 47.7862 47.7823 37.1954 47.7823 24.1314C47.7823 11.0673 37.1915 0.476562 24.1275 0.476562C11.0634 0.476562 0.472656 11.0673 0.472656 24.1314C0.472656 37.1954 11.0634 47.7862 24.1275 47.7862Z" fill="#FEE528"/>
<path fill-rule="evenodd" clip-rule="evenodd" d="M24.1264 17.3984C20.0825 17.3984 16.8027 19.9909 16.8027 23.1889C16.8027 25.27 18.1927 27.0945 20.2776 28.1153C20.1238 28.6872 19.723 30.1868 19.6432 30.5078C19.5432 30.9058 19.7874 30.901 19.9489 30.7933C20.0748 30.7097 21.9559 29.4312 22.7682 28.8785C23.2084 28.9439 23.6621 28.9785 24.1274 28.9785C28.1723 28.9785 31.452 26.386 31.452 23.1889C31.452 19.9909 28.1713 17.3984 24.1264 17.3984Z" fill="#1F1F1F"/>
</g>
<defs>
<clipPath id="clip0_264_6125">
<rect width="48.2558" height="48.2558" fill="white"/>
</clipPath>
</defs>
</svg>
