<svg width="132" height="27" viewBox="0 0 132 27" fill="none" xmlns="http://www.w3.org/2000/svg">
<path d="M119.724 3.55078C124.489 3.55086 128.598 6.50881 130.2 10.7412L130.234 10.833L130.165 10.9023L118.465 22.6016C118.89 22.6646 119.307 22.7207 119.724 22.7207C123.579 22.7206 126.801 19.9372 127.518 16.2373L127.541 16.1143H130.88L130.856 16.2871C130.117 21.7919 125.393 26.0233 119.724 26.0234C113.52 26.0234 108.467 20.9701 108.467 14.7666C108.467 8.56256 113.521 3.55078 119.724 3.55078ZM119.724 6.85449C115.349 6.85449 111.771 10.3937 111.771 14.7666C111.771 17.4646 113.117 19.8154 115.168 21.2549L126.21 10.2119C124.769 8.20075 122.381 6.85455 119.724 6.85449Z" fill="#FAFAFA" stroke="#D0D3D7" stroke-width="0.30395"/>
<path d="M87.5088 0.589844V6.81641C89.545 4.79634 92.3497 3.54891 95.4209 3.54883C101.665 3.54883 106.678 8.56082 106.678 14.7646C106.678 20.9676 101.665 26.0205 95.4209 26.0205C89.2169 26.0203 84.2052 20.9672 84.2051 14.7646V0.589844H87.5088ZM95.4209 6.85156C91.047 6.85173 87.5088 10.3908 87.5088 14.7646C87.5089 19.1394 91.0481 22.7176 95.4209 22.7178C99.8349 22.7178 103.375 19.139 103.375 14.7646C103.375 10.3911 99.8359 6.85156 95.4209 6.85156Z" fill="#FAFAFA" stroke="#D0D3D7" stroke-width="0.30395"/>
<path d="M80.458 6.94629V25.1191H76.9893V6.94629H80.458ZM78.7236 0.234375C79.9911 0.234393 80.9844 1.27428 80.9844 2.49512C80.9844 3.75953 79.988 4.75584 78.7236 4.75586C77.4592 4.75586 76.4629 3.75954 76.4629 2.49512C76.4629 1.27427 77.4561 0.234375 78.7236 0.234375Z" fill="#FAFAFA" stroke="#D0D3D7" stroke-width="0.46966"/>
<path d="M54.4385 2.96191L54.4746 3.11719C55.7451 8.50745 56.5562 11.9907 57.0498 14.126C57.2966 15.1936 57.4646 15.9247 57.5703 16.3887C57.6232 16.6206 57.6603 16.7863 57.6846 16.8936C57.6966 16.947 57.7061 16.986 57.7119 17.0117C57.7147 17.0243 57.7164 17.0337 57.7178 17.04C57.7184 17.0428 57.7194 17.0453 57.7197 17.0469L57.792 17.3301C58.5801 20.2104 60.6 21.8584 62.3701 21.8584C63.3219 21.8584 64.2242 21.6809 65.0088 21.0127C65.798 20.3406 66.4968 19.147 66.9805 17.0488L66.9814 17.0449V17.0439L66.9824 17.042C66.9829 17.04 66.9834 17.0363 66.9844 17.0322C66.9864 17.0241 66.9901 17.0122 66.9941 16.9961C67.0023 16.9632 67.0148 16.9133 67.0312 16.8467C67.0642 16.7131 67.1128 16.5109 67.1787 16.2383C67.3105 15.6932 67.5087 14.8649 67.7725 13.7324C68.3 11.4673 69.0912 7.98561 70.1465 3.12109L70.1807 2.96191H73.6084L73.5527 3.20898C72.634 7.28732 71.8032 10.9216 71.2021 13.5361C70.9016 14.8433 70.6582 15.8955 70.4902 16.6211C70.4062 16.9839 70.3411 17.2656 70.2969 17.4561C70.2748 17.551 70.2574 17.6232 70.2461 17.6719C70.2404 17.6962 70.2363 17.7152 70.2334 17.7275C70.232 17.7335 70.2312 17.7382 70.2305 17.7412C70.2302 17.7425 70.2297 17.7434 70.2295 17.7441V17.7461C69.4801 20.9641 68.2694 22.8502 66.8516 23.9277C65.4336 25.0053 63.8379 25.2509 62.3701 25.251C60.864 25.251 59.2236 24.8047 57.79 23.6357C56.3562 22.4665 55.1443 20.5864 54.4717 17.7461L54.4707 17.7432V17.7422C54.4706 17.7415 54.47 17.7404 54.4697 17.7393C54.4691 17.7366 54.4679 17.7327 54.4668 17.7275C54.4644 17.7166 54.4609 17.6995 54.4561 17.6777C54.4464 17.6342 54.4322 17.569 54.4131 17.4834C54.3747 17.3117 54.3175 17.0565 54.2422 16.7227C54.0914 16.0542 53.8678 15.07 53.5771 13.8086C52.9958 11.2857 52.1451 7.65255 51.0703 3.21191L51.0098 2.96191H54.4385Z" fill="#FAFAFA" stroke="#D0D3D7" stroke-width="0.405267"/>
<path d="M30.2676 2.96191V13.9648C30.2677 18.3092 33.685 21.8524 37.8936 21.8525C42.1023 21.8525 45.5194 18.3093 45.5195 13.9648V2.96191H48.8359V14.0459C48.8358 20.2615 43.9499 25.251 37.8936 25.251C31.8354 25.2508 26.9522 20.1785 26.9521 13.9648V2.96191H30.2676Z" fill="#FAFAFA" stroke="#D0D3D7" stroke-width="0.405267"/>
<path d="M12.0615 1.37598C18.6217 1.37614 23.9207 6.71908 23.9209 13.2773V24.8809H20.3555V13.2773C20.3552 8.69128 16.645 4.94059 12.0615 4.94043C7.47796 4.94043 3.76683 8.69119 3.7666 13.2773V24.8809H0.202148V13.1924C0.202148 6.63189 5.50297 1.37598 12.0615 1.37598Z" fill="#FAFAFA" stroke="#D0D3D7" stroke-width="0.405267"/>
</svg>
