<svg width="49" height="49" viewBox="0 0 49 49" fill="none" xmlns="http://www.w3.org/2000/svg">
<path d="M24.1279 0.955566C36.9253 0.955817 47.2998 11.331 47.2998 24.1284C47.2996 36.9256 36.9251 47.3 24.1279 47.3003C11.3305 47.3003 0.955329 36.9258 0.955078 24.1284C0.955078 11.3308 11.3304 0.955566 24.1279 0.955566Z" fill="white" stroke="#F7F7F7" stroke-width="0.965116"/>
<path fill-rule="evenodd" clip-rule="evenodd" d="M20.1149 11.7498C22.9411 10.7708 26.1117 10.792 28.9238 11.8273C30.4845 12.4048 31.9116 13.3063 33.1349 14.4402C32.7271 14.8839 32.2842 15.2995 31.8624 15.7291C31.0609 16.532 30.2595 17.3349 29.4581 18.1378C28.6636 17.3772 27.6935 16.7996 26.639 16.4756C25.4017 16.1024 24.0659 16.046 22.8005 16.3207C21.3241 16.6376 19.9532 17.4124 18.8917 18.497C18.034 19.3633 17.3872 20.4338 16.9935 21.5889C15.5664 20.4761 14.1392 19.3703 12.7051 18.2575C14.2166 15.229 16.9302 12.8415 20.1149 11.7498Z" fill="#EA4335"/>
<path fill-rule="evenodd" clip-rule="evenodd" d="M11.5739 21.5398C11.8059 20.3988 12.1855 19.286 12.7128 18.2437C14.1399 19.3564 15.5671 20.4622 17.0012 21.575C16.4388 23.216 16.4388 25.0401 17.0012 26.6741C15.5741 27.7869 14.147 28.8997 12.7198 30.0055C11.3982 27.4207 10.9974 24.3851 11.5739 21.5398Z" fill="#FBBC05"/>
<path fill-rule="evenodd" clip-rule="evenodd" d="M24.3898 21.6736C28.4884 21.6736 32.5941 21.6736 36.6929 21.6736C37.1004 23.9767 37.0091 26.3784 36.3623 28.6321C35.7647 30.6957 34.6329 32.6114 33.0511 34.0693C31.6661 32.9917 30.2811 31.9142 28.8962 30.8366C30.2671 29.9139 31.2372 28.4208 31.5114 26.7868C29.1352 26.7868 26.759 26.7868 24.3828 26.7868C24.3898 25.0825 24.3898 23.378 24.3898 21.6736Z" fill="#4285F4"/>
<path fill-rule="evenodd" clip-rule="evenodd" d="M12.7051 30.0125C14.1322 28.9067 15.5594 27.794 16.9865 26.6812C17.5348 28.294 18.5894 29.7237 19.9814 30.7027C20.8531 31.3154 21.8514 31.7521 22.8918 31.9634C23.9183 32.1747 24.9798 32.1465 26.0133 31.9705C27.0397 31.7873 28.031 31.4141 28.8956 30.8295C30.2806 31.9071 31.6656 32.9846 33.0505 34.0622C31.5531 35.4497 29.676 36.3934 27.6935 36.8512C25.5001 37.3513 23.1801 37.3654 21.0007 36.7808C19.2713 36.323 17.6473 35.499 16.2483 34.3792C14.779 33.21 13.5557 31.7028 12.7051 30.0125Z" fill="#34A853"/>
</svg>
