<svg width="49" height="49" viewBox="0 0 49 49" fill="none" xmlns="http://www.w3.org/2000/svg">
<g clip-path="url(#clip0_264_6116)">
<path d="M24.1279 0.958984C36.9253 0.959235 47.2998 11.3344 47.2998 24.1318C47.2996 36.929 36.9251 47.3035 24.1279 47.3037C11.3305 47.3037 0.955329 36.9292 0.955078 24.1318C0.955078 11.3343 11.3304 0.958984 24.1279 0.958984Z" fill="white" stroke="#F7F7F7" stroke-width="0.965116"/>
<path fill-rule="evenodd" clip-rule="evenodd" d="M20.1169 11.7483C22.943 10.7693 26.1137 10.7905 28.9257 11.8258C30.4864 12.4033 31.9136 13.3048 33.1368 14.4388C32.7291 14.8825 32.2862 15.298 31.8643 15.7276C31.0629 16.5305 30.2615 17.3334 29.46 18.1363C28.6656 17.3757 27.6954 16.7982 26.6409 16.4742C25.4036 16.1009 24.0679 16.0446 22.8024 16.3192C21.3261 16.6362 19.9552 17.4109 18.8936 18.4955C18.0359 19.3618 17.3891 20.4323 16.9955 21.5874C15.5683 20.4746 14.1412 19.3689 12.707 18.2561C14.2185 15.2276 16.9322 12.84 20.1169 11.7483Z" fill="#EA4335"/>
<path fill-rule="evenodd" clip-rule="evenodd" d="M11.5729 21.5383C11.8049 20.3973 12.1846 19.2845 12.7118 18.2422C14.1389 19.355 15.5661 20.4607 17.0003 21.5735C16.4378 23.2145 16.4378 25.0387 17.0003 26.6726C15.5731 27.7854 14.146 28.8982 12.7189 30.004C11.3972 27.4192 10.9965 24.3837 11.5729 21.5383Z" fill="#FBBC05"/>
<path fill-rule="evenodd" clip-rule="evenodd" d="M24.3898 21.6719C28.4884 21.6719 32.5941 21.6719 36.6929 21.6719C37.1004 23.9749 37.0091 26.3766 36.3623 28.6303C35.7647 30.6939 34.6329 32.6096 33.0511 34.0676C31.6661 32.99 30.2811 31.9124 28.8962 30.8348C30.2671 29.9122 31.2372 28.4191 31.5114 26.7851C29.1352 26.7851 26.759 26.7851 24.3828 26.7851C24.3898 25.0807 24.3898 23.3763 24.3898 21.6719Z" fill="#4285F4"/>
<path fill-rule="evenodd" clip-rule="evenodd" d="M12.707 30.011C14.1342 28.9053 15.5613 27.7925 16.9884 26.6797C17.5368 28.2926 18.5913 29.7223 19.9833 30.7013C20.8551 31.314 21.8533 31.7507 22.8938 31.9619C23.9202 32.1733 24.9818 32.1451 26.0152 31.969C27.0416 31.7859 28.0329 31.4126 28.8976 30.828C30.2826 31.9056 31.6675 32.9832 33.0525 34.0607C31.555 35.4482 29.678 36.392 27.6954 36.8498C25.502 37.3498 23.1821 37.3639 21.0027 36.7794C19.2732 36.3216 17.6493 35.4975 16.2503 34.3777C14.7809 33.2086 13.5577 31.7014 12.707 30.011Z" fill="#34A853"/>
</g>
<defs>
<clipPath id="clip0_264_6116">
<rect width="48.2558" height="48.2558" fill="white"/>
</clipPath>
</defs>
</svg>
