<svg width="49" height="49" viewBox="0 0 49 49" fill="none" xmlns="http://www.w3.org/2000/svg">
<g clip-path="url(#clip0_7958_49980)">
<path d="M24.1275 47.7828C37.1915 47.7828 47.7823 37.192 47.7823 24.128C47.7823 11.0639 37.1915 0.473145 24.1275 0.473145C11.0634 0.473145 0.472656 11.0639 0.472656 24.128C0.472656 37.192 11.0634 47.7828 24.1275 47.7828Z" fill="#FEE528"/>
<path fill-rule="evenodd" clip-rule="evenodd" d="M24.1304 12.126C16.4693 12.126 10.2559 17.0373 10.2559 23.096C10.2559 27.0385 12.8891 30.4949 16.8389 32.4288C16.5476 33.5123 15.7882 36.3532 15.6371 36.9614C15.4477 37.7153 15.9102 37.7062 16.2161 37.5022C16.4547 37.3438 20.0185 34.9218 21.5573 33.8747C22.3913 33.9986 23.2508 34.0641 24.1322 34.0641C31.7952 34.0641 38.0086 29.1527 38.0086 23.096C38.0086 17.0373 31.7934 12.126 24.1304 12.126Z" fill="#1F1F1F"/>
</g>
<defs>
<clipPath id="clip0_7958_49980">
<rect width="48.2558" height="48.2558" fill="white"/>
</clipPath>
</defs>
</svg>
